# Ifc4_SampleHouse_1_Roof.ifc -> OBJ
# schema IFC4, unit scale 0.001 m
# converted by layer descent: Domain -> Core -> Resource
# up axis Y (rotated from IFC Z-up)

o Basic_Roof_Roof_Flat-4Felt-150Ins-50Scr-150Conc-12Plr_286419_3cUkl32yn9qRSPvBJVyWh4
# IfcRoof | layer Shared_Building
v -8.430830 2.343180 1.939726
v -8.430830 2.483844 1.939726
v -8.430830 2.764172 1.474289
v -8.430830 3.000495 0.985037
v -8.430830 3.190808 0.476120
v -8.430830 3.333496 -0.048147
v -8.430830 3.427351 -0.583316
v -8.430830 3.471575 -1.124851
v -8.430830 3.465794 -1.668158
v -8.430830 3.444151 -1.939035
v -8.430830 3.363587 -2.476367
v -8.430830 3.233934 -3.004008
v -8.430830 3.056290 -3.517485
v -8.430830 2.832164 -4.012443
v -8.430830 2.563455 -4.484683
v -8.430830 2.252443 -4.930202
v -8.430830 1.901765 -5.345220
v -8.430830 1.741494 -5.345220
v -8.430830 1.920038 -5.151118
v -8.430830 2.089546 -4.949078
v -8.430830 2.249668 -4.739520
v -8.430830 2.400070 -4.522880
v -8.430830 2.540439 -4.299609
v -8.430830 2.670484 -4.070171
v -8.430830 2.789934 -3.835043
v -8.430830 2.898540 -3.594714
v -8.430830 2.996077 -3.349684
v -8.430830 3.082342 -3.100461
v -8.430830 3.157156 -2.847565
v -8.430830 3.220363 -2.591522
v -8.430830 3.271832 -2.332863
v -8.430830 3.311455 -2.072127
v -8.430830 3.339150 -1.809855
v -8.430830 3.354860 -1.546593
v -8.430830 3.358552 -1.282889
v -8.430830 3.350218 -1.019291
v -8.430830 3.329876 -0.756347
v -8.430830 3.297568 -0.494604
v -8.430830 3.253361 -0.234605
v -8.430830 3.197347 0.023107
v -8.430830 3.129642 0.277999
v -8.430830 3.050388 0.529538
v -8.430830 2.959748 0.777203
v -8.430830 2.857913 1.020479
v -8.430830 2.745092 1.258859
v -8.430830 2.621522 1.491847
v -8.430830 2.487458 1.718960
v 6.410152 3.329876 -0.756347
v 6.410152 3.350218 -1.019291
v 6.410152 3.358552 -1.282889
v 6.410152 3.354860 -1.546593
v 6.410152 3.339150 -1.809855
v 6.410152 3.311455 -2.072127
v 6.410152 3.271832 -2.332863
v 6.410152 3.220363 -2.591522
v 6.410152 3.157156 -2.847565
v 6.410152 3.082342 -3.100461
v 6.410152 2.996077 -3.349684
v 6.410152 2.898540 -3.594714
v 6.410152 2.789934 -3.835043
v 6.410152 2.670484 -4.070171
v 6.410152 2.540439 -4.299609
v 6.410152 2.400070 -4.522880
v 6.410152 2.249668 -4.739520
v 6.410152 2.089546 -4.949078
v 6.410152 1.920038 -5.151118
v 6.410152 1.741494 -5.345220
v 6.410152 1.901765 -5.345220
v 6.410152 2.252443 -4.930202
v 6.410152 2.563455 -4.484683
v 6.410152 2.832164 -4.012443
v 6.410152 3.056290 -3.517485
v 6.410152 3.233934 -3.004008
v 6.410152 3.363587 -2.476367
v 6.410152 3.444151 -1.939035
v 6.410152 3.465794 -1.668158
v 6.410152 3.471575 -1.124851
v 6.410152 3.427351 -0.583316
v 6.410152 3.333496 -0.048147
v 6.410152 3.190808 0.476120
v 6.410152 3.000495 0.985037
v 6.410152 2.764172 1.474289
v 6.410152 2.483844 1.939726
v 6.410152 2.343180 1.939726
v 6.410152 2.487458 1.718960
v 6.410152 2.621522 1.491847
v 6.410152 2.745092 1.258859
v 6.410152 2.857913 1.020479
v 6.410152 2.959748 0.777203
v 6.410152 3.050388 0.529538
v 6.410152 3.129642 0.277999
v 6.410152 3.197347 0.023107
v 6.410152 3.253361 -0.234605
v 6.410152 3.297568 -0.494604
v 3.728122 2.483844 1.939726
v 6.410152 2.483844 1.939726
v 6.410152 2.764172 1.474289
v -8.430830 2.764172 1.474289
v -8.430830 2.483844 1.939726
v -5.748800 2.483844 1.939726
v 2.951859 3.386587 -0.314651
v 1.944048 3.268190 0.215630
v 6.410152 3.333496 -0.048147
v -8.430830 2.563455 -4.484683
v -4.972537 2.703249 -4.251658
v -3.964727 2.413080 -4.711025
v -3.964727 3.268190 0.215630
v -4.972537 3.101513 0.732771
v -1.010339 3.237424 0.324537
v -8.430830 3.000495 0.985037
v -8.430830 2.764172 1.474289
v -3.964727 2.887969 1.232385
v -1.010339 3.237424 0.324537
v -1.010339 3.386587 -0.314651
v -3.964727 3.268190 0.215630
v -1.010339 3.456532 -1.803721
v 0.876277 3.475243 -1.353749
v 2.762894 3.456532 -1.803721
v -1.010339 2.902259 -3.870185
v -1.010339 3.151026 -3.262793
v 1.944048 2.949928 -3.767545
v 2.951859 3.386587 -0.314651
v 6.410152 3.333496 -0.048147
v 6.410152 3.427351 -0.583316
v -1.010339 3.151026 -3.262793
v -2.896956 3.352948 -2.529002
v 1.944048 3.304837 -2.741681
v 2.951859 3.101513 0.732771
v 1.944048 3.268190 0.215630
v -1.010339 3.237424 0.324537
v -3.964727 2.949928 -3.767545
v -1.010339 2.902259 -3.870185
v -4.972537 2.703249 -4.251658
v -2.896956 3.352948 -2.529002
v -1.010339 3.456532 -1.803721
v 0.876277 3.403554 -2.250955
v 0.876277 3.475243 -1.353749
v 3.956418 3.474880 -1.402219
v 2.762894 3.456532 -1.803721
v 6.410152 3.444151 -1.939035
v 2.762894 3.456532 -1.803721
v 6.410152 3.465794 -1.668158
v -3.964727 2.887969 1.232385
v -1.010339 2.936211 1.130014
v -4.972537 3.101513 0.732771
v -5.784218 3.455700 -0.853574
v -5.572386 3.475068 -1.284216
v -8.430830 3.471575 -1.124851
v 6.410152 3.427351 -0.583316
v 6.410152 3.471575 -1.124851
v 1.944048 3.455700 -0.853574
v 6.410152 3.000495 0.985037
v 6.410152 3.190808 0.476120
v 2.951859 3.101513 0.732771
v 1.944048 2.887969 1.232385
v 6.410152 2.764172 1.474289
v 6.410152 3.000495 0.985037
v 2.951859 2.703249 -4.251658
v 1.944048 2.949928 -3.767545
v 6.410152 2.832164 -4.012443
v -2.896956 3.469429 -1.071194
v -5.784218 3.455700 -0.853574
v -4.972537 3.386587 -0.314651
v -8.430830 3.333496 -0.048147
v -4.972537 3.386587 -0.314651
v -8.430830 3.427351 -0.583316
v -4.972537 3.101513 0.732771
v -3.964727 3.268190 0.215630
v -8.430830 3.190808 0.476120
v -4.783573 3.456532 -1.803721
v -2.896956 3.469429 -1.071194
v -1.010339 3.456532 -1.803721
v -8.430830 3.190808 0.476120
v -3.964727 3.268190 0.215630
v -8.430830 3.333496 -0.048147
v -8.430830 3.233934 -3.004008
v -4.972537 3.151026 -3.262793
v -8.430830 3.056290 -3.517485
v -4.783573 3.456532 -1.803721
v -8.430830 3.444151 -1.939035
v -8.430830 3.465794 -1.668158
v -4.972537 3.386587 -0.314651
v -3.964727 3.268190 0.215630
v -1.010339 3.386587 -0.314651
v 1.944048 3.268190 0.215630
v 2.951859 3.386587 -0.314651
v -1.010339 3.386587 -0.314651
v 6.410152 3.363587 -2.476367
v 6.410152 3.233934 -3.004008
v 1.944048 3.304837 -2.741681
v 6.410152 3.000495 0.985037
v 2.951859 3.101513 0.732771
v 1.944048 2.887969 1.232385
v 6.410152 3.233934 -3.004008
v 2.951859 3.151026 -3.262793
v 1.944048 3.304837 -2.741681
v -1.010339 2.202394 -4.994370
v 1.944048 2.413080 -4.711025
v 2.387108 2.156177 -5.052045
v 2.951859 3.151026 -3.262793
v 6.410152 3.233934 -3.004008
v 6.410152 3.056290 -3.517485
v -1.010339 2.724948 1.545590
v -3.964727 2.887969 1.232385
v -4.407787 2.688475 1.609872
v -1.010339 2.476967 -4.617613
v 2.951859 2.703249 -4.251658
v 1.944048 2.413080 -4.711025
v -8.430830 3.427351 -0.583316
v -5.784218 3.455700 -0.853574
v -8.430830 3.471575 -1.124851
v 6.410152 2.563455 -4.484683
v 6.410152 2.252443 -4.930202
v 1.944048 2.413080 -4.711025
v -1.010339 3.456532 -1.803721
v 2.762894 3.456532 -1.803721
v 0.876277 3.403554 -2.250955
v -5.572386 3.475068 -1.284216
v -8.430830 3.465794 -1.668158
v -8.430830 3.471575 -1.124851
v -1.010339 3.386587 -0.314651
v 2.951859 3.386587 -0.314651
v 1.944048 3.455700 -0.853574
v -2.896956 3.352948 -2.529002
v -1.010339 3.151026 -3.262793
v -4.972537 3.151026 -3.262793
v 6.410152 3.465794 -1.668158
v 2.762894 3.456532 -1.803721
v 3.956418 3.474880 -1.402219
v -4.783573 3.456532 -1.803721
v -1.010339 3.456532 -1.803721
v -2.896956 3.352948 -2.529002
v -8.430830 3.233934 -3.004008
v -8.430830 3.363587 -2.476367
v -5.784218 3.304837 -2.741681
v 6.410152 2.252443 -4.930202
v 6.410152 1.901765 -5.345220
v 3.728097 1.901765 -5.345220
v -5.748776 1.901765 -5.345220
v -8.430830 1.901765 -5.345220
v -8.430830 2.252443 -4.930202
v -5.572386 3.392341 -2.319578
v -8.430830 3.444151 -1.939035
v -4.783573 3.456532 -1.803721
v 2.762894 3.456532 -1.803721
v 3.956418 3.410892 -2.203042
v 0.876277 3.403554 -2.250955
v -5.784218 3.304837 -2.741681
v -5.572386 3.392341 -2.319578
v -2.896956 3.352948 -2.529002
v -8.430830 3.000495 0.985037
v -4.972537 3.101513 0.732771
v -8.430830 3.190808 0.476120
v 6.410152 3.190808 0.476120
v 6.410152 3.333496 -0.048147
v 1.944048 3.268190 0.215630
v 6.410152 3.056290 -3.517485
v 6.410152 2.832164 -4.012443
v 1.944048 2.949928 -3.767545
v -2.896956 3.469429 -1.071194
v 1.944048 3.455700 -0.853574
v 0.876277 3.475243 -1.353749
v -8.430830 2.563455 -4.484683
v -8.430830 2.832164 -4.012443
v -4.972537 2.703249 -4.251658
v -8.430830 3.056290 -3.517485
v -4.972537 3.151026 -3.262793
v -3.964727 2.949928 -3.767545
v -3.964727 2.413080 -4.711025
v -8.430830 2.252443 -4.930202
v -8.430830 2.563455 -4.484683
v 6.410152 2.563455 -4.484683
v 2.951859 2.703249 -4.251658
v 6.410152 2.832164 -4.012443
v 1.944048 3.304837 -2.741681
v 0.876277 3.403554 -2.250955
v 3.956418 3.410892 -2.203042
v -2.896956 3.469429 -1.071194
v -1.010339 3.386587 -0.314651
v 1.944048 3.455700 -0.853574
v -3.964727 2.949928 -3.767545
v -8.430830 2.832164 -4.012443
v -8.430830 3.056290 -3.517485
v -8.430830 2.764172 1.474289
v -5.748800 2.483844 1.939726
v -4.407787 2.688475 1.609872
v -1.010339 2.724948 1.545590
v -3.066770 2.483844 1.939726
v 1.046092 2.483844 1.939726
v 1.944048 2.949928 -3.767545
v 2.951859 2.703249 -4.251658
v -1.010339 2.902259 -3.870185
v 2.951859 3.151026 -3.262793
v 1.944048 2.949928 -3.767545
v -1.010339 3.151026 -3.262793
v -3.964727 2.949928 -3.767545
v -4.972537 3.151026 -3.262793
v -1.010339 3.151026 -3.262793
v 6.410152 2.252443 -4.930202
v 3.728097 1.901765 -5.345220
v 2.387108 2.156177 -5.052045
v -1.010339 2.202394 -4.994370
v 1.046099 1.901765 -5.345220
v -3.066778 1.901765 -5.345220
v 1.944048 2.887969 1.232385
v 2.951859 3.101513 0.732771
v -1.010339 2.936211 1.130014
v 2.387108 2.688475 1.609872
v 1.046092 2.483844 1.939726
v 3.728122 2.483844 1.939726
v -4.407787 2.688475 1.609872
v -5.748800 2.483844 1.939726
v -3.066770 2.483844 1.939726
v -3.964727 2.413080 -4.711025
v -4.972537 2.703249 -4.251658
v -1.010339 2.476967 -4.617613
v -4.407787 2.156177 -5.052045
v -3.066778 1.901765 -5.345220
v -5.748776 1.901765 -5.345220
v 2.387108 2.156177 -5.052045
v 3.728097 1.901765 -5.345220
v 1.046099 1.901765 -5.345220
v 1.944048 3.455700 -0.853574
v 2.951859 3.386587 -0.314651
v 6.410152 3.427351 -0.583316
v -3.964727 3.268190 0.215630
v -4.972537 3.386587 -0.314651
v -8.430830 3.333496 -0.048147
v -2.896956 3.469429 -1.071194
v -4.972537 3.386587 -0.314651
v -1.010339 3.386587 -0.314651
v 1.944048 2.949928 -3.767545
v 2.951859 3.151026 -3.262793
v 6.410152 3.056290 -3.517485
v 1.944048 3.304837 -2.741681
v 2.951859 3.151026 -3.262793
v -1.010339 3.151026 -3.262793
v -4.972537 3.151026 -3.262793
v -8.430830 3.233934 -3.004008
v -5.784218 3.304837 -2.741681
v 1.944048 3.268190 0.215630
v 2.951859 3.101513 0.732771
v 6.410152 3.190808 0.476120
v 2.951859 3.101513 0.732771
v -1.010339 3.101513 0.732771
v -4.972537 3.101513 0.732771
v -1.010339 2.936211 1.130014
v -3.964727 2.887969 1.232385
v -4.972537 3.101513 0.732771
v -8.430830 3.000495 0.985037
v -4.972537 3.101513 0.732771
v -1.010339 3.101513 0.732771
v 2.951859 3.101513 0.732771
v -1.010339 3.237424 0.324537
v -3.964727 2.949928 -3.767545
v -4.972537 2.703249 -4.251658
v -8.430830 2.832164 -4.012443
v -4.972537 2.703249 -4.251658
v -1.010339 2.703249 -4.251658
v 2.951859 2.703249 -4.251658
v -1.010339 2.476967 -4.617613
v 1.944048 2.413080 -4.711025
v 2.951859 2.703249 -4.251658
v 6.410152 2.563455 -4.484683
v 2.951859 2.703249 -4.251658
v -1.010339 2.703249 -4.251658
v -4.972537 2.703249 -4.251658
v -1.010339 2.902259 -3.870185
v -2.896956 3.469429 -1.071194
v 0.876277 3.475243 -1.353749
v -1.010339 3.456532 -1.803721
v 3.956418 3.474880 -1.402219
v 1.944048 3.455700 -0.853574
v 6.410152 3.471575 -1.124851
v 2.762894 3.456532 -1.803721
v 6.410152 3.444151 -1.939035
v 3.956418 3.410892 -2.203042
v -2.896956 3.352948 -2.529002
v 0.876277 3.403554 -2.250955
v 1.944048 3.304837 -2.741681
v 2.387108 2.688475 1.609872
v 6.410152 2.764172 1.474289
v 1.944048 2.887969 1.232385
v -1.010339 2.936211 1.130014
v -1.010339 2.724948 1.545590
v 1.944048 2.887969 1.232385
v -4.407787 2.156177 -5.052045
v -8.430830 2.252443 -4.930202
v -3.964727 2.413080 -4.711025
v -1.010339 2.476967 -4.617613
v -1.010339 2.202394 -4.994370
v -3.964727 2.413080 -4.711025
v -4.972537 3.386587 -0.314651
v -5.784218 3.455700 -0.853574
v -8.430830 3.427351 -0.583316
v -5.572386 3.475068 -1.284216
v -5.784218 3.455700 -0.853574
v -2.896956 3.469429 -1.071194
v -2.896956 3.469429 -1.071194
v -4.783573 3.456532 -1.803721
v -5.572386 3.475068 -1.284216
v -8.430830 3.465794 -1.668158
v -5.572386 3.475068 -1.284216
v -4.783573 3.456532 -1.803721
v -5.572386 3.392341 -2.319578
v -5.784218 3.304837 -2.741681
v -8.430830 3.363587 -2.476367
v -4.972537 3.151026 -3.262793
v -5.784218 3.304837 -2.741681
v -2.896956 3.352948 -2.529002
v -8.430830 3.444151 -1.939035
v -5.572386 3.392341 -2.319578
v -8.430830 3.363587 -2.476367
v -4.783573 3.456532 -1.803721
v -2.896956 3.352948 -2.529002
v -5.572386 3.392341 -2.319578
v 1.944048 3.455700 -0.853574
v 3.956418 3.474880 -1.402219
v 0.876277 3.475243 -1.353749
v 6.410152 3.471575 -1.124851
v 6.410152 3.465794 -1.668158
v 3.956418 3.474880 -1.402219
v 6.410152 3.444151 -1.939035
v 6.410152 3.363587 -2.476367
v 3.956418 3.410892 -2.203042
v 1.944048 3.304837 -2.741681
v 3.956418 3.410892 -2.203042
v 6.410152 3.363587 -2.476367
v -1.010339 3.386587 -0.314651
v -1.010339 3.237424 0.324537
v 1.944048 3.268190 0.215630
v -1.010339 2.724948 1.545590
v -4.407787 2.688475 1.609872
v -3.066770 2.483844 1.939726
v -8.430830 2.764172 1.474289
v -4.407787 2.688475 1.609872
v -3.964727 2.887969 1.232385
v -1.010339 3.151026 -3.262793
v -1.010339 2.902259 -3.870185
v -3.964727 2.949928 -3.767545
v -1.010339 2.202394 -4.994370
v 2.387108 2.156177 -5.052045
v 1.046099 1.901765 -5.345220
v 6.410152 2.252443 -4.930202
v 2.387108 2.156177 -5.052045
v 1.944048 2.413080 -4.711025
v -1.010339 2.724948 1.545590
v -1.010339 2.936211 1.130014
v -3.964727 2.887969 1.232385
v 2.387108 2.688475 1.609872
v -1.010339 2.724948 1.545590
v 1.046092 2.483844 1.939726
v 6.410152 2.764172 1.474289
v 2.387108 2.688475 1.609872
v 3.728122 2.483844 1.939726
v -1.010339 2.724948 1.545590
v 2.387108 2.688475 1.609872
v 1.944048 2.887969 1.232385
v -1.010339 2.202394 -4.994370
v -1.010339 2.476967 -4.617613
v 1.944048 2.413080 -4.711025
v -4.407787 2.156177 -5.052045
v -1.010339 2.202394 -4.994370
v -3.066778 1.901765 -5.345220
v -8.430830 2.252443 -4.930202
v -4.407787 2.156177 -5.052045
v -5.748776 1.901765 -5.345220
v -1.010339 2.202394 -4.994370
v -4.407787 2.156177 -5.052045
v -3.964727 2.413080 -4.711025
v -8.430830 1.741494 -5.345220
v -8.430830 1.901765 -5.345220
v -5.748776 1.901765 -5.345220
v -3.066778 1.901765 -5.345220
v 1.046099 1.901765 -5.345220
v 3.728097 1.901765 -5.345220
v 6.410152 1.901765 -5.345220
v 6.410152 1.741494 -5.345220
v 1.645022 1.741494 -5.345220
v -0.737543 1.741494 -5.345220
v -3.120107 1.741494 -5.345220
v -5.775396 1.741494 -5.345220
v -8.430830 2.540439 -4.299609
v -8.430830 2.400070 -4.522880
v -4.779914 2.606770 -4.185632
v -4.447704 2.038648 -5.011732
v -5.775396 1.741494 -5.345220
v -3.120107 1.741494 -5.345220
v -0.737543 1.741494 -5.345220
v -3.830652 2.326104 -4.632057
v -8.430830 2.249668 -4.739520
v -4.447704 2.038648 -5.011732
v -8.430830 2.089546 -4.949078
v -8.430830 1.920038 -5.151118
v -4.447704 2.038648 -5.011732
v -3.830652 2.326104 -4.632057
v -4.779914 2.606770 -4.185632
v -8.430830 2.400070 -4.522880
v 6.410152 2.400070 -4.522880
v 6.410152 2.540439 -4.299609
v 2.521919 2.471527 -4.412045
v -4.779914 2.606770 -4.185632
v -8.430830 2.670484 -4.070171
v -8.430830 2.540439 -4.299609
v -4.779914 3.040631 -3.225564
v -3.830652 3.190219 -2.719904
v -8.430830 3.157156 -2.847565
v 2.759235 3.040631 -3.225564
v 1.809973 2.845607 -3.715498
v 6.410152 2.898540 -3.594714
v 3.316946 2.254303 -4.733149
v 0.623395 2.170802 -4.845211
v 3.288537 2.005944 -5.051064
v -4.779914 3.293130 -2.202721
v -3.830652 3.348506 -1.678314
v -8.430830 3.339150 -1.809855
v -8.430830 2.400070 -4.522880
v -8.430830 2.249668 -4.739520
v -3.830652 2.326104 -4.632057
v -4.779914 3.040631 -3.225564
v -8.430830 2.898540 -3.594714
v -3.830652 2.845607 -3.715498
v 2.759235 3.293130 -2.202721
v 1.809973 3.190219 -2.719904
v 6.410152 3.220363 -2.591522
v -4.779914 3.040631 -3.225564
v -8.430830 3.082342 -3.100461
v -8.430830 2.996077 -3.349684
v -4.779914 3.355888 -1.151043
v -3.830652 3.315214 -0.625291
v -8.430830 3.329876 -0.756347
v 2.759235 3.355888 -1.151043
v 1.809973 3.348506 -1.678314
v 6.410152 3.354860 -1.546593
v -4.779914 2.606770 -4.185632
v -1.010339 2.797280 -3.819668
v -3.830652 2.845607 -3.715498
v -4.779914 3.293130 -2.202721
v -8.430830 3.220363 -2.591522
v -3.830652 3.190219 -2.719904
v -4.779914 3.226823 -0.105430
v -3.830652 3.091449 0.404220
v -8.430830 3.129642 0.277999
v -4.779914 3.293130 -2.202721
v -8.430830 3.311455 -2.072127
v -8.430830 3.271832 -2.332863
v 2.759235 3.226823 -0.105430
v 1.809973 3.315214 -0.625291
v 6.410152 3.297568 -0.494604
v -8.430830 2.996077 -3.349684
v -8.430830 2.898540 -3.594714
v -4.779914 3.040631 -3.225564
v -4.779914 3.040631 -3.225564
v -1.010339 3.161592 -2.831113
v -3.830652 3.190219 -2.719904
v 2.759235 2.910217 0.899422
v 1.809973 3.091449 0.404220
v 6.410152 3.050388 0.529538
v -3.830652 3.190219 -2.719904
v -8.430830 3.220363 -2.591522
v -8.430830 3.157156 -2.847565
v 6.410152 2.343180 1.939726
v 1.099316 2.343180 1.939726
v 6.410152 2.487458 1.718960
v -3.119995 2.343180 1.939726
v -8.430830 2.343180 1.939726
v -8.430830 2.487458 1.718960
v -3.830652 2.845607 -3.715498
v -8.430830 2.898540 -3.594714
v -8.430830 2.789934 -3.835043
v 1.809973 3.315214 -0.625291
v -1.010339 3.226823 -0.105430
v -1.010339 3.328150 -0.739395
v 3.288537 2.005944 -5.051064
v 6.410152 1.920038 -5.151118
v 6.410152 2.089546 -4.949078
v -4.779914 3.293130 -2.202721
v -1.010339 3.293130 -2.202721
v 2.759235 3.293130 -2.202721
v -1.010339 3.340528 -1.792871
v 2.521919 2.471527 -4.412045
v 0.623395 2.170802 -4.845211
v 3.316946 2.254303 -4.733149
v 2.521919 2.471527 -4.412045
v 1.723134 2.666756 -4.077102
v -1.010339 2.606770 -4.185632
v 6.410152 3.311455 -2.072127
v 6.410152 3.339150 -1.809855
v 2.759235 3.293130 -2.202721
v 1.809973 3.091449 0.404220
v -1.010339 2.910217 0.899422
v -1.010339 3.124869 0.294357
v 3.288537 2.005944 -5.051064
v 6.410152 2.089546 -4.949078
v 3.316946 2.254303 -4.733149
v -4.779914 3.355888 -1.151043
v -1.010339 3.355888 -1.151043
v 2.759235 3.355888 -1.151043
v -1.010339 3.328150 -0.739395
v 2.521919 2.471527 -4.412045
v 6.410152 2.540439 -4.299609
v 6.410152 2.670484 -4.070171
v 2.521919 2.471527 -4.412045
v 6.410152 2.670484 -4.070171
v 1.723134 2.666756 -4.077102
v 6.410152 3.350218 -1.019291
v 6.410152 3.329876 -0.756347
v 2.759235 3.355888 -1.151043
v -4.779914 2.606770 -4.185632
v -3.830652 2.845607 -3.715498
v -8.430830 2.789934 -3.835043
v -8.430830 2.959748 0.777203
v -8.430830 3.050388 0.529538
v -4.779914 2.910217 0.899422
v -4.779914 3.226823 -0.105430
v -1.010339 3.226823 -0.105430
v 2.759235 3.226823 -0.105430
v -1.010339 3.124869 0.294357
v 6.410152 2.898540 -3.594714
v 1.809973 2.845607 -3.715498
v 6.410152 2.789934 -3.835043
v 2.759235 3.040631 -3.225564
v 6.410152 3.157156 -2.847565
v 1.809973 3.190219 -2.719904
v 6.410152 3.082342 -3.100461
v 2.759235 3.040631 -3.225564
v 6.410152 2.996077 -3.349684
v 1.809973 2.845607 -3.715498
v 2.759235 3.040631 -3.225564
v -1.010339 3.040631 -3.225564
v -1.010339 3.040631 -3.225564
v -4.779914 3.040631 -3.225564
v -3.830652 2.845607 -3.715498
v -0.912730 2.742071 1.264875
v -1.010339 2.548927 1.617755
v -3.830652 2.684635 1.376057
v -8.430830 2.621522 1.491847
v -3.830652 2.684635 1.376057
v -8.430830 2.487458 1.718960
v -1.010339 3.293130 -2.202721
v 1.809973 3.190219 -2.719904
v 2.759235 3.293130 -2.202721
v -1.010339 3.293130 -2.202721
v -4.779914 3.293130 -2.202721
v -3.830652 3.190219 -2.719904
v -8.430830 2.249668 -4.739520
v -8.430830 2.089546 -4.949078
v -4.447704 2.038648 -5.011732
v 6.410152 3.157156 -2.847565
v 6.410152 3.220363 -2.591522
v 1.809973 3.190219 -2.719904
v 6.410152 3.311455 -2.072127
v 2.759235 3.293130 -2.202721
v 6.410152 3.271832 -2.332863
v -3.119995 2.343180 1.939726
v -3.830652 2.684635 1.376057
v -1.010339 2.548927 1.617755
v 2.759235 3.293130 -2.202721
v 6.410152 3.339150 -1.809855
v 1.809973 3.348506 -1.678314
v 1.099316 2.343180 1.939726
v 1.809973 2.684635 1.376057
v 6.410152 2.487458 1.718960
v -8.430830 3.339150 -1.809855
v -3.830652 3.348506 -1.678314
v -8.430830 3.354860 -1.546593
v 6.410152 3.197347 0.023107
v 6.410152 3.129642 0.277999
v 2.759235 3.226823 -0.105430
v 6.410152 2.621522 1.491847
v 1.809973 2.684635 1.376057
v 6.410152 2.745092 1.258859
v -8.430830 3.253361 -0.234605
v -8.430830 3.297568 -0.494604
v -4.779914 3.226823 -0.105430
v 6.410152 2.249668 -4.739520
v 6.410152 2.400070 -4.522880
v 3.316946 2.254303 -4.733149
v -4.779914 3.355888 -1.151043
v -8.430830 3.350218 -1.019291
v -8.430830 3.358552 -1.282889
v -4.779914 3.293130 -2.202721
v -1.010339 3.340528 -1.792871
v -3.830652 3.348506 -1.678314
v -4.779914 3.226823 -0.105430
v -8.430830 3.297568 -0.494604
v -3.830652 3.315214 -0.625291
v -4.779914 2.910217 0.899422
v -3.830652 2.684635 1.376057
v -8.430830 2.745092 1.258859
v -4.779914 3.226823 -0.105430
v -8.430830 3.197347 0.023107
v -8.430830 3.253361 -0.234605
v 1.809973 2.845607 -3.715498
v -1.010339 3.040631 -3.225564
v -1.010339 2.797280 -3.819668
v -3.830652 2.326104 -4.632057
v -0.899171 2.384141 -4.546850
v -1.010339 2.606770 -4.185632
v -4.779914 3.355888 -1.151043
v -1.010339 3.328150 -0.739395
v -3.830652 3.315214 -0.625291
v -0.737543 1.741494 -5.345220
v 1.645022 1.741494 -5.345220
v 0.623395 2.170802 -4.845211
v -3.830652 3.315214 -0.625291
v -8.430830 3.297568 -0.494604
v -8.430830 3.329876 -0.756347
v -4.779914 2.910217 0.899422
v -8.430830 3.050388 0.529538
v -3.830652 3.091449 0.404220
v -8.430830 3.271832 -2.332863
v -8.430830 3.220363 -2.591522
v -4.779914 3.293130 -2.202721
v -4.779914 2.910217 0.899422
v -8.430830 2.857913 1.020479
v -8.430830 2.959748 0.777203
v 1.809973 3.190219 -2.719904
v -1.010339 3.293130 -2.202721
v -1.010339 3.161592 -2.831113
v 6.410152 2.670484 -4.070171
v 6.410152 2.789934 -3.835043
v 1.723134 2.666756 -4.077102
v -4.779914 3.226823 -0.105430
v -1.010339 3.124869 0.294357
v -3.830652 3.091449 0.404220
v 1.809973 2.684635 1.376057
v 1.099316 2.343180 1.939726
v -1.010339 2.548927 1.617755
v -4.779914 2.606770 -4.185632
v -1.010339 2.606770 -4.185632
v -1.010339 2.797280 -3.819668
v -4.779914 2.910217 0.899422
v -0.912730 2.742071 1.264875
v -3.830652 2.684635 1.376057
v -8.430830 3.358552 -1.282889
v -8.430830 3.354860 -1.546593
v -4.779914 3.355888 -1.151043
v 1.809973 3.348506 -1.678314
v -1.010339 3.355888 -1.151043
v -1.010339 3.340528 -1.792871
v 6.410152 1.741494 -5.345220
v 3.288537 2.005944 -5.051064
v 1.645022 1.741494 -5.345220
v 6.410152 3.082342 -3.100461
v 6.410152 3.157156 -2.847565
v 2.759235 3.040631 -3.225564
v -8.430830 2.745092 1.258859
v -3.830652 2.684635 1.376057
v -8.430830 2.621522 1.491847
v -4.779914 3.040631 -3.225564
v -1.010339 3.040631 -3.225564
v 2.759235 3.040631 -3.225564
v -1.010339 3.161592 -2.831113
v -3.830652 3.091449 0.404220
v -8.430830 3.050388 0.529538
v -8.430830 3.129642 0.277999
v 0.623395 2.170802 -4.845211
v 2.521919 2.471527 -4.412045
v -0.899171 2.384141 -4.546850
v 1.809973 3.348506 -1.678314
v 2.759235 3.355888 -1.151043
v -1.010339 3.355888 -1.151043
v -1.010339 3.355888 -1.151043
v -4.779914 3.355888 -1.151043
v -3.830652 3.348506 -1.678314
v 6.410152 3.354860 -1.546593
v 1.809973 3.348506 -1.678314
v 6.410152 3.339150 -1.809855
v 6.410152 3.350218 -1.019291
v 2.759235 3.355888 -1.151043
v 6.410152 3.358552 -1.282889
v -8.430830 2.789934 -3.835043
v -8.430830 2.670484 -4.070171
v -4.779914 2.606770 -4.185632
v -8.430830 3.157156 -2.847565
v -8.430830 3.082342 -3.100461
v -4.779914 3.040631 -3.225564
v 2.759235 3.355888 -1.151043
v 6.410152 3.329876 -0.756347
v 1.809973 3.315214 -0.625291
v 6.410152 2.898540 -3.594714
v 6.410152 2.996077 -3.349684
v 2.759235 3.040631 -3.225564
v -1.010339 3.226823 -0.105430
v 1.809973 3.315214 -0.625291
v 2.759235 3.226823 -0.105430
v -1.010339 3.226823 -0.105430
v -4.779914 3.226823 -0.105430
v -3.830652 3.315214 -0.625291
v 1.809973 3.315214 -0.625291
v 6.410152 3.329876 -0.756347
v 6.410152 3.297568 -0.494604
v 6.410152 3.197347 0.023107
v 2.759235 3.226823 -0.105430
v 6.410152 3.253361 -0.234605
v -1.010339 2.606770 -4.185632
v -4.779914 2.606770 -4.185632
v -3.830652 2.326104 -4.632057
v -8.430830 3.339150 -1.809855
v -8.430830 3.311455 -2.072127
v -4.779914 3.293130 -2.202721
v 2.759235 3.226823 -0.105430
v 6.410152 3.129642 0.277999
v 1.809973 3.091449 0.404220
v 6.410152 3.220363 -2.591522
v 6.410152 3.271832 -2.332863
v 2.759235 3.293130 -2.202721
v -1.010339 2.910217 0.899422
v 1.809973 3.091449 0.404220
v 2.759235 2.910217 0.899422
v -1.010339 2.910217 0.899422
v -4.779914 2.910217 0.899422
v -3.830652 3.091449 0.404220
v 6.410152 3.050388 0.529538
v 1.809973 3.091449 0.404220
v 6.410152 3.129642 0.277999
v -8.430830 3.329876 -0.756347
v -8.430830 3.350218 -1.019291
v -4.779914 3.355888 -1.151043
v 6.410152 2.857913 1.020479
v 2.759235 2.910217 0.899422
v 6.410152 2.959748 0.777203
v 6.410152 3.354860 -1.546593
v 6.410152 3.358552 -1.282889
v 2.759235 3.355888 -1.151043
v 1.809973 2.684635 1.376057
v 2.759235 2.910217 0.899422
v 6.410152 2.745092 1.258859
v 6.410152 2.487458 1.718960
v 1.809973 2.684635 1.376057
v 6.410152 2.621522 1.491847
v 6.410152 2.857913 1.020479
v 6.410152 2.745092 1.258859
v 2.759235 2.910217 0.899422
v -3.119995 2.343180 1.939726
v -8.430830 2.487458 1.718960
v -3.830652 2.684635 1.376057
v -3.830652 3.348506 -1.678314
v -4.779914 3.355888 -1.151043
v -8.430830 3.354860 -1.546593
v -8.430830 3.129642 0.277999
v -8.430830 3.197347 0.023107
v -4.779914 3.226823 -0.105430
v -8.430830 1.920038 -5.151118
v -8.430830 1.741494 -5.345220
v -5.775396 1.741494 -5.345220
v 6.410152 3.297568 -0.494604
v 6.410152 3.253361 -0.234605
v 2.759235 3.226823 -0.105430
v -8.430830 2.745092 1.258859
v -8.430830 2.857913 1.020479
v -4.779914 2.910217 0.899422
v 6.410152 3.050388 0.529538
v 6.410152 2.959748 0.777203
v 2.759235 2.910217 0.899422
v -0.912730 2.742071 1.264875
v -4.779914 2.910217 0.899422
v -1.010339 2.910217 0.899422
v 2.759235 2.910217 0.899422
v 6.410152 1.920038 -5.151118
v 3.288537 2.005944 -5.051064
v 6.410152 1.741494 -5.345220
v 1.645022 1.741494 -5.345220
v 3.288537 2.005944 -5.051064
v 0.623395 2.170802 -4.845211
v -8.430830 1.920038 -5.151118
v -5.775396 1.741494 -5.345220
v -4.447704 2.038648 -5.011732
v -3.830652 2.326104 -4.632057
v -4.447704 2.038648 -5.011732
v 0.623395 2.170802 -4.845211
v 2.521919 2.471527 -4.412045
v 3.316946 2.254303 -4.733149
v 6.410152 2.400070 -4.522880
v 6.410152 2.249668 -4.739520
v 3.316946 2.254303 -4.733149
v 6.410152 2.089546 -4.949078
v -1.010339 2.606770 -4.185632
v -0.899171 2.384141 -4.546850
v 2.521919 2.471527 -4.412045
v -0.899171 2.384141 -4.546850
v -3.830652 2.326104 -4.632057
v 0.623395 2.170802 -4.845211
v -3.830652 2.845607 -3.715498
v -1.010339 2.797280 -3.819668
v -1.010339 3.040631 -3.225564
v 1.809973 2.845607 -3.715498
v -1.010339 2.797280 -3.819668
v 1.723134 2.666756 -4.077102
v -3.830652 3.190219 -2.719904
v -1.010339 3.161592 -2.831113
v -1.010339 3.293130 -2.202721
v 1.809973 3.190219 -2.719904
v -1.010339 3.161592 -2.831113
v 2.759235 3.040631 -3.225564
v -3.830652 3.348506 -1.678314
v -1.010339 3.340528 -1.792871
v -1.010339 3.355888 -1.151043
v 1.809973 3.348506 -1.678314
v -1.010339 3.340528 -1.792871
v 2.759235 3.293130 -2.202721
v -3.830652 3.315214 -0.625291
v -1.010339 3.328150 -0.739395
v -1.010339 3.226823 -0.105430
v 1.809973 3.315214 -0.625291
v -1.010339 3.328150 -0.739395
v 2.759235 3.355888 -1.151043
v -3.830652 3.091449 0.404220
v -1.010339 3.124869 0.294357
v -1.010339 2.910217 0.899422
v 1.809973 3.091449 0.404220
v -1.010339 3.124869 0.294357
v 2.759235 3.226823 -0.105430
v -3.119995 2.343180 1.939726
v -1.010339 2.548927 1.617755
v 1.099316 2.343180 1.939726
v 1.809973 2.684635 1.376057
v -1.010339 2.548927 1.617755
v -0.912730 2.742071 1.264875
v 1.809973 2.684635 1.376057
v -0.912730 2.742071 1.264875
v 2.759235 2.910217 0.899422
v -1.010339 2.606770 -4.185632
v 1.723134 2.666756 -4.077102
v -1.010339 2.797280 -3.819668
v 6.410152 2.789934 -3.835043
v 1.809973 2.845607 -3.715498
v 1.723134 2.666756 -4.077102
v 0.623395 2.170802 -4.845211
v -4.447704 2.038648 -5.011732
v -0.737543 1.741494 -5.345220
v -8.430830 2.343180 1.939726
v -3.119995 2.343180 1.939726
v 1.099316 2.343180 1.939726
v 6.410152 2.343180 1.939726
v 6.410152 2.483844 1.939726
v 3.728122 2.483844 1.939726
v 1.046092 2.483844 1.939726
v -3.066770 2.483844 1.939726
v -5.748800 2.483844 1.939726
v -8.430830 2.483844 1.939726
f 47 1 2
f 47 2 3
f 47 3 4
f 4 5 6
f 4 6 7
f 4 7 8
f 8 9 10
f 8 10 11
f 8 11 12
f 12 13 14
f 12 14 15
f 12 15 16
f 16 17 18
f 16 18 19
f 16 19 20
f 16 20 21
f 16 21 22
f 16 22 23
f 16 23 24
f 12 16 24
f 12 24 25
f 12 25 26
f 12 26 27
f 12 27 28
f 12 28 29
f 12 29 30
f 12 30 31
f 8 12 31
f 8 31 32
f 8 32 33
f 8 33 34
f 8 34 35
f 8 35 36
f 8 36 37
f 8 37 38
f 8 38 39
f 4 8 39
f 4 39 40
f 4 40 41
f 4 41 42
f 4 42 43
f 4 43 44
f 4 44 45
f 4 45 46
f 4 46 47
f 66 67 68
f 65 66 68
f 64 65 68
f 63 64 68
f 62 63 68
f 62 68 69
f 61 62 69
f 60 61 69
f 60 69 70
f 59 60 70
f 58 59 70
f 58 70 71
f 57 58 71
f 56 57 71
f 56 71 72
f 55 56 72
f 54 55 72
f 54 72 73
f 53 54 73
f 52 53 73
f 52 73 74
f 51 52 74
f 50 51 74
f 50 74 75
f 49 50 75
f 48 49 75
f 48 75 76
f 94 48 76
f 94 76 77
f 94 77 78
f 94 78 79
f 94 79 80
f 80 81 82
f 80 82 83
f 83 84 85
f 83 85 86
f 80 83 86
f 80 86 87
f 80 87 88
f 80 88 89
f 80 89 90
f 80 90 91
f 80 91 92
f 80 92 93
f 80 93 94
f 95 96 97
f 98 99 100
f 101 102 103
f 104 105 106
f 107 108 109
f 110 111 112
f 113 114 115
f 116 117 118
f 119 120 121
f 122 123 124
f 125 126 127
f 128 129 130
f 131 132 133
f 134 135 136
f 137 138 139
f 140 141 142
f 143 144 145
f 146 147 148
f 149 150 151
f 152 153 154
f 155 156 157
f 158 159 160
f 161 162 163
f 164 165 166
f 167 168 169
f 170 171 172
f 173 174 175
f 176 177 178
f 179 180 181
f 182 183 184
f 185 186 187
f 188 189 190
f 191 192 193
f 194 195 196
f 197 198 199
f 200 201 202
f 203 204 205
f 206 207 208
f 209 210 211
f 212 213 214
f 215 216 217
f 218 219 220
f 221 222 223
f 224 225 226
f 227 228 229
f 230 231 232
f 233 234 235
f 236 237 238
f 239 240 241
f 242 243 244
f 245 246 247
f 248 249 250
f 251 252 253
f 254 255 256
f 257 258 259
f 260 261 262
f 263 264 265
f 266 267 268
f 269 270 271
f 272 273 274
f 275 276 277
f 278 279 280
f 281 282 283
f 284 285 286
f 287 288 289
f 290 291 292
f 293 294 295
f 296 297 298
f 299 300 301
f 302 303 304
f 305 306 307
f 308 309 310
f 311 312 313
f 314 315 316
f 317 318 319
f 320 321 322
f 323 324 325
f 326 327 328
f 329 330 331
f 332 333 334
f 335 336 337
f 338 339 340
f 341 342 343
f 347 344 345
f 345 346 347
f 348 349 350
f 354 351 352
f 352 353 354
f 355 356 357
f 361 358 359
f 359 360 361
f 362 363 364
f 368 365 366
f 366 367 368
f 369 370 371
f 372 373 374
f 375 376 377
f 378 379 380
f 381 382 383
f 384 385 386
f 387 388 389
f 390 391 392
f 393 394 395
f 396 397 398
f 399 400 401
f 402 403 404
f 405 406 407
f 408 409 410
f 411 412 413
f 414 415 416
f 417 418 419
f 420 421 422
f 423 424 425
f 426 427 428
f 429 430 431
f 432 433 434
f 435 436 437
f 438 439 440
f 441 442 443
f 444 445 446
f 447 448 449
f 450 451 452
f 453 454 455
f 456 457 458
f 459 460 461
f 462 463 464
f 465 466 467
f 468 469 470
f 482 471 472
f 482 472 473
f 482 473 474
f 482 474 475
f 482 475 476
f 482 476 477
f 482 477 478
f 478 479 480
f 478 480 481
f 478 481 482
f 483 484 485
f 486 487 488
f 486 488 489
f 490 491 492
f 493 494 495
f 496 497 498
f 499 500 501
f 502 503 504
f 505 506 507
f 508 509 510
f 511 512 513
f 514 515 516
f 517 518 519
f 520 521 522
f 523 524 525
f 526 527 528
f 529 530 531
f 532 533 534
f 535 536 537
f 538 539 540
f 541 542 543
f 544 545 546
f 547 548 549
f 550 551 552
f 553 554 555
f 556 557 558
f 559 560 561
f 562 563 564
f 565 566 567
f 568 569 570
f 571 572 573
f 574 575 576
f 580 577 578
f 578 579 580
f 581 582 583
f 584 585 586
f 587 588 589
f 590 591 592
f 593 594 595
f 599 596 597
f 597 598 599
f 600 601 602
f 603 604 605
f 606 607 608
f 609 610 611
f 612 613 614
f 618 615 616
f 616 617 618
f 619 620 621
f 622 623 624
f 625 626 627
f 628 629 630
f 631 632 633
f 634 635 636
f 637 638 639
f 640 641 642
f 643 644 645
f 646 647 648
f 649 650 651
f 652 653 654
f 655 656 657
f 658 659 660
f 661 662 663
f 664 665 666
f 667 668 669
f 670 671 672
f 673 674 675
f 676 677 678
f 679 680 681
f 682 683 684
f 685 686 687
f 688 689 690
f 691 692 693
f 694 695 696
f 697 698 699
f 700 701 702
f 703 704 705
f 706 707 708
f 709 710 711
f 712 713 714
f 715 716 717
f 718 719 720
f 721 722 723
f 724 725 726
f 727 728 729
f 730 731 732
f 733 734 735
f 736 737 738
f 739 740 741
f 742 743 744
f 745 746 747
f 748 749 750
f 754 751 752
f 752 753 754
f 755 756 757
f 758 759 760
f 761 762 763
f 764 765 766
f 767 768 769
f 770 771 772
f 773 774 775
f 776 777 778
f 779 780 781
f 782 783 784
f 785 786 787
f 788 789 790
f 791 792 793
f 794 795 796
f 797 798 799
f 800 801 802
f 803 804 805
f 806 807 808
f 809 810 811
f 812 813 814
f 815 816 817
f 818 819 820
f 821 822 823
f 824 825 826
f 827 828 829
f 830 831 832
f 833 834 835
f 836 837 838
f 839 840 841
f 842 843 844
f 845 846 847
f 848 849 850
f 851 852 853
f 854 855 856
f 860 857 858
f 858 859 860
f 861 862 863
f 864 865 866
f 867 868 869
f 870 871 872
f 873 874 875
f 876 877 878
f 879 880 881
f 882 883 884
f 885 886 887
f 888 889 890
f 891 892 893
f 894 895 896
f 897 898 899
f 900 901 902
f 903 904 905
f 906 907 908
f 909 910 911
f 912 913 914
f 915 916 917
f 918 919 920
f 921 922 923
f 924 925 926
f 927 928 929
f 930 931 932
f 942 933 934
f 942 934 935
f 942 935 936
f 936 937 938
f 942 936 938
f 942 938 939
f 942 939 940
f 940 941 942

o Floor_Simple_floor_295048_3ntFzSulnDNeQ4nJrMgcOt
# IfcSlab | layer Shared_Building
v -7.734848 2.500000 1.246418
v -7.734848 2.500000 -4.521082
v 6.232652 2.500000 -4.521082
v 6.232652 2.500000 1.213918
v -2.834848 2.500000 1.213918
v -2.834848 2.500000 1.246418
v -7.734848 2.335000 1.246418
v -7.734848 2.335000 -4.521082
v 6.232652 2.335000 -4.521082
v 6.232652 2.335000 1.213918
v -2.834848 2.335000 1.213918
v -2.834848 2.335000 1.246418
f 944 943 948
f 954 949 950
f 946 945 944
f 950 951 952
f 947 946 944
f 950 952 953
f 948 947 944
f 950 953 954
f 943 944 950
f 943 950 949
f 944 945 951
f 944 951 950
f 945 946 952
f 945 952 951
f 946 947 953
f 946 953 952
f 947 948 954
f 947 954 953
f 948 943 949
f 948 949 954

