# Ifc4_SampleHouse_IfcWindow.ifc -> OBJ
# schema IFC4, unit scale 0.001 m
# converted by layer descent: Domain -> Core -> Resource
# up axis Y (rotated from IFC Z-up)

o Windows_Sgl_Plain_1810x1210mm_286105_3cUkl32yn9qRSPvBJVyWcE
# IfcWindow | layer Shared_Building
v 2.963902 0.900000 -4.383582
v 2.963902 0.900000 -4.408582
v 2.988902 0.900000 -4.408582
v 2.988902 0.900000 -4.565582
v 4.798902 0.900000 -4.565582
v 4.798902 0.900000 -4.408582
v 4.823902 0.900000 -4.408582
v 4.823902 0.900000 -4.383582
v 2.963902 0.925000 -4.383582
v 4.823902 0.925000 -4.383582
v 4.823902 0.925000 -4.408582
v 4.798902 0.925000 -4.408582
v 4.798902 0.925000 -4.565582
v 2.988902 0.925000 -4.565582
v 2.988902 0.925000 -4.408582
v 2.963902 0.925000 -4.408582
v 2.963902 0.900000 -4.408582
v 2.963902 0.900000 -4.383582
v 2.963902 0.925000 -4.383582
v 2.963902 0.925000 -4.408582
v 2.988902 0.900000 -4.408582
v 2.963902 0.900000 -4.408582
v 2.963902 0.925000 -4.408582
v 2.988902 0.925000 -4.408582
v 2.988902 0.900000 -4.565582
v 2.988902 0.900000 -4.408582
v 2.988902 0.925000 -4.408582
v 2.988902 0.925000 -4.565582
v 4.798902 0.900000 -4.565582
v 2.988902 0.900000 -4.565582
v 2.988902 0.925000 -4.565582
v 4.798902 0.925000 -4.565582
v 4.798902 0.900000 -4.408582
v 4.798902 0.900000 -4.565582
v 4.798902 0.925000 -4.565582
v 4.798902 0.925000 -4.408582
v 4.823902 0.900000 -4.408582
v 4.798902 0.900000 -4.408582
v 4.798902 0.925000 -4.408582
v 4.823902 0.925000 -4.408582
v 4.823902 0.900000 -4.383582
v 4.823902 0.900000 -4.408582
v 4.823902 0.925000 -4.408582
v 4.823902 0.925000 -4.383582
v 2.963902 0.900000 -4.383582
v 4.823902 0.900000 -4.383582
v 4.823902 0.925000 -4.383582
v 2.963902 0.925000 -4.383582
v 2.988902 0.900000 -4.565582
v 4.798902 0.900000 -4.565582
v 4.798902 2.110000 -4.565582
v 2.988902 2.110000 -4.565582
v 2.988902 0.900000 -4.565582
v 2.988902 2.110000 -4.565582
v 2.988902 2.110000 -4.648582
v 2.988902 0.951000 -4.648582
v 2.988902 0.949688 -4.663582
v 2.988902 0.944745 -4.663582
v 2.988902 0.933809 -4.736082
v 2.988902 0.900000 -4.736082
v 2.988902 0.951000 -4.648582
v 2.988902 2.110000 -4.648582
v 4.798902 2.110000 -4.648582
v 4.798902 0.951000 -4.648582
v 3.028902 0.963000 -4.648582
v 3.028902 2.070000 -4.648582
v 3.028902 2.070000 -4.583582
v 3.028902 0.963000 -4.583582
v 3.028902 2.070000 -4.583582
v 4.758902 2.070000 -4.583582
v 4.758902 0.963000 -4.583582
v 3.028902 0.963000 -4.583582
v 3.048902 2.050000 -4.583582
v 3.048902 2.050000 -4.565582
v 3.048902 0.975000 -4.565582
v 3.048902 0.975000 -4.583582
v 2.988902 2.110000 -4.565582
v 4.798902 2.110000 -4.565582
v 4.798902 2.110000 -4.648582
v 2.988902 2.110000 -4.648582
v 3.028902 2.070000 -4.648582
v 4.758902 2.070000 -4.648582
v 4.758902 2.070000 -4.583582
v 3.028902 2.070000 -4.583582
v 4.738902 2.050000 -4.565582
v 3.048902 2.050000 -4.565582
v 3.048902 2.050000 -4.583582
v 4.738902 2.050000 -4.583582
v 4.798902 0.951000 -4.648582
v 4.798902 2.110000 -4.648582
v 4.798902 2.110000 -4.565582
v 4.798902 0.900000 -4.565582
v 4.798902 0.900000 -4.736082
v 4.798902 0.933809 -4.736082
v 4.798902 0.944745 -4.663582
v 4.798902 0.949688 -4.663582
v 4.758902 2.070000 -4.648582
v 4.758902 0.963000 -4.648582
v 4.758902 0.963000 -4.583582
v 4.758902 2.070000 -4.583582
v 4.738902 2.050000 -4.565582
v 4.738902 2.050000 -4.583582
v 4.738902 0.975000 -4.583582
v 4.738902 0.975000 -4.565582
v 4.798902 0.900000 -4.736082
v 4.798902 0.900000 -4.565582
v 2.988902 0.900000 -4.565582
v 2.988902 0.900000 -4.736082
v 4.798902 0.933809 -4.736082
v 4.798902 0.900000 -4.736082
v 2.988902 0.900000 -4.736082
v 2.988902 0.933809 -4.736082
v 4.798902 0.944745 -4.663582
v 4.798902 0.933809 -4.736082
v 2.988902 0.933809 -4.736082
v 2.988902 0.944745 -4.663582
v 4.798902 0.949688 -4.663582
v 4.798902 0.944745 -4.663582
v 2.988902 0.944745 -4.663582
v 2.988902 0.949688 -4.663582
v 4.798902 0.951000 -4.648582
v 4.798902 0.949688 -4.663582
v 2.988902 0.949688 -4.663582
v 2.988902 0.951000 -4.648582
v 3.028902 0.963000 -4.583582
v 4.758902 0.963000 -4.583582
v 4.758902 0.963000 -4.648582
v 3.028902 0.963000 -4.648582
v 3.048902 0.975000 -4.565582
v 4.738902 0.975000 -4.565582
v 4.738902 0.975000 -4.583582
v 3.048902 0.975000 -4.583582
v 3.058902 0.993000 -4.612582
v 4.728902 0.993000 -4.612582
v 4.728902 2.040000 -4.612582
v 3.058902 2.040000 -4.612582
v 3.058902 0.993000 -4.636582
v 3.058902 2.040000 -4.636582
v 4.728902 2.040000 -4.636582
v 4.728902 0.993000 -4.636582
v 4.728902 0.993000 -4.612582
v 3.058902 0.993000 -4.612582
v 3.058902 0.993000 -4.636582
v 4.728902 0.993000 -4.636582
v 4.728902 2.040000 -4.612582
v 4.728902 0.993000 -4.612582
v 4.728902 0.993000 -4.636582
v 4.728902 2.040000 -4.636582
v 3.058902 2.040000 -4.612582
v 4.728902 2.040000 -4.612582
v 4.728902 2.040000 -4.636582
v 3.058902 2.040000 -4.636582
v 3.058902 0.993000 -4.612582
v 3.058902 2.040000 -4.612582
v 3.058902 2.040000 -4.636582
v 3.058902 0.993000 -4.636582
v 3.018902 2.080000 -4.648582
v 3.018902 2.080000 -4.654356
v 3.018902 0.953000 -4.654356
v 3.018902 0.953000 -4.648582
v 3.028902 2.070000 -4.583582
v 3.028902 2.070000 -4.648582
v 3.028902 0.963000 -4.648582
v 3.028902 0.963000 -4.583582
v 3.068902 2.030000 -4.598075
v 3.058753 2.040148 -4.583582
v 3.058753 0.992852 -4.583582
v 3.068902 1.003000 -4.598075
v 3.068902 2.030000 -4.612582
v 3.068902 2.030000 -4.598075
v 3.068902 1.003000 -4.598075
v 3.068902 1.003000 -4.612582
v 3.058902 2.040000 -4.636582
v 3.058902 2.040000 -4.612582
v 3.058902 0.993000 -4.612582
v 3.058902 0.993000 -4.636582
v 3.068902 2.030000 -4.654356
v 3.068902 2.030000 -4.636582
v 3.068902 1.003000 -4.636582
v 3.068902 1.003000 -4.654356
v 3.051456 2.047446 -4.660129
v 3.068902 2.030000 -4.654356
v 3.068902 1.003000 -4.654356
v 3.051456 0.985554 -4.660129
v 3.018902 2.080000 -4.654356
v 3.029686 2.069215 -4.660129
v 3.029686 0.963785 -4.660129
v 3.018902 0.953000 -4.654356
v 3.018902 0.953000 -4.648582
v 3.018902 0.953000 -4.654356
v 4.768902 0.953000 -4.654356
v 4.768902 0.953000 -4.648582
v 3.028902 0.963000 -4.583582
v 3.028902 0.963000 -4.648582
v 4.758902 0.963000 -4.648582
v 4.758902 0.963000 -4.583582
v 3.068902 1.003000 -4.598075
v 3.058753 0.992852 -4.583582
v 4.729050 0.992852 -4.583582
v 4.718902 1.003000 -4.598075
v 3.068902 1.003000 -4.612582
v 3.068902 1.003000 -4.598075
v 4.718902 1.003000 -4.598075
v 4.718902 1.003000 -4.612582
v 3.058902 0.993000 -4.636582
v 3.058902 0.993000 -4.612582
v 4.728902 0.993000 -4.612582
v 4.728902 0.993000 -4.636582
v 3.068902 1.003000 -4.654356
v 3.068902 1.003000 -4.636582
v 4.718902 1.003000 -4.636582
v 4.718902 1.003000 -4.654356
v 3.051456 0.985554 -4.660129
v 3.068902 1.003000 -4.654356
v 4.718902 1.003000 -4.654356
v 4.736347 0.985554 -4.660129
v 3.018902 0.953000 -4.654356
v 3.029686 0.963785 -4.660129
v 4.758117 0.963785 -4.660129
v 4.768902 0.953000 -4.654356
v 4.768902 0.953000 -4.648582
v 4.768902 0.953000 -4.654356
v 4.768902 2.080000 -4.654356
v 4.768902 2.080000 -4.648582
v 4.758902 0.963000 -4.583582
v 4.758902 0.963000 -4.648582
v 4.758902 2.070000 -4.648582
v 4.758902 2.070000 -4.583582
v 4.718902 1.003000 -4.598075
v 4.729050 0.992852 -4.583582
v 4.729050 2.040148 -4.583582
v 4.718902 2.030000 -4.598075
v 4.718902 1.003000 -4.612582
v 4.718902 1.003000 -4.598075
v 4.718902 2.030000 -4.598075
v 4.718902 2.030000 -4.612582
v 4.728902 0.993000 -4.636582
v 4.728902 0.993000 -4.612582
v 4.728902 2.040000 -4.612582
v 4.728902 2.040000 -4.636582
v 4.718902 1.003000 -4.654356
v 4.718902 1.003000 -4.636582
v 4.718902 2.030000 -4.636582
v 4.718902 2.030000 -4.654356
v 4.736347 0.985554 -4.660129
v 4.718902 1.003000 -4.654356
v 4.718902 2.030000 -4.654356
v 4.736347 2.047446 -4.660129
v 4.768902 0.953000 -4.654356
v 4.758117 0.963785 -4.660129
v 4.758117 2.069215 -4.660129
v 4.768902 2.080000 -4.654356
v 4.768902 2.080000 -4.648582
v 4.768902 2.080000 -4.654356
v 3.018902 2.080000 -4.654356
v 3.018902 2.080000 -4.648582
v 3.018902 0.953000 -4.648582
v 4.768902 0.953000 -4.648582
v 4.768902 2.080000 -4.648582
v 3.018902 2.080000 -4.648582
v 4.758902 2.070000 -4.583582
v 4.758902 2.070000 -4.648582
v 3.028902 2.070000 -4.648582
v 3.028902 2.070000 -4.583582
v 3.028902 0.963000 -4.583582
v 4.758902 0.963000 -4.583582
v 4.758902 2.070000 -4.583582
v 3.028902 2.070000 -4.583582
v 4.718902 2.030000 -4.598075
v 4.729050 2.040148 -4.583582
v 3.058753 2.040148 -4.583582
v 3.068902 2.030000 -4.598075
v 4.718902 2.030000 -4.612582
v 4.718902 2.030000 -4.598075
v 3.068902 2.030000 -4.598075
v 3.068902 2.030000 -4.612582
v 3.058902 2.040000 -4.612582
v 4.728902 2.040000 -4.612582
v 4.728902 0.993000 -4.612582
v 3.058902 0.993000 -4.612582
v 4.728902 2.040000 -4.636582
v 4.728902 2.040000 -4.612582
v 3.058902 2.040000 -4.612582
v 3.058902 2.040000 -4.636582
v 3.058902 0.993000 -4.636582
v 4.728902 0.993000 -4.636582
v 4.728902 2.040000 -4.636582
v 3.058902 2.040000 -4.636582
v 4.718902 2.030000 -4.654356
v 4.718902 2.030000 -4.636582
v 3.068902 2.030000 -4.636582
v 3.068902 2.030000 -4.654356
v 4.736347 2.047446 -4.660129
v 4.718902 2.030000 -4.654356
v 3.068902 2.030000 -4.654356
v 3.051456 2.047446 -4.660129
v 3.029686 2.069215 -4.660129
v 4.758117 2.069215 -4.660129
v 4.758117 0.963785 -4.660129
v 3.029686 0.963785 -4.660129
v 4.768902 2.080000 -4.654356
v 4.758117 2.069215 -4.660129
v 3.029686 2.069215 -4.660129
v 3.018902 2.080000 -4.654356
f 8 1 2
f 8 2 3
f 8 3 4
f 4 5 6
f 8 4 6
f 6 7 8
f 16 9 10
f 10 11 12
f 12 13 14
f 10 12 14
f 10 14 15
f 10 15 16
f 20 17 18
f 18 19 20
f 24 21 22
f 22 23 24
f 28 25 26
f 26 27 28
f 32 29 30
f 30 31 32
f 36 33 34
f 34 35 36
f 40 37 38
f 38 39 40
f 44 41 42
f 42 43 44
f 48 45 46
f 46 47 48
f 52 49 50
f 50 51 52
f 53 54 55
f 53 55 56
f 60 53 56
f 56 57 58
f 60 56 58
f 58 59 60
f 64 61 62
f 62 63 64
f 68 65 66
f 66 67 68
f 72 69 70
f 70 71 72
f 76 73 74
f 74 75 76
f 80 77 78
f 78 79 80
f 84 81 82
f 82 83 84
f 88 85 86
f 86 87 88
f 89 90 91
f 89 91 92
f 96 89 92
f 92 93 94
f 92 94 95
f 92 95 96
f 100 97 98
f 98 99 100
f 104 101 102
f 102 103 104
f 108 105 106
f 106 107 108
f 112 109 110
f 110 111 112
f 116 113 114
f 114 115 116
f 120 117 118
f 118 119 120
f 124 121 122
f 122 123 124
f 128 125 126
f 126 127 128
f 132 129 130
f 130 131 132
f 136 133 134
f 134 135 136
f 140 137 138
f 138 139 140
f 144 141 142
f 142 143 144
f 148 145 146
f 146 147 148
f 152 149 150
f 150 151 152
f 156 153 154
f 154 155 156
f 160 157 158
f 158 159 160
f 164 161 162
f 162 163 164
f 168 165 166
f 166 167 168
f 172 169 170
f 170 171 172
f 176 173 174
f 174 175 176
f 180 177 178
f 178 179 180
f 184 181 182
f 182 183 184
f 188 185 186
f 186 187 188
f 192 189 190
f 190 191 192
f 196 193 194
f 194 195 196
f 200 197 198
f 198 199 200
f 204 201 202
f 202 203 204
f 208 205 206
f 206 207 208
f 212 209 210
f 210 211 212
f 216 213 214
f 214 215 216
f 220 217 218
f 218 219 220
f 224 221 222
f 222 223 224
f 228 225 226
f 226 227 228
f 232 229 230
f 230 231 232
f 236 233 234
f 234 235 236
f 240 237 238
f 238 239 240
f 244 241 242
f 242 243 244
f 248 245 246
f 246 247 248
f 252 249 250
f 250 251 252
f 256 253 254
f 254 255 256
f 260 257 258
f 258 259 260
f 264 261 262
f 262 263 264
f 268 265 266
f 266 267 268
f 272 269 270
f 270 271 272
f 276 273 274
f 274 275 276
f 280 277 278
f 278 279 280
f 284 281 282
f 282 283 284
f 288 285 286
f 286 287 288
f 292 289 290
f 290 291 292
f 296 293 294
f 294 295 296
f 300 297 298
f 298 299 300
f 304 301 302
f 302 303 304

o Windows_Sgl_Plain_1810x1210mm_286188_3cUkl32yn9qRSPvBJVyWdx
# IfcWindow | layer Shared_Building
v -2.162348 0.900000 -4.383582
v -2.162348 0.900000 -4.408582
v -2.137348 0.900000 -4.408582
v -2.137348 0.900000 -4.565582
v -0.327348 0.900000 -4.565582
v -0.327348 0.900000 -4.408582
v -0.302348 0.900000 -4.408582
v -0.302348 0.900000 -4.383582
v -2.162348 0.925000 -4.383582
v -0.302348 0.925000 -4.383582
v -0.302348 0.925000 -4.408582
v -0.327348 0.925000 -4.408582
v -0.327348 0.925000 -4.565582
v -2.137348 0.925000 -4.565582
v -2.137348 0.925000 -4.408582
v -2.162348 0.925000 -4.408582
v -2.162348 0.900000 -4.408582
v -2.162348 0.900000 -4.383582
v -2.162348 0.925000 -4.383582
v -2.162348 0.925000 -4.408582
v -2.137348 0.900000 -4.408582
v -2.162348 0.900000 -4.408582
v -2.162348 0.925000 -4.408582
v -2.137348 0.925000 -4.408582
v -2.137348 0.900000 -4.565582
v -2.137348 0.900000 -4.408582
v -2.137348 0.925000 -4.408582
v -2.137348 0.925000 -4.565582
v -0.327348 0.900000 -4.565582
v -2.137348 0.900000 -4.565582
v -2.137348 0.925000 -4.565582
v -0.327348 0.925000 -4.565582
v -0.327348 0.900000 -4.408582
v -0.327348 0.900000 -4.565582
v -0.327348 0.925000 -4.565582
v -0.327348 0.925000 -4.408582
v -0.302348 0.900000 -4.408582
v -0.327348 0.900000 -4.408582
v -0.327348 0.925000 -4.408582
v -0.302348 0.925000 -4.408582
v -0.302348 0.900000 -4.383582
v -0.302348 0.900000 -4.408582
v -0.302348 0.925000 -4.408582
v -0.302348 0.925000 -4.383582
v -2.162348 0.900000 -4.383582
v -0.302348 0.900000 -4.383582
v -0.302348 0.925000 -4.383582
v -2.162348 0.925000 -4.383582
v -2.137348 0.900000 -4.565582
v -0.327348 0.900000 -4.565582
v -0.327348 2.110000 -4.565582
v -2.137348 2.110000 -4.565582
v -2.137348 0.900000 -4.565582
v -2.137348 2.110000 -4.565582
v -2.137348 2.110000 -4.648582
v -2.137348 0.951000 -4.648582
v -2.137348 0.949688 -4.663582
v -2.137348 0.944745 -4.663582
v -2.137348 0.933809 -4.736082
v -2.137348 0.900000 -4.736082
v -2.137348 0.951000 -4.648582
v -2.137348 2.110000 -4.648582
v -0.327348 2.110000 -4.648582
v -0.327348 0.951000 -4.648582
v -2.097348 0.963000 -4.648582
v -2.097348 2.070000 -4.648582
v -2.097348 2.070000 -4.583582
v -2.097348 0.963000 -4.583582
v -2.097348 2.070000 -4.583582
v -0.367348 2.070000 -4.583582
v -0.367348 0.963000 -4.583582
v -2.097348 0.963000 -4.583582
v -2.077348 2.050000 -4.583582
v -2.077348 2.050000 -4.565582
v -2.077348 0.975000 -4.565582
v -2.077348 0.975000 -4.583582
v -2.137348 2.110000 -4.565582
v -0.327348 2.110000 -4.565582
v -0.327348 2.110000 -4.648582
v -2.137348 2.110000 -4.648582
v -2.097348 2.070000 -4.648582
v -0.367348 2.070000 -4.648582
v -0.367348 2.070000 -4.583582
v -2.097348 2.070000 -4.583582
v -0.387348 2.050000 -4.565582
v -2.077348 2.050000 -4.565582
v -2.077348 2.050000 -4.583582
v -0.387348 2.050000 -4.583582
v -0.327348 0.951000 -4.648582
v -0.327348 2.110000 -4.648582
v -0.327348 2.110000 -4.565582
v -0.327348 0.900000 -4.565582
v -0.327348 0.900000 -4.736082
v -0.327348 0.933809 -4.736082
v -0.327348 0.944745 -4.663582
v -0.327348 0.949688 -4.663582
v -0.367348 2.070000 -4.648582
v -0.367348 0.963000 -4.648582
v -0.367348 0.963000 -4.583582
v -0.367348 2.070000 -4.583582
v -0.387348 2.050000 -4.565582
v -0.387348 2.050000 -4.583582
v -0.387348 0.975000 -4.583582
v -0.387348 0.975000 -4.565582
v -0.327348 0.900000 -4.736082
v -0.327348 0.900000 -4.565582
v -2.137348 0.900000 -4.565582
v -2.137348 0.900000 -4.736082
v -0.327348 0.933809 -4.736082
v -0.327348 0.900000 -4.736082
v -2.137348 0.900000 -4.736082
v -2.137348 0.933809 -4.736082
v -0.327348 0.944745 -4.663582
v -0.327348 0.933809 -4.736082
v -2.137348 0.933809 -4.736082
v -2.137348 0.944745 -4.663582
v -0.327348 0.949688 -4.663582
v -0.327348 0.944745 -4.663582
v -2.137348 0.944745 -4.663582
v -2.137348 0.949688 -4.663582
v -0.327348 0.951000 -4.648582
v -0.327348 0.949688 -4.663582
v -2.137348 0.949688 -4.663582
v -2.137348 0.951000 -4.648582
v -2.097348 0.963000 -4.583582
v -0.367348 0.963000 -4.583582
v -0.367348 0.963000 -4.648582
v -2.097348 0.963000 -4.648582
v -2.077348 0.975000 -4.565582
v -0.387348 0.975000 -4.565582
v -0.387348 0.975000 -4.583582
v -2.077348 0.975000 -4.583582
v -2.067348 0.993000 -4.612582
v -0.397348 0.993000 -4.612582
v -0.397348 2.040000 -4.612582
v -2.067348 2.040000 -4.612582
v -2.067348 0.993000 -4.636582
v -2.067348 2.040000 -4.636582
v -0.397348 2.040000 -4.636582
v -0.397348 0.993000 -4.636582
v -0.397348 0.993000 -4.612582
v -2.067348 0.993000 -4.612582
v -2.067348 0.993000 -4.636582
v -0.397348 0.993000 -4.636582
v -0.397348 2.040000 -4.612582
v -0.397348 0.993000 -4.612582
v -0.397348 0.993000 -4.636582
v -0.397348 2.040000 -4.636582
v -2.067348 2.040000 -4.612582
v -0.397348 2.040000 -4.612582
v -0.397348 2.040000 -4.636582
v -2.067348 2.040000 -4.636582
v -2.067348 0.993000 -4.612582
v -2.067348 2.040000 -4.612582
v -2.067348 2.040000 -4.636582
v -2.067348 0.993000 -4.636582
v -2.107348 2.080000 -4.648582
v -2.107348 2.080000 -4.654356
v -2.107348 0.953000 -4.654356
v -2.107348 0.953000 -4.648582
v -2.097348 2.070000 -4.583582
v -2.097348 2.070000 -4.648582
v -2.097348 0.963000 -4.648582
v -2.097348 0.963000 -4.583582
v -2.057348 2.030000 -4.598075
v -2.067497 2.040148 -4.583582
v -2.067497 0.992852 -4.583582
v -2.057348 1.003000 -4.598075
v -2.057348 2.030000 -4.612582
v -2.057348 2.030000 -4.598075
v -2.057348 1.003000 -4.598075
v -2.057348 1.003000 -4.612582
v -2.067348 2.040000 -4.636582
v -2.067348 2.040000 -4.612582
v -2.067348 0.993000 -4.612582
v -2.067348 0.993000 -4.636582
v -2.057348 2.030000 -4.654356
v -2.057348 2.030000 -4.636582
v -2.057348 1.003000 -4.636582
v -2.057348 1.003000 -4.654356
v -2.074794 2.047446 -4.660129
v -2.057348 2.030000 -4.654356
v -2.057348 1.003000 -4.654356
v -2.074794 0.985554 -4.660129
v -2.107348 2.080000 -4.654356
v -2.096564 2.069215 -4.660129
v -2.096564 0.963785 -4.660129
v -2.107348 0.953000 -4.654356
v -2.107348 0.953000 -4.648582
v -2.107348 0.953000 -4.654356
v -0.357348 0.953000 -4.654356
v -0.357348 0.953000 -4.648582
v -2.097348 0.963000 -4.583582
v -2.097348 0.963000 -4.648582
v -0.367348 0.963000 -4.648582
v -0.367348 0.963000 -4.583582
v -2.057348 1.003000 -4.598075
v -2.067497 0.992852 -4.583582
v -0.397200 0.992852 -4.583582
v -0.407348 1.003000 -4.598075
v -2.057348 1.003000 -4.612582
v -2.057348 1.003000 -4.598075
v -0.407348 1.003000 -4.598075
v -0.407348 1.003000 -4.612582
v -2.067348 0.993000 -4.636582
v -2.067348 0.993000 -4.612582
v -0.397348 0.993000 -4.612582
v -0.397348 0.993000 -4.636582
v -2.057348 1.003000 -4.654356
v -2.057348 1.003000 -4.636582
v -0.407348 1.003000 -4.636582
v -0.407348 1.003000 -4.654356
v -2.074794 0.985554 -4.660129
v -2.057348 1.003000 -4.654356
v -0.407348 1.003000 -4.654356
v -0.389903 0.985554 -4.660129
v -2.107348 0.953000 -4.654356
v -2.096564 0.963785 -4.660129
v -0.368133 0.963785 -4.660129
v -0.357348 0.953000 -4.654356
v -0.357348 0.953000 -4.648582
v -0.357348 0.953000 -4.654356
v -0.357348 2.080000 -4.654356
v -0.357348 2.080000 -4.648582
v -0.367348 0.963000 -4.583582
v -0.367348 0.963000 -4.648582
v -0.367348 2.070000 -4.648582
v -0.367348 2.070000 -4.583582
v -0.407348 1.003000 -4.598075
v -0.397200 0.992852 -4.583582
v -0.397200 2.040148 -4.583582
v -0.407348 2.030000 -4.598075
v -0.407348 1.003000 -4.612582
v -0.407348 1.003000 -4.598075
v -0.407348 2.030000 -4.598075
v -0.407348 2.030000 -4.612582
v -0.397348 0.993000 -4.636582
v -0.397348 0.993000 -4.612582
v -0.397348 2.040000 -4.612582
v -0.397348 2.040000 -4.636582
v -0.407348 1.003000 -4.654356
v -0.407348 1.003000 -4.636582
v -0.407348 2.030000 -4.636582
v -0.407348 2.030000 -4.654356
v -0.389903 0.985554 -4.660129
v -0.407348 1.003000 -4.654356
v -0.407348 2.030000 -4.654356
v -0.389903 2.047446 -4.660129
v -0.357348 0.953000 -4.654356
v -0.368133 0.963785 -4.660129
v -0.368133 2.069215 -4.660129
v -0.357348 2.080000 -4.654356
v -0.357348 2.080000 -4.648582
v -0.357348 2.080000 -4.654356
v -2.107348 2.080000 -4.654356
v -2.107348 2.080000 -4.648582
v -2.107348 0.953000 -4.648582
v -0.357348 0.953000 -4.648582
v -0.357348 2.080000 -4.648582
v -2.107348 2.080000 -4.648582
v -0.367348 2.070000 -4.583582
v -0.367348 2.070000 -4.648582
v -2.097348 2.070000 -4.648582
v -2.097348 2.070000 -4.583582
v -2.097348 0.963000 -4.583582
v -0.367348 0.963000 -4.583582
v -0.367348 2.070000 -4.583582
v -2.097348 2.070000 -4.583582
v -0.407348 2.030000 -4.598075
v -0.397200 2.040148 -4.583582
v -2.067497 2.040148 -4.583582
v -2.057348 2.030000 -4.598075
v -0.407348 2.030000 -4.612582
v -0.407348 2.030000 -4.598075
v -2.057348 2.030000 -4.598075
v -2.057348 2.030000 -4.612582
v -2.067348 2.040000 -4.612582
v -0.397348 2.040000 -4.612582
v -0.397348 0.993000 -4.612582
v -2.067348 0.993000 -4.612582
v -0.397348 2.040000 -4.636582
v -0.397348 2.040000 -4.612582
v -2.067348 2.040000 -4.612582
v -2.067348 2.040000 -4.636582
v -2.067348 0.993000 -4.636582
v -0.397348 0.993000 -4.636582
v -0.397348 2.040000 -4.636582
v -2.067348 2.040000 -4.636582
v -0.407348 2.030000 -4.654356
v -0.407348 2.030000 -4.636582
v -2.057348 2.030000 -4.636582
v -2.057348 2.030000 -4.654356
v -0.389903 2.047446 -4.660129
v -0.407348 2.030000 -4.654356
v -2.057348 2.030000 -4.654356
v -2.074794 2.047446 -4.660129
v -2.096564 2.069215 -4.660129
v -0.368133 2.069215 -4.660129
v -0.368133 0.963785 -4.660129
v -2.096564 0.963785 -4.660129
v -0.357348 2.080000 -4.654356
v -0.368133 2.069215 -4.660129
v -2.096564 2.069215 -4.660129
v -2.107348 2.080000 -4.654356
f 312 305 306
f 312 306 307
f 312 307 308
f 308 309 310
f 312 308 310
f 310 311 312
f 320 313 314
f 314 315 316
f 316 317 318
f 314 316 318
f 314 318 319
f 314 319 320
f 324 321 322
f 322 323 324
f 328 325 326
f 326 327 328
f 332 329 330
f 330 331 332
f 336 333 334
f 334 335 336
f 340 337 338
f 338 339 340
f 344 341 342
f 342 343 344
f 348 345 346
f 346 347 348
f 352 349 350
f 350 351 352
f 356 353 354
f 354 355 356
f 357 358 359
f 357 359 360
f 364 357 360
f 360 361 362
f 364 360 362
f 362 363 364
f 368 365 366
f 366 367 368
f 372 369 370
f 370 371 372
f 376 373 374
f 374 375 376
f 380 377 378
f 378 379 380
f 384 381 382
f 382 383 384
f 388 385 386
f 386 387 388
f 392 389 390
f 390 391 392
f 393 394 395
f 393 395 396
f 400 393 396
f 396 397 398
f 396 398 399
f 396 399 400
f 404 401 402
f 402 403 404
f 408 405 406
f 406 407 408
f 412 409 410
f 410 411 412
f 416 413 414
f 414 415 416
f 420 417 418
f 418 419 420
f 424 421 422
f 422 423 424
f 428 425 426
f 426 427 428
f 432 429 430
f 430 431 432
f 436 433 434
f 434 435 436
f 440 437 438
f 438 439 440
f 444 441 442
f 442 443 444
f 448 445 446
f 446 447 448
f 452 449 450
f 450 451 452
f 456 453 454
f 454 455 456
f 460 457 458
f 458 459 460
f 464 461 462
f 462 463 464
f 468 465 466
f 466 467 468
f 472 469 470
f 470 471 472
f 476 473 474
f 474 475 476
f 480 477 478
f 478 479 480
f 484 481 482
f 482 483 484
f 488 485 486
f 486 487 488
f 492 489 490
f 490 491 492
f 496 493 494
f 494 495 496
f 500 497 498
f 498 499 500
f 504 501 502
f 502 503 504
f 508 505 506
f 506 507 508
f 512 509 510
f 510 511 512
f 516 513 514
f 514 515 516
f 520 517 518
f 518 519 520
f 524 521 522
f 522 523 524
f 528 525 526
f 526 527 528
f 532 529 530
f 530 531 532
f 536 533 534
f 534 535 536
f 540 537 538
f 538 539 540
f 544 541 542
f 542 543 544
f 548 545 546
f 546 547 548
f 552 549 550
f 550 551 552
f 556 553 554
f 554 555 556
f 560 557 558
f 558 559 560
f 564 561 562
f 562 563 564
f 568 565 566
f 566 567 568
f 572 569 570
f 570 571 572
f 576 573 574
f 574 575 576
f 580 577 578
f 578 579 580
f 584 581 582
f 582 583 584
f 588 585 586
f 586 587 588
f 592 589 590
f 590 591 592
f 596 593 594
f 594 595 596
f 600 597 598
f 598 599 600
f 604 601 602
f 602 603 604
f 608 605 606
f 606 607 608

o Windows_Sgl_Plain_1810x1210mm_286238_3cUkl32yn9qRSPvBJVyWe9
# IfcWindow | layer Shared_Building
v -6.159848 0.900000 -4.383582
v -6.159848 0.900000 -4.408582
v -6.134848 0.900000 -4.408582
v -6.134848 0.900000 -4.565582
v -4.324848 0.900000 -4.565582
v -4.324848 0.900000 -4.408582
v -4.299848 0.900000 -4.408582
v -4.299848 0.900000 -4.383582
v -6.159848 0.925000 -4.383582
v -4.299848 0.925000 -4.383582
v -4.299848 0.925000 -4.408582
v -4.324848 0.925000 -4.408582
v -4.324848 0.925000 -4.565582
v -6.134848 0.925000 -4.565582
v -6.134848 0.925000 -4.408582
v -6.159848 0.925000 -4.408582
v -6.159848 0.900000 -4.408582
v -6.159848 0.900000 -4.383582
v -6.159848 0.925000 -4.383582
v -6.159848 0.925000 -4.408582
v -6.134848 0.900000 -4.408582
v -6.159848 0.900000 -4.408582
v -6.159848 0.925000 -4.408582
v -6.134848 0.925000 -4.408582
v -6.134848 0.900000 -4.565582
v -6.134848 0.900000 -4.408582
v -6.134848 0.925000 -4.408582
v -6.134848 0.925000 -4.565582
v -4.324848 0.900000 -4.565582
v -6.134848 0.900000 -4.565582
v -6.134848 0.925000 -4.565582
v -4.324848 0.925000 -4.565582
v -4.324848 0.900000 -4.408582
v -4.324848 0.900000 -4.565582
v -4.324848 0.925000 -4.565582
v -4.324848 0.925000 -4.408582
v -4.299848 0.900000 -4.408582
v -4.324848 0.900000 -4.408582
v -4.324848 0.925000 -4.408582
v -4.299848 0.925000 -4.408582
v -4.299848 0.900000 -4.383582
v -4.299848 0.900000 -4.408582
v -4.299848 0.925000 -4.408582
v -4.299848 0.925000 -4.383582
v -6.159848 0.900000 -4.383582
v -4.299848 0.900000 -4.383582
v -4.299848 0.925000 -4.383582
v -6.159848 0.925000 -4.383582
v -6.134848 0.900000 -4.565582
v -4.324848 0.900000 -4.565582
v -4.324848 2.110000 -4.565582
v -6.134848 2.110000 -4.565582
v -6.134848 0.900000 -4.565582
v -6.134848 2.110000 -4.565582
v -6.134848 2.110000 -4.648582
v -6.134848 0.951000 -4.648582
v -6.134848 0.949688 -4.663582
v -6.134848 0.944745 -4.663582
v -6.134848 0.933809 -4.736082
v -6.134848 0.900000 -4.736082
v -6.134848 0.951000 -4.648582
v -6.134848 2.110000 -4.648582
v -4.324848 2.110000 -4.648582
v -4.324848 0.951000 -4.648582
v -6.094848 0.963000 -4.648582
v -6.094848 2.070000 -4.648582
v -6.094848 2.070000 -4.583582
v -6.094848 0.963000 -4.583582
v -6.094848 2.070000 -4.583582
v -4.364848 2.070000 -4.583582
v -4.364848 0.963000 -4.583582
v -6.094848 0.963000 -4.583582
v -6.074848 2.050000 -4.583582
v -6.074848 2.050000 -4.565582
v -6.074848 0.975000 -4.565582
v -6.074848 0.975000 -4.583582
v -6.134848 2.110000 -4.565582
v -4.324848 2.110000 -4.565582
v -4.324848 2.110000 -4.648582
v -6.134848 2.110000 -4.648582
v -6.094848 2.070000 -4.648582
v -4.364848 2.070000 -4.648582
v -4.364848 2.070000 -4.583582
v -6.094848 2.070000 -4.583582
v -4.384848 2.050000 -4.565582
v -6.074848 2.050000 -4.565582
v -6.074848 2.050000 -4.583582
v -4.384848 2.050000 -4.583582
v -4.324848 0.951000 -4.648582
v -4.324848 2.110000 -4.648582
v -4.324848 2.110000 -4.565582
v -4.324848 0.900000 -4.565582
v -4.324848 0.900000 -4.736082
v -4.324848 0.933809 -4.736082
v -4.324848 0.944745 -4.663582
v -4.324848 0.949688 -4.663582
v -4.364848 2.070000 -4.648582
v -4.364848 0.963000 -4.648582
v -4.364848 0.963000 -4.583582
v -4.364848 2.070000 -4.583582
v -4.384848 2.050000 -4.565582
v -4.384848 2.050000 -4.583582
v -4.384848 0.975000 -4.583582
v -4.384848 0.975000 -4.565582
v -4.324848 0.900000 -4.736082
v -4.324848 0.900000 -4.565582
v -6.134848 0.900000 -4.565582
v -6.134848 0.900000 -4.736082
v -4.324848 0.933809 -4.736082
v -4.324848 0.900000 -4.736082
v -6.134848 0.900000 -4.736082
v -6.134848 0.933809 -4.736082
v -4.324848 0.944745 -4.663582
v -4.324848 0.933809 -4.736082
v -6.134848 0.933809 -4.736082
v -6.134848 0.944745 -4.663582
v -4.324848 0.949688 -4.663582
v -4.324848 0.944745 -4.663582
v -6.134848 0.944745 -4.663582
v -6.134848 0.949688 -4.663582
v -4.324848 0.951000 -4.648582
v -4.324848 0.949688 -4.663582
v -6.134848 0.949688 -4.663582
v -6.134848 0.951000 -4.648582
v -6.094848 0.963000 -4.583582
v -4.364848 0.963000 -4.583582
v -4.364848 0.963000 -4.648582
v -6.094848 0.963000 -4.648582
v -6.074848 0.975000 -4.565582
v -4.384848 0.975000 -4.565582
v -4.384848 0.975000 -4.583582
v -6.074848 0.975000 -4.583582
v -6.064848 0.993000 -4.612582
v -4.394848 0.993000 -4.612582
v -4.394848 2.040000 -4.612582
v -6.064848 2.040000 -4.612582
v -6.064848 0.993000 -4.636582
v -6.064848 2.040000 -4.636582
v -4.394848 2.040000 -4.636582
v -4.394848 0.993000 -4.636582
v -4.394848 0.993000 -4.612582
v -6.064848 0.993000 -4.612582
v -6.064848 0.993000 -4.636582
v -4.394848 0.993000 -4.636582
v -4.394848 2.040000 -4.612582
v -4.394848 0.993000 -4.612582
v -4.394848 0.993000 -4.636582
v -4.394848 2.040000 -4.636582
v -6.064848 2.040000 -4.612582
v -4.394848 2.040000 -4.612582
v -4.394848 2.040000 -4.636582
v -6.064848 2.040000 -4.636582
v -6.064848 0.993000 -4.612582
v -6.064848 2.040000 -4.612582
v -6.064848 2.040000 -4.636582
v -6.064848 0.993000 -4.636582
v -6.104848 2.080000 -4.648582
v -6.104848 2.080000 -4.654356
v -6.104848 0.953000 -4.654356
v -6.104848 0.953000 -4.648582
v -6.094848 2.070000 -4.583582
v -6.094848 2.070000 -4.648582
v -6.094848 0.963000 -4.648582
v -6.094848 0.963000 -4.583582
v -6.054848 2.030000 -4.598075
v -6.064997 2.040148 -4.583582
v -6.064997 0.992852 -4.583582
v -6.054848 1.003000 -4.598075
v -6.054848 2.030000 -4.612582
v -6.054848 2.030000 -4.598075
v -6.054848 1.003000 -4.598075
v -6.054848 1.003000 -4.612582
v -6.064848 2.040000 -4.636582
v -6.064848 2.040000 -4.612582
v -6.064848 0.993000 -4.612582
v -6.064848 0.993000 -4.636582
v -6.054848 2.030000 -4.654356
v -6.054848 2.030000 -4.636582
v -6.054848 1.003000 -4.636582
v -6.054848 1.003000 -4.654356
v -6.072294 2.047446 -4.660129
v -6.054848 2.030000 -4.654356
v -6.054848 1.003000 -4.654356
v -6.072294 0.985554 -4.660129
v -6.104848 2.080000 -4.654356
v -6.094064 2.069215 -4.660129
v -6.094064 0.963785 -4.660129
v -6.104848 0.953000 -4.654356
v -6.104848 0.953000 -4.648582
v -6.104848 0.953000 -4.654356
v -4.354848 0.953000 -4.654356
v -4.354848 0.953000 -4.648582
v -6.094848 0.963000 -4.583582
v -6.094848 0.963000 -4.648582
v -4.364848 0.963000 -4.648582
v -4.364848 0.963000 -4.583582
v -6.054848 1.003000 -4.598075
v -6.064997 0.992852 -4.583582
v -4.394700 0.992852 -4.583582
v -4.404848 1.003000 -4.598075
v -6.054848 1.003000 -4.612582
v -6.054848 1.003000 -4.598075
v -4.404848 1.003000 -4.598075
v -4.404848 1.003000 -4.612582
v -6.064848 0.993000 -4.636582
v -6.064848 0.993000 -4.612582
v -4.394848 0.993000 -4.612582
v -4.394848 0.993000 -4.636582
v -6.054848 1.003000 -4.654356
v -6.054848 1.003000 -4.636582
v -4.404848 1.003000 -4.636582
v -4.404848 1.003000 -4.654356
v -6.072294 0.985554 -4.660129
v -6.054848 1.003000 -4.654356
v -4.404848 1.003000 -4.654356
v -4.387403 0.985554 -4.660129
v -6.104848 0.953000 -4.654356
v -6.094064 0.963785 -4.660129
v -4.365633 0.963785 -4.660129
v -4.354848 0.953000 -4.654356
v -4.354848 0.953000 -4.648582
v -4.354848 0.953000 -4.654356
v -4.354848 2.080000 -4.654356
v -4.354848 2.080000 -4.648582
v -4.364848 0.963000 -4.583582
v -4.364848 0.963000 -4.648582
v -4.364848 2.070000 -4.648582
v -4.364848 2.070000 -4.583582
v -4.404848 1.003000 -4.598075
v -4.394700 0.992852 -4.583582
v -4.394700 2.040148 -4.583582
v -4.404848 2.030000 -4.598075
v -4.404848 1.003000 -4.612582
v -4.404848 1.003000 -4.598075
v -4.404848 2.030000 -4.598075
v -4.404848 2.030000 -4.612582
v -4.394848 0.993000 -4.636582
v -4.394848 0.993000 -4.612582
v -4.394848 2.040000 -4.612582
v -4.394848 2.040000 -4.636582
v -4.404848 1.003000 -4.654356
v -4.404848 1.003000 -4.636582
v -4.404848 2.030000 -4.636582
v -4.404848 2.030000 -4.654356
v -4.387403 0.985554 -4.660129
v -4.404848 1.003000 -4.654356
v -4.404848 2.030000 -4.654356
v -4.387403 2.047446 -4.660129
v -4.354848 0.953000 -4.654356
v -4.365633 0.963785 -4.660129
v -4.365633 2.069215 -4.660129
v -4.354848 2.080000 -4.654356
v -4.354848 2.080000 -4.648582
v -4.354848 2.080000 -4.654356
v -6.104848 2.080000 -4.654356
v -6.104848 2.080000 -4.648582
v -6.104848 0.953000 -4.648582
v -4.354848 0.953000 -4.648582
v -4.354848 2.080000 -4.648582
v -6.104848 2.080000 -4.648582
v -4.364848 2.070000 -4.583582
v -4.364848 2.070000 -4.648582
v -6.094848 2.070000 -4.648582
v -6.094848 2.070000 -4.583582
v -6.094848 0.963000 -4.583582
v -4.364848 0.963000 -4.583582
v -4.364848 2.070000 -4.583582
v -6.094848 2.070000 -4.583582
v -4.404848 2.030000 -4.598075
v -4.394700 2.040148 -4.583582
v -6.064997 2.040148 -4.583582
v -6.054848 2.030000 -4.598075
v -4.404848 2.030000 -4.612582
v -4.404848 2.030000 -4.598075
v -6.054848 2.030000 -4.598075
v -6.054848 2.030000 -4.612582
v -6.064848 2.040000 -4.612582
v -4.394848 2.040000 -4.612582
v -4.394848 0.993000 -4.612582
v -6.064848 0.993000 -4.612582
v -4.394848 2.040000 -4.636582
v -4.394848 2.040000 -4.612582
v -6.064848 2.040000 -4.612582
v -6.064848 2.040000 -4.636582
v -6.064848 0.993000 -4.636582
v -4.394848 0.993000 -4.636582
v -4.394848 2.040000 -4.636582
v -6.064848 2.040000 -4.636582
v -4.404848 2.030000 -4.654356
v -4.404848 2.030000 -4.636582
v -6.054848 2.030000 -4.636582
v -6.054848 2.030000 -4.654356
v -4.387403 2.047446 -4.660129
v -4.404848 2.030000 -4.654356
v -6.054848 2.030000 -4.654356
v -6.072294 2.047446 -4.660129
v -6.094064 2.069215 -4.660129
v -4.365633 2.069215 -4.660129
v -4.365633 0.963785 -4.660129
v -6.094064 0.963785 -4.660129
v -4.354848 2.080000 -4.654356
v -4.365633 2.069215 -4.660129
v -6.094064 2.069215 -4.660129
v -6.104848 2.080000 -4.654356
f 616 609 610
f 616 610 611
f 616 611 612
f 612 613 614
f 616 612 614
f 614 615 616
f 624 617 618
f 618 619 620
f 620 621 622
f 618 620 622
f 618 622 623
f 618 623 624
f 628 625 626
f 626 627 628
f 632 629 630
f 630 631 632
f 636 633 634
f 634 635 636
f 640 637 638
f 638 639 640
f 644 641 642
f 642 643 644
f 648 645 646
f 646 647 648
f 652 649 650
f 650 651 652
f 656 653 654
f 654 655 656
f 660 657 658
f 658 659 660
f 661 662 663
f 661 663 664
f 668 661 664
f 664 665 666
f 668 664 666
f 666 667 668
f 672 669 670
f 670 671 672
f 676 673 674
f 674 675 676
f 680 677 678
f 678 679 680
f 684 681 682
f 682 683 684
f 688 685 686
f 686 687 688
f 692 689 690
f 690 691 692
f 696 693 694
f 694 695 696
f 697 698 699
f 697 699 700
f 704 697 700
f 700 701 702
f 700 702 703
f 700 703 704
f 708 705 706
f 706 707 708
f 712 709 710
f 710 711 712
f 716 713 714
f 714 715 716
f 720 717 718
f 718 719 720
f 724 721 722
f 722 723 724
f 728 725 726
f 726 727 728
f 732 729 730
f 730 731 732
f 736 733 734
f 734 735 736
f 740 737 738
f 738 739 740
f 744 741 742
f 742 743 744
f 748 745 746
f 746 747 748
f 752 749 750
f 750 751 752
f 756 753 754
f 754 755 756
f 760 757 758
f 758 759 760
f 764 761 762
f 762 763 764
f 768 765 766
f 766 767 768
f 772 769 770
f 770 771 772
f 776 773 774
f 774 775 776
f 780 777 778
f 778 779 780
f 784 781 782
f 782 783 784
f 788 785 786
f 786 787 788
f 792 789 790
f 790 791 792
f 796 793 794
f 794 795 796
f 800 797 798
f 798 799 800
f 804 801 802
f 802 803 804
f 808 805 806
f 806 807 808
f 812 809 810
f 810 811 812
f 816 813 814
f 814 815 816
f 820 817 818
f 818 819 820
f 824 821 822
f 822 823 824
f 828 825 826
f 826 827 828
f 832 829 830
f 830 831 832
f 836 833 834
f 834 835 836
f 840 837 838
f 838 839 840
f 844 841 842
f 842 843 844
f 848 845 846
f 846 847 848
f 852 849 850
f 850 851 852
f 856 853 854
f 854 855 856
f 860 857 858
f 858 859 860
f 864 861 862
f 862 863 864
f 868 865 866
f 866 867 868
f 872 869 870
f 870 871 872
f 876 873 874
f 874 875 876
f 880 877 878
f 878 879 880
f 884 881 882
f 882 883 884
f 888 885 886
f 886 887 888
f 892 889 890
f 890 891 892
f 896 893 894
f 894 895 896
f 900 897 898
f 898 899 900
f 904 901 902
f 902 903 904
f 908 905 906
f 906 907 908
f 912 909 910
f 910 911 912

o Windows_Sgl_Plain_1810x1210mm_287567_3cUkl32yn9qRSPvBJVyZTO
# IfcWindow | layer Shared_Building
v 0.298902 0.900000 1.076418
v 0.298902 0.900000 1.101418
v 0.273902 0.900000 1.101418
v 0.273902 0.900000 1.258418
v -1.536098 0.900000 1.258418
v -1.536098 0.900000 1.101418
v -1.561098 0.900000 1.101418
v -1.561098 0.900000 1.076418
v 0.298902 0.925000 1.076418
v -1.561098 0.925000 1.076418
v -1.561098 0.925000 1.101418
v -1.536098 0.925000 1.101418
v -1.536098 0.925000 1.258418
v 0.273902 0.925000 1.258418
v 0.273902 0.925000 1.101418
v 0.298902 0.925000 1.101418
v 0.298902 0.900000 1.101418
v 0.298902 0.900000 1.076418
v 0.298902 0.925000 1.076418
v 0.298902 0.925000 1.101418
v 0.273902 0.900000 1.101418
v 0.298902 0.900000 1.101418
v 0.298902 0.925000 1.101418
v 0.273902 0.925000 1.101418
v 0.273902 0.900000 1.258418
v 0.273902 0.900000 1.101418
v 0.273902 0.925000 1.101418
v 0.273902 0.925000 1.258418
v -1.536098 0.900000 1.258418
v 0.273902 0.900000 1.258418
v 0.273902 0.925000 1.258418
v -1.536098 0.925000 1.258418
v -1.536098 0.900000 1.101418
v -1.536098 0.900000 1.258418
v -1.536098 0.925000 1.258418
v -1.536098 0.925000 1.101418
v -1.561098 0.900000 1.101418
v -1.536098 0.900000 1.101418
v -1.536098 0.925000 1.101418
v -1.561098 0.925000 1.101418
v -1.561098 0.900000 1.076418
v -1.561098 0.900000 1.101418
v -1.561098 0.925000 1.101418
v -1.561098 0.925000 1.076418
v 0.298902 0.900000 1.076418
v -1.561098 0.900000 1.076418
v -1.561098 0.925000 1.076418
v 0.298902 0.925000 1.076418
v 0.273902 0.900000 1.258418
v -1.536098 0.900000 1.258418
v -1.536098 2.110000 1.258418
v 0.273902 2.110000 1.258418
v 0.273902 0.900000 1.258418
v 0.273902 2.110000 1.258418
v 0.273902 2.110000 1.341418
v 0.273902 0.951000 1.341418
v 0.273902 0.949688 1.356418
v 0.273902 0.944745 1.356418
v 0.273902 0.933809 1.428918
v 0.273902 0.900000 1.428918
v 0.273902 0.951000 1.341418
v 0.273902 2.110000 1.341418
v -1.536098 2.110000 1.341418
v -1.536098 0.951000 1.341418
v 0.233902 0.963000 1.341418
v 0.233902 2.070000 1.341418
v 0.233902 2.070000 1.276418
v 0.233902 0.963000 1.276418
v 0.233902 2.070000 1.276418
v -1.496098 2.070000 1.276418
v -1.496098 0.963000 1.276418
v 0.233902 0.963000 1.276418
v 0.213902 2.050000 1.276418
v 0.213902 2.050000 1.258418
v 0.213902 0.975000 1.258418
v 0.213902 0.975000 1.276418
v 0.273902 2.110000 1.258418
v -1.536098 2.110000 1.258418
v -1.536098 2.110000 1.341418
v 0.273902 2.110000 1.341418
v 0.233902 2.070000 1.341418
v -1.496098 2.070000 1.341418
v -1.496098 2.070000 1.276418
v 0.233902 2.070000 1.276418
v -1.476098 2.050000 1.258418
v 0.213902 2.050000 1.258418
v 0.213902 2.050000 1.276418
v -1.476098 2.050000 1.276418
v -1.536098 0.951000 1.341418
v -1.536098 2.110000 1.341418
v -1.536098 2.110000 1.258418
v -1.536098 0.900000 1.258418
v -1.536098 0.900000 1.428918
v -1.536098 0.933809 1.428918
v -1.536098 0.944745 1.356418
v -1.536098 0.949688 1.356418
v -1.496098 2.070000 1.341418
v -1.496098 0.963000 1.341418
v -1.496098 0.963000 1.276418
v -1.496098 2.070000 1.276418
v -1.476098 2.050000 1.258418
v -1.476098 2.050000 1.276418
v -1.476098 0.975000 1.276418
v -1.476098 0.975000 1.258418
v -1.536098 0.900000 1.428918
v -1.536098 0.900000 1.258418
v 0.273902 0.900000 1.258418
v 0.273902 0.900000 1.428918
v -1.536098 0.933809 1.428918
v -1.536098 0.900000 1.428918
v 0.273902 0.900000 1.428918
v 0.273902 0.933809 1.428918
v -1.536098 0.944745 1.356418
v -1.536098 0.933809 1.428918
v 0.273902 0.933809 1.428918
v 0.273902 0.944745 1.356418
v -1.536098 0.949688 1.356418
v -1.536098 0.944745 1.356418
v 0.273902 0.944745 1.356418
v 0.273902 0.949688 1.356418
v -1.536098 0.951000 1.341418
v -1.536098 0.949688 1.356418
v 0.273902 0.949688 1.356418
v 0.273902 0.951000 1.341418
v 0.233902 0.963000 1.276418
v -1.496098 0.963000 1.276418
v -1.496098 0.963000 1.341418
v 0.233902 0.963000 1.341418
v 0.213902 0.975000 1.258418
v -1.476098 0.975000 1.258418
v -1.476098 0.975000 1.276418
v 0.213902 0.975000 1.276418
v 0.203902 0.993000 1.305418
v -1.466098 0.993000 1.305418
v -1.466098 2.040000 1.305418
v 0.203902 2.040000 1.305418
v 0.203902 0.993000 1.329418
v 0.203902 2.040000 1.329418
v -1.466098 2.040000 1.329418
v -1.466098 0.993000 1.329418
v -1.466098 0.993000 1.305418
v 0.203902 0.993000 1.305418
v 0.203902 0.993000 1.329418
v -1.466098 0.993000 1.329418
v -1.466098 2.040000 1.305418
v -1.466098 0.993000 1.305418
v -1.466098 0.993000 1.329418
v -1.466098 2.040000 1.329418
v 0.203902 2.040000 1.305418
v -1.466098 2.040000 1.305418
v -1.466098 2.040000 1.329418
v 0.203902 2.040000 1.329418
v 0.203902 0.993000 1.305418
v 0.203902 2.040000 1.305418
v 0.203902 2.040000 1.329418
v 0.203902 0.993000 1.329418
v 0.243902 2.080000 1.341418
v 0.243902 2.080000 1.347191
v 0.243902 0.953000 1.347191
v 0.243902 0.953000 1.341418
v 0.233902 2.070000 1.276418
v 0.233902 2.070000 1.341418
v 0.233902 0.963000 1.341418
v 0.233902 0.963000 1.276418
v 0.193902 2.030000 1.290911
v 0.204050 2.040148 1.276418
v 0.204050 0.992852 1.276418
v 0.193902 1.003000 1.290911
v 0.193902 2.030000 1.305418
v 0.193902 2.030000 1.290911
v 0.193902 1.003000 1.290911
v 0.193902 1.003000 1.305418
v 0.203902 2.040000 1.329418
v 0.203902 2.040000 1.305418
v 0.203902 0.993000 1.305418
v 0.203902 0.993000 1.329418
v 0.193902 2.030000 1.347191
v 0.193902 2.030000 1.329418
v 0.193902 1.003000 1.329418
v 0.193902 1.003000 1.347191
v 0.211347 2.047446 1.352965
v 0.193902 2.030000 1.347191
v 0.193902 1.003000 1.347191
v 0.211347 0.985554 1.352965
v 0.243902 2.080000 1.347191
v 0.233117 2.069215 1.352965
v 0.233117 0.963785 1.352965
v 0.243902 0.953000 1.347191
v 0.243902 0.953000 1.341418
v 0.243902 0.953000 1.347191
v -1.506098 0.953000 1.347191
v -1.506098 0.953000 1.341418
v 0.233902 0.963000 1.276418
v 0.233902 0.963000 1.341418
v -1.496098 0.963000 1.341418
v -1.496098 0.963000 1.276418
v 0.193902 1.003000 1.290911
v 0.204050 0.992852 1.276418
v -1.466247 0.992852 1.276418
v -1.456098 1.003000 1.290911
v 0.193902 1.003000 1.305418
v 0.193902 1.003000 1.290911
v -1.456098 1.003000 1.290911
v -1.456098 1.003000 1.305418
v 0.203902 0.993000 1.329418
v 0.203902 0.993000 1.305418
v -1.466098 0.993000 1.305418
v -1.466098 0.993000 1.329418
v 0.193902 1.003000 1.347191
v 0.193902 1.003000 1.329418
v -1.456098 1.003000 1.329418
v -1.456098 1.003000 1.347191
v 0.211347 0.985554 1.352965
v 0.193902 1.003000 1.347191
v -1.456098 1.003000 1.347191
v -1.473544 0.985554 1.352965
v 0.243902 0.953000 1.347191
v 0.233117 0.963785 1.352965
v -1.495314 0.963785 1.352965
v -1.506098 0.953000 1.347191
v -1.506098 0.953000 1.341418
v -1.506098 0.953000 1.347191
v -1.506098 2.080000 1.347191
v -1.506098 2.080000 1.341418
v -1.496098 0.963000 1.276418
v -1.496098 0.963000 1.341418
v -1.496098 2.070000 1.341418
v -1.496098 2.070000 1.276418
v -1.456098 1.003000 1.290911
v -1.466247 0.992852 1.276418
v -1.466247 2.040148 1.276418
v -1.456098 2.030000 1.290911
v -1.456098 1.003000 1.305418
v -1.456098 1.003000 1.290911
v -1.456098 2.030000 1.290911
v -1.456098 2.030000 1.305418
v -1.466098 0.993000 1.329418
v -1.466098 0.993000 1.305418
v -1.466098 2.040000 1.305418
v -1.466098 2.040000 1.329418
v -1.456098 1.003000 1.347191
v -1.456098 1.003000 1.329418
v -1.456098 2.030000 1.329418
v -1.456098 2.030000 1.347191
v -1.473544 0.985554 1.352965
v -1.456098 1.003000 1.347191
v -1.456098 2.030000 1.347191
v -1.473544 2.047446 1.352965
v -1.506098 0.953000 1.347191
v -1.495314 0.963785 1.352965
v -1.495314 2.069215 1.352965
v -1.506098 2.080000 1.347191
v -1.506098 2.080000 1.341418
v -1.506098 2.080000 1.347191
v 0.243902 2.080000 1.347191
v 0.243902 2.080000 1.341418
v 0.243902 0.953000 1.341418
v -1.506098 0.953000 1.341418
v -1.506098 2.080000 1.341418
v 0.243902 2.080000 1.341418
v -1.496098 2.070000 1.276418
v -1.496098 2.070000 1.341418
v 0.233902 2.070000 1.341418
v 0.233902 2.070000 1.276418
v 0.233902 0.963000 1.276418
v -1.496098 0.963000 1.276418
v -1.496098 2.070000 1.276418
v 0.233902 2.070000 1.276418
v -1.456098 2.030000 1.290911
v -1.466247 2.040148 1.276418
v 0.204050 2.040148 1.276418
v 0.193902 2.030000 1.290911
v -1.456098 2.030000 1.305418
v -1.456098 2.030000 1.290911
v 0.193902 2.030000 1.290911
v 0.193902 2.030000 1.305418
v 0.203902 2.040000 1.305418
v -1.466098 2.040000 1.305418
v -1.466098 0.993000 1.305418
v 0.203902 0.993000 1.305418
v -1.466098 2.040000 1.329418
v -1.466098 2.040000 1.305418
v 0.203902 2.040000 1.305418
v 0.203902 2.040000 1.329418
v 0.203902 0.993000 1.329418
v -1.466098 0.993000 1.329418
v -1.466098 2.040000 1.329418
v 0.203902 2.040000 1.329418
v -1.456098 2.030000 1.347191
v -1.456098 2.030000 1.329418
v 0.193902 2.030000 1.329418
v 0.193902 2.030000 1.347191
v -1.473544 2.047446 1.352965
v -1.456098 2.030000 1.347191
v 0.193902 2.030000 1.347191
v 0.211347 2.047446 1.352965
v 0.233117 2.069215 1.352965
v -1.495314 2.069215 1.352965
v -1.495314 0.963785 1.352965
v 0.233117 0.963785 1.352965
v -1.506098 2.080000 1.347191
v -1.495314 2.069215 1.352965
v 0.233117 2.069215 1.352965
v 0.243902 2.080000 1.347191
f 920 913 914
f 920 914 915
f 920 915 916
f 916 917 918
f 920 916 918
f 918 919 920
f 928 921 922
f 922 923 924
f 924 925 926
f 922 924 926
f 922 926 927
f 922 927 928
f 932 929 930
f 930 931 932
f 936 933 934
f 934 935 936
f 940 937 938
f 938 939 940
f 944 941 942
f 942 943 944
f 948 945 946
f 946 947 948
f 952 949 950
f 950 951 952
f 956 953 954
f 954 955 956
f 960 957 958
f 958 959 960
f 964 961 962
f 962 963 964
f 965 966 967
f 965 967 968
f 972 965 968
f 968 969 970
f 972 968 970
f 970 971 972
f 976 973 974
f 974 975 976
f 980 977 978
f 978 979 980
f 984 981 982
f 982 983 984
f 988 985 986
f 986 987 988
f 992 989 990
f 990 991 992
f 996 993 994
f 994 995 996
f 1000 997 998
f 998 999 1000
f 1001 1002 1003
f 1001 1003 1004
f 1008 1001 1004
f 1004 1005 1006
f 1004 1006 1007
f 1004 1007 1008
f 1012 1009 1010
f 1010 1011 1012
f 1016 1013 1014
f 1014 1015 1016
f 1020 1017 1018
f 1018 1019 1020
f 1024 1021 1022
f 1022 1023 1024
f 1028 1025 1026
f 1026 1027 1028
f 1032 1029 1030
f 1030 1031 1032
f 1036 1033 1034
f 1034 1035 1036
f 1040 1037 1038
f 1038 1039 1040
f 1044 1041 1042
f 1042 1043 1044
f 1048 1045 1046
f 1046 1047 1048
f 1052 1049 1050
f 1050 1051 1052
f 1056 1053 1054
f 1054 1055 1056
f 1060 1057 1058
f 1058 1059 1060
f 1064 1061 1062
f 1062 1063 1064
f 1068 1065 1066
f 1066 1067 1068
f 1072 1069 1070
f 1070 1071 1072
f 1076 1073 1074
f 1074 1075 1076
f 1080 1077 1078
f 1078 1079 1080
f 1084 1081 1082
f 1082 1083 1084
f 1088 1085 1086
f 1086 1087 1088
f 1092 1089 1090
f 1090 1091 1092
f 1096 1093 1094
f 1094 1095 1096
f 1100 1097 1098
f 1098 1099 1100
f 1104 1101 1102
f 1102 1103 1104
f 1108 1105 1106
f 1106 1107 1108
f 1112 1109 1110
f 1110 1111 1112
f 1116 1113 1114
f 1114 1115 1116
f 1120 1117 1118
f 1118 1119 1120
f 1124 1121 1122
f 1122 1123 1124
f 1128 1125 1126
f 1126 1127 1128
f 1132 1129 1130
f 1130 1131 1132
f 1136 1133 1134
f 1134 1135 1136
f 1140 1137 1138
f 1138 1139 1140
f 1144 1141 1142
f 1142 1143 1144
f 1148 1145 1146
f 1146 1147 1148
f 1152 1149 1150
f 1150 1151 1152
f 1156 1153 1154
f 1154 1155 1156
f 1160 1157 1158
f 1158 1159 1160
f 1164 1161 1162
f 1162 1163 1164
f 1168 1165 1166
f 1166 1167 1168
f 1172 1169 1170
f 1170 1171 1172
f 1176 1173 1174
f 1174 1175 1176
f 1180 1177 1178
f 1178 1179 1180
f 1184 1181 1182
f 1182 1183 1184
f 1188 1185 1186
f 1186 1187 1188
f 1192 1189 1190
f 1190 1191 1192
f 1196 1193 1194
f 1194 1195 1196
f 1200 1197 1198
f 1198 1199 1200
f 1204 1201 1202
f 1202 1203 1204
f 1208 1205 1206
f 1206 1207 1208
f 1212 1209 1210
f 1210 1211 1212
f 1216 1213 1214
f 1214 1215 1216

