# Ifc4_WallElementedCase.ifc -> OBJ
# schema IFC4, unit scale 0.0254 m
# converted by layer descent: Domain -> Core -> Resource
# up axis Y (rotated from IFC Z-up)

mtllib Ifc4_WallElementedCase.mtl

o Track_3E4igxyD1F5w4vj3LTAREz
# IfcMember | layer Shared_Building
v 1.219200 0.014287 -1.287462
v 1.219200 0.023813 -1.287462
v 1.219200 0.023813 -1.265238
v 1.219200 0.014287 -1.265238
v 1.828800 0.014287 -1.287462
v 1.828800 0.023813 -1.287462
v 1.828800 0.023813 -1.265238
v 1.828800 0.014287 -1.265238
v 1.219200 3.024188 -1.287462
v 1.219200 3.033713 -1.287462
v 1.219200 3.033713 -1.265238
v 1.219200 3.024188 -1.265238
v 1.828800 3.024188 -1.287462
v 1.828800 3.033713 -1.287462
v 1.828800 3.033713 -1.265238
v 1.828800 3.024188 -1.265238
v 1.828800 2.044700 -1.291167
v 1.828800 2.057400 -1.291167
v 1.828800 2.057400 -1.261533
v 1.828800 2.044700 -1.261533
v 2.641600 2.044700 -1.291167
v 2.641600 2.057400 -1.291167
v 2.641600 2.057400 -1.261533
v 2.641600 2.044700 -1.261533
v 1.828800 3.022600 -1.291167
v 1.828800 3.035300 -1.291167
v 1.828800 3.035300 -1.261533
v 1.828800 3.022600 -1.261533
v 2.641600 3.022600 -1.291167
v 2.641600 3.035300 -1.291167
v 2.641600 3.035300 -1.261533
v 2.641600 3.022600 -1.261533
v 2.641600 0.013494 -1.289315
v 2.641600 0.024606 -1.289315
v 2.641600 0.024606 -1.263385
v 2.641600 0.013494 -1.263385
v 3.352800 0.013494 -1.289315
v 3.352800 0.024606 -1.289315
v 3.352800 0.024606 -1.263385
v 3.352800 0.013494 -1.263385
v 2.641600 3.023394 -1.289315
v 2.641600 3.034506 -1.289315
v 2.641600 3.034506 -1.263385
v 2.641600 3.023394 -1.263385
v 3.352800 3.023394 -1.289315
v 3.352800 3.034506 -1.289315
v 3.352800 3.034506 -1.263385
v 3.352800 3.023394 -1.263385
v 3.352800 0.011906 -1.293019
v 3.352800 0.026194 -1.293019
v 3.352800 0.026194 -1.259681
v 3.352800 0.011906 -1.259681
v 4.267200 0.011906 -1.293019
v 4.267200 0.026194 -1.293019
v 4.267200 0.026194 -1.259681
v 4.267200 0.011906 -1.259681
v 3.352800 0.786606 -1.293019
v 3.352800 0.800894 -1.293019
v 3.352800 0.800894 -1.259681
v 3.352800 0.786606 -1.259681
v 4.267200 0.786606 -1.293019
v 4.267200 0.800894 -1.293019
v 4.267200 0.800894 -1.259681
v 4.267200 0.786606 -1.259681
v 3.352800 2.043906 -1.293019
v 3.352800 2.058194 -1.293019
v 3.352800 2.058194 -1.259681
v 3.352800 2.043906 -1.259681
v 4.267200 2.043906 -1.293019
v 4.267200 2.058194 -1.293019
v 4.267200 2.058194 -1.259681
v 4.267200 2.043906 -1.259681
v 3.352800 3.021806 -1.293019
v 3.352800 3.036094 -1.293019
v 3.352800 3.036094 -1.259681
v 3.352800 3.021806 -1.259681
v 4.267200 3.021806 -1.293019
v 4.267200 3.036094 -1.293019
v 4.267200 3.036094 -1.259681
v 4.267200 3.021806 -1.259681
v 4.267200 0.014287 -1.287462
v 4.267200 0.023813 -1.287462
v 4.267200 0.023813 -1.265238
v 4.267200 0.014287 -1.265238
v 4.876800 0.014287 -1.287462
v 4.876800 0.023813 -1.287462
v 4.876800 0.023813 -1.265238
v 4.876800 0.014287 -1.265238
v 4.267200 3.024188 -1.287462
v 4.267200 3.033713 -1.287462
v 4.267200 3.033713 -1.265238
v 4.267200 3.024188 -1.265238
v 4.876800 3.024188 -1.287462
v 4.876800 3.033713 -1.287462
v 4.876800 3.033713 -1.265238
v 4.876800 3.024188 -1.265238
usemtl ifc_FFC000FF
f 2 1 4
f 8 5 6
f 4 3 2
f 6 7 8
f 1 2 6
f 1 6 5
f 2 3 7
f 2 7 6
f 3 4 8
f 3 8 7
f 4 1 5
f 4 5 8
f 10 9 12
f 16 13 14
f 12 11 10
f 14 15 16
f 9 10 14
f 9 14 13
f 10 11 15
f 10 15 14
f 11 12 16
f 11 16 15
f 12 9 13
f 12 13 16
f 18 17 20
f 24 21 22
f 20 19 18
f 22 23 24
f 17 18 22
f 17 22 21
f 18 19 23
f 18 23 22
f 19 20 24
f 19 24 23
f 20 17 21
f 20 21 24
f 26 25 28
f 32 29 30
f 28 27 26
f 30 31 32
f 25 26 30
f 25 30 29
f 26 27 31
f 26 31 30
f 27 28 32
f 27 32 31
f 28 25 29
f 28 29 32
f 34 33 36
f 40 37 38
f 36 35 34
f 38 39 40
f 33 34 38
f 33 38 37
f 34 35 39
f 34 39 38
f 35 36 40
f 35 40 39
f 36 33 37
f 36 37 40
f 42 41 44
f 48 45 46
f 44 43 42
f 46 47 48
f 41 42 46
f 41 46 45
f 42 43 47
f 42 47 46
f 43 44 48
f 43 48 47
f 44 41 45
f 44 45 48
f 50 49 52
f 56 53 54
f 52 51 50
f 54 55 56
f 49 50 54
f 49 54 53
f 50 51 55
f 50 55 54
f 51 52 56
f 51 56 55
f 52 49 53
f 52 53 56
f 58 57 60
f 64 61 62
f 60 59 58
f 62 63 64
f 57 58 62
f 57 62 61
f 58 59 63
f 58 63 62
f 59 60 64
f 59 64 63
f 60 57 61
f 60 61 64
f 66 65 68
f 72 69 70
f 68 67 66
f 70 71 72
f 65 66 70
f 65 70 69
f 66 67 71
f 66 71 70
f 67 68 72
f 67 72 71
f 68 65 69
f 68 69 72
f 74 73 76
f 80 77 78
f 76 75 74
f 78 79 80
f 73 74 78
f 73 78 77
f 74 75 79
f 74 79 78
f 75 76 80
f 75 80 79
f 76 73 77
f 76 77 80
f 82 81 84
f 88 85 86
f 84 83 82
f 86 87 88
f 81 82 86
f 81 86 85
f 82 83 87
f 82 87 86
f 83 84 88
f 83 88 87
f 84 81 85
f 84 85 88
f 90 89 92
f 96 93 94
f 92 91 90
f 94 95 96
f 89 90 94
f 89 94 93
f 90 91 95
f 90 95 94
f 91 92 96
f 91 96 95
f 92 89 93
f 92 93 96

o Studs_0y81T5OQ921PKefugNkz2z
# IfcMember | layer Shared_Building
v 1.262346 0.038100 -1.332573
v 1.214154 0.038100 -1.332573
v 1.214154 0.038100 -1.220127
v 1.262346 0.038100 -1.220127
v 1.262346 3.009900 -1.332573
v 1.214154 3.009900 -1.332573
v 1.214154 3.009900 -1.220127
v 1.262346 3.009900 -1.220127
v 1.668746 0.038100 -1.332573
v 1.620554 0.038100 -1.332573
v 1.620554 0.038100 -1.220127
v 1.668746 0.038100 -1.220127
v 1.668746 3.009900 -1.332573
v 1.620554 3.009900 -1.332573
v 1.620554 3.009900 -1.220127
v 1.668746 3.009900 -1.220127
v 1.833846 0.038100 -1.332573
v 1.785654 0.038100 -1.332573
v 1.785654 0.038100 -1.220127
v 1.833846 0.038100 -1.220127
v 1.833846 3.009900 -1.332573
v 1.785654 3.009900 -1.332573
v 1.785654 3.009900 -1.220127
v 1.833846 3.009900 -1.220127
v 1.855470 2.070100 -1.294130
v 1.840230 2.070100 -1.294130
v 1.840230 2.070100 -1.258570
v 1.855470 2.070100 -1.258570
v 1.855470 3.009900 -1.294130
v 1.840230 3.009900 -1.294130
v 1.840230 3.009900 -1.258570
v 1.855470 3.009900 -1.258570
v 2.261870 2.070100 -1.294130
v 2.246630 2.070100 -1.294130
v 2.246630 2.070100 -1.258570
v 2.261870 2.070100 -1.258570
v 2.261870 3.009900 -1.294130
v 2.246630 3.009900 -1.294130
v 2.246630 3.009900 -1.258570
v 2.261870 3.009900 -1.258570
v 2.630170 2.070100 -1.294130
v 2.614930 2.070100 -1.294130
v 2.614930 2.070100 -1.258570
v 2.630170 2.070100 -1.258570
v 2.630170 3.009900 -1.294130
v 2.614930 3.009900 -1.294130
v 2.614930 3.009900 -1.258570
v 2.630170 3.009900 -1.258570
v 2.684746 0.038100 -1.332573
v 2.636554 0.038100 -1.332573
v 2.636554 0.038100 -1.220127
v 2.684746 0.038100 -1.220127
v 2.684746 3.009900 -1.332573
v 2.636554 3.009900 -1.332573
v 2.636554 3.009900 -1.220127
v 2.684746 3.009900 -1.220127
v 3.091146 0.038100 -1.332573
v 3.042954 0.038100 -1.332573
v 3.042954 0.038100 -1.220127
v 3.091146 0.038100 -1.220127
v 3.091146 3.009900 -1.332573
v 3.042954 3.009900 -1.332573
v 3.042954 3.009900 -1.220127
v 3.091146 3.009900 -1.220127
v 3.357846 0.038100 -1.332573
v 3.309654 0.038100 -1.332573
v 3.309654 0.038100 -1.220127
v 3.357846 0.038100 -1.220127
v 3.357846 3.009900 -1.332573
v 3.309654 3.009900 -1.332573
v 3.309654 3.009900 -1.220127
v 3.357846 3.009900 -1.220127
v 3.377822 0.038100 -1.290286
v 3.365878 0.038100 -1.290286
v 3.365878 0.038100 -1.262414
v 3.377822 0.038100 -1.262414
v 3.377822 0.774700 -1.290286
v 3.365878 0.774700 -1.290286
v 3.365878 0.774700 -1.262414
v 3.377822 0.774700 -1.262414
v 3.784222 0.038100 -1.290286
v 3.772278 0.038100 -1.290286
v 3.772278 0.038100 -1.262414
v 3.784222 0.038100 -1.262414
v 3.784222 0.774700 -1.290286
v 3.772278 0.774700 -1.290286
v 3.772278 0.774700 -1.262414
v 3.784222 0.774700 -1.262414
v 4.190622 0.038100 -1.290286
v 4.178678 0.038100 -1.290286
v 4.178678 0.038100 -1.262414
v 4.190622 0.038100 -1.262414
v 4.190622 0.774700 -1.290286
v 4.178678 0.774700 -1.290286
v 4.178678 0.774700 -1.262414
v 4.190622 0.774700 -1.262414
v 4.254122 0.038100 -1.290286
v 4.242178 0.038100 -1.290286
v 4.242178 0.038100 -1.262414
v 4.254122 0.038100 -1.262414
v 4.254122 0.774700 -1.290286
v 4.242178 0.774700 -1.290286
v 4.242178 0.774700 -1.262414
v 4.254122 0.774700 -1.262414
v 3.379470 2.070100 -1.294130
v 3.364230 2.070100 -1.294130
v 3.364230 2.070100 -1.258570
v 3.379470 2.070100 -1.258570
v 3.379470 3.009900 -1.294130
v 3.364230 3.009900 -1.294130
v 3.364230 3.009900 -1.258570
v 3.379470 3.009900 -1.258570
v 3.785870 2.070100 -1.294130
v 3.770630 2.070100 -1.294130
v 3.770630 2.070100 -1.258570
v 3.785870 2.070100 -1.258570
v 3.785870 3.009900 -1.294130
v 3.770630 3.009900 -1.294130
v 3.770630 3.009900 -1.258570
v 3.785870 3.009900 -1.258570
v 4.192270 2.070100 -1.294130
v 4.177030 2.070100 -1.294130
v 4.177030 2.070100 -1.258570
v 4.192270 2.070100 -1.258570
v 4.192270 3.009900 -1.294130
v 4.177030 3.009900 -1.294130
v 4.177030 3.009900 -1.258570
v 4.192270 3.009900 -1.258570
v 4.255770 2.070100 -1.294130
v 4.240530 2.070100 -1.294130
v 4.240530 2.070100 -1.258570
v 4.255770 2.070100 -1.258570
v 4.255770 3.009900 -1.294130
v 4.240530 3.009900 -1.294130
v 4.240530 3.009900 -1.258570
v 4.255770 3.009900 -1.258570
v 4.310346 0.038100 -1.332573
v 4.262154 0.038100 -1.332573
v 4.262154 0.038100 -1.220127
v 4.310346 0.038100 -1.220127
v 4.310346 3.009900 -1.332573
v 4.262154 3.009900 -1.332573
v 4.262154 3.009900 -1.220127
v 4.310346 3.009900 -1.220127
v 4.716746 0.038100 -1.332573
v 4.668554 0.038100 -1.332573
v 4.668554 0.038100 -1.220127
v 4.716746 0.038100 -1.220127
v 4.716746 3.009900 -1.332573
v 4.668554 3.009900 -1.332573
v 4.668554 3.009900 -1.220127
v 4.716746 3.009900 -1.220127
v 4.881846 0.038100 -1.332573
v 4.833654 0.038100 -1.332573
v 4.833654 0.038100 -1.220127
v 4.881846 0.038100 -1.220127
v 4.881846 3.009900 -1.332573
v 4.833654 3.009900 -1.332573
v 4.833654 3.009900 -1.220127
v 4.881846 3.009900 -1.220127
f 98 97 100
f 104 101 102
f 100 99 98
f 102 103 104
f 97 98 102
f 97 102 101
f 98 99 103
f 98 103 102
f 99 100 104
f 99 104 103
f 100 97 101
f 100 101 104
f 106 105 108
f 112 109 110
f 108 107 106
f 110 111 112
f 105 106 110
f 105 110 109
f 106 107 111
f 106 111 110
f 107 108 112
f 107 112 111
f 108 105 109
f 108 109 112
f 114 113 116
f 120 117 118
f 116 115 114
f 118 119 120
f 113 114 118
f 113 118 117
f 114 115 119
f 114 119 118
f 115 116 120
f 115 120 119
f 116 113 117
f 116 117 120
f 122 121 124
f 128 125 126
f 124 123 122
f 126 127 128
f 121 122 126
f 121 126 125
f 122 123 127
f 122 127 126
f 123 124 128
f 123 128 127
f 124 121 125
f 124 125 128
f 130 129 132
f 136 133 134
f 132 131 130
f 134 135 136
f 129 130 134
f 129 134 133
f 130 131 135
f 130 135 134
f 131 132 136
f 131 136 135
f 132 129 133
f 132 133 136
f 138 137 140
f 144 141 142
f 140 139 138
f 142 143 144
f 137 138 142
f 137 142 141
f 138 139 143
f 138 143 142
f 139 140 144
f 139 144 143
f 140 137 141
f 140 141 144
f 146 145 148
f 152 149 150
f 148 147 146
f 150 151 152
f 145 146 150
f 145 150 149
f 146 147 151
f 146 151 150
f 147 148 152
f 147 152 151
f 148 145 149
f 148 149 152
f 154 153 156
f 160 157 158
f 156 155 154
f 158 159 160
f 153 154 158
f 153 158 157
f 154 155 159
f 154 159 158
f 155 156 160
f 155 160 159
f 156 153 157
f 156 157 160
f 162 161 164
f 168 165 166
f 164 163 162
f 166 167 168
f 161 162 166
f 161 166 165
f 162 163 167
f 162 167 166
f 163 164 168
f 163 168 167
f 164 161 165
f 164 165 168
f 170 169 172
f 176 173 174
f 172 171 170
f 174 175 176
f 169 170 174
f 169 174 173
f 170 171 175
f 170 175 174
f 171 172 176
f 171 176 175
f 172 169 173
f 172 173 176
f 178 177 180
f 184 181 182
f 180 179 178
f 182 183 184
f 177 178 182
f 177 182 181
f 178 179 183
f 178 183 182
f 179 180 184
f 179 184 183
f 180 177 181
f 180 181 184
f 186 185 188
f 192 189 190
f 188 187 186
f 190 191 192
f 185 186 190
f 185 190 189
f 186 187 191
f 186 191 190
f 187 188 192
f 187 192 191
f 188 185 189
f 188 189 192
f 194 193 196
f 200 197 198
f 196 195 194
f 198 199 200
f 193 194 198
f 193 198 197
f 194 195 199
f 194 199 198
f 195 196 200
f 195 200 199
f 196 193 197
f 196 197 200
f 202 201 204
f 208 205 206
f 204 203 202
f 206 207 208
f 201 202 206
f 201 206 205
f 202 203 207
f 202 207 206
f 203 204 208
f 203 208 207
f 204 201 205
f 204 205 208
f 210 209 212
f 216 213 214
f 212 211 210
f 214 215 216
f 209 210 214
f 209 214 213
f 210 211 215
f 210 215 214
f 211 212 216
f 211 216 215
f 212 209 213
f 212 213 216
f 218 217 220
f 224 221 222
f 220 219 218
f 222 223 224
f 217 218 222
f 217 222 221
f 218 219 223
f 218 223 222
f 219 220 224
f 219 224 223
f 220 217 221
f 220 221 224
f 226 225 228
f 232 229 230
f 228 227 226
f 230 231 232
f 225 226 230
f 225 230 229
f 226 227 231
f 226 231 230
f 227 228 232
f 227 232 231
f 228 225 229
f 228 229 232
f 234 233 236
f 240 237 238
f 236 235 234
f 238 239 240
f 233 234 238
f 233 238 237
f 234 235 239
f 234 239 238
f 235 236 240
f 235 240 239
f 236 233 237
f 236 237 240
f 242 241 244
f 248 245 246
f 244 243 242
f 246 247 248
f 241 242 246
f 241 246 245
f 242 243 247
f 242 247 246
f 243 244 248
f 243 248 247
f 244 241 245
f 244 245 248
f 250 249 252
f 256 253 254
f 252 251 250
f 254 255 256
f 249 250 254
f 249 254 253
f 250 251 255
f 250 255 254
f 251 252 256
f 251 256 255
f 252 249 253
f 252 253 256

o Panel_Forward_1dhqqYR5v9EPzs7Ts1dOEX
# IfcBuildingElementPart | layer Shared_Building
v 1.219200 0.000000 -1.231900
v 1.828800 0.000000 -1.231900
v 1.828800 0.304800 -1.231900
v 1.219200 0.304800 -1.231900
v 1.219200 0.000000 -1.228725
v 1.828800 0.000000 -1.228725
v 1.828800 0.304800 -1.228725
v 1.219200 0.304800 -1.228725
v 1.828800 2.032000 -1.231900
v 2.641600 2.032000 -1.231900
v 2.641600 2.438400 -1.231900
v 1.828800 2.438400 -1.231900
v 1.828800 2.032000 -1.227667
v 2.641600 2.032000 -1.227667
v 2.641600 2.438400 -1.227667
v 1.828800 2.438400 -1.227667
v 2.641600 0.000000 -1.231900
v 3.352800 0.000000 -1.231900
v 3.352800 0.355600 -1.231900
v 2.641600 0.355600 -1.231900
v 2.641600 0.000000 -1.228196
v 3.352800 0.000000 -1.228196
v 3.352800 0.355600 -1.228196
v 2.641600 0.355600 -1.228196
v 3.352800 0.000000 -1.231900
v 4.267200 0.000000 -1.231900
v 4.267200 0.457200 -1.231900
v 3.352800 0.457200 -1.231900
v 3.352800 0.000000 -1.227137
v 4.267200 0.000000 -1.227137
v 4.267200 0.457200 -1.227137
v 3.352800 0.457200 -1.227137
v 3.352800 2.032000 -1.231900
v 4.267200 2.032000 -1.231900
v 4.267200 2.489200 -1.231900
v 3.352800 2.489200 -1.231900
v 3.352800 2.032000 -1.227137
v 4.267200 2.032000 -1.227137
v 4.267200 2.489200 -1.227137
v 3.352800 2.489200 -1.227137
v 4.267200 0.000000 -1.231900
v 4.876800 0.000000 -1.231900
v 4.876800 0.304800 -1.231900
v 4.267200 0.304800 -1.231900
v 4.267200 0.000000 -1.228725
v 4.876800 0.000000 -1.228725
v 4.876800 0.304800 -1.228725
v 4.267200 0.304800 -1.228725
usemtl ifc_9BBB59FF
f 258 257 260
f 264 261 262
f 260 259 258
f 262 263 264
f 257 258 262
f 257 262 261
f 258 259 263
f 258 263 262
f 259 260 264
f 259 264 263
f 260 257 261
f 260 261 264
f 266 265 268
f 272 269 270
f 268 267 266
f 270 271 272
f 265 266 270
f 265 270 269
f 266 267 271
f 266 271 270
f 267 268 272
f 267 272 271
f 268 265 269
f 268 269 272
f 274 273 276
f 280 277 278
f 276 275 274
f 278 279 280
f 273 274 278
f 273 278 277
f 274 275 279
f 274 279 278
f 275 276 280
f 275 280 279
f 276 273 277
f 276 277 280
f 282 281 284
f 288 285 286
f 284 283 282
f 286 287 288
f 281 282 286
f 281 286 285
f 282 283 287
f 282 287 286
f 283 284 288
f 283 288 287
f 284 281 285
f 284 285 288
f 290 289 292
f 296 293 294
f 292 291 290
f 294 295 296
f 289 290 294
f 289 294 293
f 290 291 295
f 290 295 294
f 291 292 296
f 291 296 295
f 292 289 293
f 292 293 296
f 298 297 300
f 304 301 302
f 300 299 298
f 302 303 304
f 297 298 302
f 297 302 301
f 298 299 303
f 298 303 302
f 299 300 304
f 299 304 303
f 300 297 301
f 300 301 304

o Panel_Reverse_3dca$PAJT1XA6b06dQW26g
# IfcBuildingElementPart | layer Shared_Building
v 1.219200 0.000000 -1.333500
v 1.828800 0.000000 -1.333500
v 1.828800 0.304800 -1.333500
v 1.219200 0.304800 -1.333500
v 1.219200 0.000000 -1.330325
v 1.828800 0.000000 -1.330325
v 1.828800 0.304800 -1.330325
v 1.219200 0.304800 -1.330325
v 1.828800 2.032000 -1.333500
v 2.641600 2.032000 -1.333500
v 2.641600 2.438400 -1.333500
v 1.828800 2.438400 -1.333500
v 1.828800 2.032000 -1.329267
v 2.641600 2.032000 -1.329267
v 2.641600 2.438400 -1.329267
v 1.828800 2.438400 -1.329267
v 2.641600 0.000000 -1.333500
v 3.352800 0.000000 -1.333500
v 3.352800 0.355600 -1.333500
v 2.641600 0.355600 -1.333500
v 2.641600 0.000000 -1.329796
v 3.352800 0.000000 -1.329796
v 3.352800 0.355600 -1.329796
v 2.641600 0.355600 -1.329796
v 3.352800 0.000000 -1.333500
v 4.267200 0.000000 -1.333500
v 4.267200 0.457200 -1.333500
v 3.352800 0.457200 -1.333500
v 3.352800 0.000000 -1.328737
v 4.267200 0.000000 -1.328737
v 4.267200 0.457200 -1.328737
v 3.352800 0.457200 -1.328737
v 3.352800 2.032000 -1.333500
v 4.267200 2.032000 -1.333500
v 4.267200 2.489200 -1.333500
v 3.352800 2.489200 -1.333500
v 3.352800 2.032000 -1.328737
v 4.267200 2.032000 -1.328737
v 4.267200 2.489200 -1.328737
v 3.352800 2.489200 -1.328737
v 4.267200 0.000000 -1.333500
v 4.876800 0.000000 -1.333500
v 4.876800 0.304800 -1.333500
v 4.267200 0.304800 -1.333500
v 4.267200 0.000000 -1.330325
v 4.876800 0.000000 -1.330325
v 4.876800 0.304800 -1.330325
v 4.267200 0.304800 -1.330325
f 306 305 308
f 312 309 310
f 308 307 306
f 310 311 312
f 305 306 310
f 305 310 309
f 306 307 311
f 306 311 310
f 307 308 312
f 307 312 311
f 308 305 309
f 308 309 312
f 314 313 316
f 320 317 318
f 316 315 314
f 318 319 320
f 313 314 318
f 313 318 317
f 314 315 319
f 314 319 318
f 315 316 320
f 315 320 319
f 316 313 317
f 316 317 320
f 322 321 324
f 328 325 326
f 324 323 322
f 326 327 328
f 321 322 326
f 321 326 325
f 322 323 327
f 322 327 326
f 323 324 328
f 323 328 327
f 324 321 325
f 324 325 328
f 330 329 332
f 336 333 334
f 332 331 330
f 334 335 336
f 329 330 334
f 329 334 333
f 330 331 335
f 330 335 334
f 331 332 336
f 331 336 335
f 332 329 333
f 332 333 336
f 338 337 340
f 344 341 342
f 340 339 338
f 342 343 344
f 337 338 342
f 337 342 341
f 338 339 343
f 338 343 342
f 339 340 344
f 339 344 343
f 340 337 341
f 340 341 344
f 346 345 348
f 352 349 350
f 348 347 346
f 350 351 352
f 345 346 350
f 345 350 349
f 346 347 351
f 346 351 350
f 347 348 352
f 347 352 351
f 348 345 349
f 348 349 352

