# Ifc4_BasinFacetedBrep.ifc -> OBJ
# schema IFC4, unit scale 0.001 m
# converted by layer descent: Domain -> Core -> Resource
# up axis Y (rotated from IFC Z-up)

mtllib Ifc4_BasinFacetedBrep.mtl

o unnamed_3tkl48paX9yw0lahGPGmeU
# IfcSanitaryTerminal | layer Plumbing_FireProtections
v -0.304891 0.000000 -0.109822
v -0.296940 0.000000 -0.069986
v -0.280923 0.000000 -0.032591
v -0.274528 0.000000 -0.045874
v -0.287786 0.000000 -0.081945
v -0.291585 0.000000 -0.120093
v -0.280765 0.000000 -0.156699
v -0.256088 0.000000 -0.185991
v -0.224266 0.000000 -0.207524
v -0.189184 0.000000 -0.223298
v -0.152484 0.000000 -0.234863
v -0.114905 0.000000 -0.243169
v -0.076828 0.000000 -0.248782
v -0.038476 0.000000 -0.252033
v 0.000000 0.000000 -0.253099
v 0.038476 0.000000 -0.252033
v 0.076828 0.000000 -0.248782
v 0.114905 0.000000 -0.243169
v 0.152484 0.000000 -0.234863
v 0.189184 0.000000 -0.223298
v 0.224266 0.000000 -0.207524
v 0.256088 0.000000 -0.185991
v 0.280765 0.000000 -0.156699
v 0.291585 0.000000 -0.120093
v 0.287786 0.000000 -0.081945
v 0.274528 0.000000 -0.045874
v 0.255377 0.000000 -0.012518
v 0.232162 0.000000 0.018164
v 0.205821 0.000000 0.046214
v 0.176832 0.000000 0.071518
v 0.145419 0.000000 0.093739
v 0.111673 0.000000 0.112210
v 0.075812 0.000000 0.126124
v 0.038344 0.000000 0.134805
v 0.000000 0.000000 0.137759
v -0.038344 0.000000 0.134805
v -0.075812 0.000000 0.126124
v -0.111673 0.000000 0.112210
v -0.145419 0.000000 0.093739
v -0.176832 0.000000 0.071518
v -0.205821 0.000000 0.046214
v -0.232162 0.000000 0.018164
v -0.255377 0.000000 -0.012518
v -0.274528 0.000000 -0.045874
v -0.280923 0.000000 -0.032591
v -0.259608 0.000000 0.002085
v -0.234428 0.000000 0.034075
v -0.206126 0.000000 0.063343
v -0.175072 0.000000 0.089672
v -0.141413 0.000000 0.112570
v -0.105215 0.000000 0.131179
v -0.066798 0.000000 0.144601
v -0.026802 0.000000 0.152078
v 0.013871 0.000000 0.153122
v 0.054190 0.000000 0.147658
v 0.093194 0.000000 0.136056
v 0.130150 0.000000 0.119009
v 0.164630 0.000000 0.097372
v 0.196522 0.000000 0.072066
v 0.225728 0.000000 0.043700
v 0.251962 0.000000 0.012566
v 0.274621 0.000000 -0.021251
v 0.292545 0.000000 -0.057781
v 0.303485 0.000000 -0.096929
v 0.303289 0.000000 -0.137460
v 0.287370 0.000000 -0.174609
v 0.258965 0.000000 -0.203584
v 0.224363 0.000000 -0.224954
v 0.186818 0.000000 -0.240672
v 0.147756 0.000000 -0.252156
v 0.107854 0.000000 -0.260281
v 0.067477 0.000000 -0.265572
v 0.026846 0.000000 -0.268332
v -0.013877 0.000000 -0.268707
v -0.054553 0.000000 -0.266716
v -0.095032 0.000000 -0.262255
v -0.135116 0.000000 -0.255078
v -0.174498 0.000000 -0.244739
v -0.212632 0.000000 -0.230493
v -0.248406 0.000000 -0.211118
v -0.279320 0.000000 -0.184776
v -0.159800 -0.094000 -0.153468
v -0.156563 -0.094000 -0.131154
v -0.149376 -0.094000 -0.109760
v -0.139405 -0.094000 -0.089504
v -0.127294 -0.094000 -0.070446
v -0.113387 -0.094000 -0.052654
v -0.097845 -0.094000 -0.036273
v -0.080698 -0.094000 -0.021583
v -0.061887 -0.094000 -0.009105
v -0.041439 -0.094000 0.000440
v -0.019663 -0.094000 0.006330
v 0.002830 -0.094000 0.007989
v 0.025216 -0.094000 0.005234
v 0.046705 -0.094000 -0.001636
v 0.066760 -0.094000 -0.011985
v 0.085148 -0.094000 -0.025082
v 0.101890 -0.094000 -0.040233
v 0.117030 -0.094000 -0.056987
v 0.130507 -0.094000 -0.075106
v 0.142123 -0.094000 -0.094469
v 0.151473 -0.094000 -0.115018
v 0.157807 -0.094000 -0.136676
v 0.159781 -0.094000 -0.159128
v 0.155312 -0.094000 -0.181159
v 0.143527 -0.094000 -0.200308
v 0.126729 -0.094000 -0.215329
v 0.107202 -0.094000 -0.226635
v 0.086227 -0.094000 -0.234982
v 0.064451 -0.094000 -0.240958
v 0.042222 -0.094000 -0.244947
v 0.019747 -0.094000 -0.247180
v -0.002830 -0.094000 -0.247780
v -0.025394 -0.094000 -0.246777
v -0.047822 -0.094000 -0.244119
v -0.069960 -0.094000 -0.239659
v -0.091577 -0.094000 -0.233132
v -0.112267 -0.094000 -0.224107
v -0.131265 -0.094000 -0.211943
v -0.147062 -0.094000 -0.195888
v -0.157155 -0.094000 -0.175809
v -0.022571 -0.084000 -0.246992
v -0.045024 -0.084000 -0.244547
v -0.067209 -0.084000 -0.240325
v -0.088908 -0.084000 -0.234076
v -0.109747 -0.084000 -0.225395
v -0.129019 -0.084000 -0.213666
v -0.145336 -0.084000 -0.198132
v -0.156296 -0.084000 -0.178505
v -0.159838 -0.084000 -0.156298
v -0.157217 -0.084000 -0.133908
v -0.150447 -0.084000 -0.112380
v -0.140781 -0.084000 -0.091977
v -0.128915 -0.084000 -0.072766
v -0.115221 -0.084000 -0.054810
v -0.099880 -0.084000 -0.038240
v -0.082936 -0.084000 -0.023316
v -0.064337 -0.084000 -0.010523
v -0.044083 -0.084000 -0.000570
v -0.022446 -0.084000 0.005815
v 0.000000 -0.084000 0.008024
v 0.022446 -0.084000 0.005815
v 0.044083 -0.084000 -0.000570
v 0.064337 -0.084000 -0.010523
v 0.082936 -0.084000 -0.023316
v 0.099880 -0.084000 -0.038240
v 0.115221 -0.084000 -0.054810
v 0.128915 -0.084000 -0.072766
v 0.140781 -0.084000 -0.091977
v 0.150447 -0.084000 -0.112380
v 0.157217 -0.084000 -0.133908
v 0.159838 -0.084000 -0.156298
v 0.156296 -0.084000 -0.178505
v 0.145336 -0.084000 -0.198132
v 0.129019 -0.084000 -0.213666
v 0.109747 -0.084000 -0.225395
v 0.088908 -0.084000 -0.234076
v 0.067209 -0.084000 -0.240325
v 0.045024 -0.084000 -0.244547
v 0.022571 -0.084000 -0.246992
v 0.000000 -0.084000 -0.247792
v -0.300000 0.000000 -0.150000
v -0.147062 -0.094000 -0.195888
v -0.157155 -0.094000 -0.175809
v -0.279320 0.000000 -0.184776
v -0.131265 -0.094000 -0.211943
v -0.147062 -0.094000 -0.195888
v -0.248406 0.000000 -0.211118
v -0.112267 -0.094000 -0.224107
v -0.131265 -0.094000 -0.211943
v -0.212632 0.000000 -0.230493
v -0.091577 -0.094000 -0.233132
v -0.112267 -0.094000 -0.224107
v -0.174498 0.000000 -0.244739
v -0.069960 -0.094000 -0.239659
v -0.091577 -0.094000 -0.233132
v -0.135116 0.000000 -0.255078
v -0.047822 -0.094000 -0.244119
v -0.069960 -0.094000 -0.239659
v -0.095032 0.000000 -0.262255
v -0.025394 -0.094000 -0.246777
v -0.047822 -0.094000 -0.244119
v -0.054553 0.000000 -0.266716
v -0.002830 -0.094000 -0.247780
v -0.025394 -0.094000 -0.246777
v -0.013877 0.000000 -0.268707
v 0.019747 -0.094000 -0.247180
v -0.002830 -0.094000 -0.247780
v 0.026846 0.000000 -0.268332
v 0.042222 -0.094000 -0.244947
v 0.019747 -0.094000 -0.247180
v 0.067477 0.000000 -0.265572
v 0.064451 -0.094000 -0.240958
v 0.042222 -0.094000 -0.244947
v 0.107854 0.000000 -0.260281
v 0.086227 -0.094000 -0.234982
v 0.064451 -0.094000 -0.240958
v 0.147756 0.000000 -0.252156
v 0.107202 -0.094000 -0.226635
v 0.086227 -0.094000 -0.234982
v 0.186818 0.000000 -0.240672
v 0.126729 -0.094000 -0.215329
v 0.107202 -0.094000 -0.226635
v 0.224363 0.000000 -0.224954
v 0.143527 -0.094000 -0.200308
v 0.126729 -0.094000 -0.215329
v 0.258965 0.000000 -0.203584
v 0.155312 -0.094000 -0.181159
v 0.143527 -0.094000 -0.200308
v 0.287370 0.000000 -0.174609
v 0.159781 -0.094000 -0.159128
v 0.155312 -0.094000 -0.181159
v 0.303289 0.000000 -0.137460
v 0.157807 -0.094000 -0.136676
v 0.159781 -0.094000 -0.159128
v 0.303485 0.000000 -0.096929
v 0.151473 -0.094000 -0.115018
v 0.157807 -0.094000 -0.136676
v 0.292545 0.000000 -0.057781
v 0.142123 -0.094000 -0.094469
v 0.151473 -0.094000 -0.115018
v 0.274621 0.000000 -0.021251
v 0.130507 -0.094000 -0.075106
v 0.142123 -0.094000 -0.094469
v 0.251962 0.000000 0.012566
v 0.117030 -0.094000 -0.056987
v 0.130507 -0.094000 -0.075106
v 0.225728 0.000000 0.043700
v 0.101890 -0.094000 -0.040233
v 0.117030 -0.094000 -0.056987
v 0.196522 0.000000 0.072066
v 0.085148 -0.094000 -0.025082
v 0.101890 -0.094000 -0.040233
v 0.164630 0.000000 0.097372
v 0.066760 -0.094000 -0.011985
v 0.085148 -0.094000 -0.025082
v 0.130150 0.000000 0.119009
v 0.046705 -0.094000 -0.001636
v 0.066760 -0.094000 -0.011985
v 0.093194 0.000000 0.136056
v 0.025216 -0.094000 0.005234
v 0.046705 -0.094000 -0.001636
v 0.054190 0.000000 0.147658
v 0.002830 -0.094000 0.007989
v 0.025216 -0.094000 0.005234
v 0.013871 0.000000 0.153122
v -0.019663 -0.094000 0.006330
v 0.002830 -0.094000 0.007989
v -0.026802 0.000000 0.152078
v -0.041439 -0.094000 0.000440
v -0.019663 -0.094000 0.006330
v -0.066798 0.000000 0.144601
v -0.061887 -0.094000 -0.009105
v -0.041439 -0.094000 0.000440
v -0.105215 0.000000 0.131179
v -0.080698 -0.094000 -0.021583
v -0.061887 -0.094000 -0.009105
v -0.141413 0.000000 0.112570
v -0.097845 -0.094000 -0.036273
v -0.080698 -0.094000 -0.021583
v -0.175072 0.000000 0.089672
v -0.113387 -0.094000 -0.052654
v -0.097845 -0.094000 -0.036273
v -0.206126 0.000000 0.063343
v -0.127294 -0.094000 -0.070446
v -0.113387 -0.094000 -0.052654
v -0.234428 0.000000 0.034075
v -0.139405 -0.094000 -0.089504
v -0.127294 -0.094000 -0.070446
v -0.259608 0.000000 0.002085
v -0.149376 -0.094000 -0.109760
v -0.139405 -0.094000 -0.089504
v -0.280923 0.000000 -0.032591
v -0.156563 -0.094000 -0.131154
v -0.149376 -0.094000 -0.109760
v -0.296940 0.000000 -0.069986
v -0.159800 -0.094000 -0.153468
v -0.156563 -0.094000 -0.131154
v -0.304891 0.000000 -0.109822
v -0.157155 -0.094000 -0.175809
v -0.159800 -0.094000 -0.153468
v -0.300000 0.000000 -0.150000
v -0.279320 0.000000 -0.184776
v -0.147062 -0.094000 -0.195888
v -0.279320 0.000000 -0.184776
v -0.248406 0.000000 -0.211118
v -0.131265 -0.094000 -0.211943
v -0.248406 0.000000 -0.211118
v -0.212632 0.000000 -0.230493
v -0.112267 -0.094000 -0.224107
v -0.212632 0.000000 -0.230493
v -0.174498 0.000000 -0.244739
v -0.091577 -0.094000 -0.233132
v -0.174498 0.000000 -0.244739
v -0.135116 0.000000 -0.255078
v -0.069960 -0.094000 -0.239659
v -0.135116 0.000000 -0.255078
v -0.095032 0.000000 -0.262255
v -0.047822 -0.094000 -0.244119
v -0.095032 0.000000 -0.262255
v -0.054553 0.000000 -0.266716
v -0.025394 -0.094000 -0.246777
v -0.054553 0.000000 -0.266716
v -0.013877 0.000000 -0.268707
v -0.002830 -0.094000 -0.247780
v -0.013877 0.000000 -0.268707
v 0.026846 0.000000 -0.268332
v 0.019747 -0.094000 -0.247180
v 0.026846 0.000000 -0.268332
v 0.067477 0.000000 -0.265572
v 0.042222 -0.094000 -0.244947
v 0.067477 0.000000 -0.265572
v 0.107854 0.000000 -0.260281
v 0.064451 -0.094000 -0.240958
v 0.107854 0.000000 -0.260281
v 0.147756 0.000000 -0.252156
v 0.086227 -0.094000 -0.234982
v 0.147756 0.000000 -0.252156
v 0.186818 0.000000 -0.240672
v 0.107202 -0.094000 -0.226635
v 0.186818 0.000000 -0.240672
v 0.224363 0.000000 -0.224954
v 0.126729 -0.094000 -0.215329
v 0.224363 0.000000 -0.224954
v 0.258965 0.000000 -0.203584
v 0.143527 -0.094000 -0.200308
v 0.258965 0.000000 -0.203584
v 0.287370 0.000000 -0.174609
v 0.155312 -0.094000 -0.181159
v 0.287370 0.000000 -0.174609
v 0.303289 0.000000 -0.137460
v 0.159781 -0.094000 -0.159128
v 0.303289 0.000000 -0.137460
v 0.303485 0.000000 -0.096929
v 0.157807 -0.094000 -0.136676
v 0.303485 0.000000 -0.096929
v 0.292545 0.000000 -0.057781
v 0.151473 -0.094000 -0.115018
v 0.292545 0.000000 -0.057781
v 0.274621 0.000000 -0.021251
v 0.142123 -0.094000 -0.094469
v 0.274621 0.000000 -0.021251
v 0.251962 0.000000 0.012566
v 0.130507 -0.094000 -0.075106
v 0.251962 0.000000 0.012566
v 0.225728 0.000000 0.043700
v 0.117030 -0.094000 -0.056987
v 0.225728 0.000000 0.043700
v 0.196522 0.000000 0.072066
v 0.101890 -0.094000 -0.040233
v 0.196522 0.000000 0.072066
v 0.164630 0.000000 0.097372
v 0.085148 -0.094000 -0.025082
v 0.164630 0.000000 0.097372
v 0.130150 0.000000 0.119009
v 0.066760 -0.094000 -0.011985
v 0.130150 0.000000 0.119009
v 0.093194 0.000000 0.136056
v 0.046705 -0.094000 -0.001636
v 0.093194 0.000000 0.136056
v 0.054190 0.000000 0.147658
v 0.025216 -0.094000 0.005234
v 0.054190 0.000000 0.147658
v 0.013871 0.000000 0.153122
v 0.002830 -0.094000 0.007989
v 0.013871 0.000000 0.153122
v -0.026802 0.000000 0.152078
v -0.019663 -0.094000 0.006330
v -0.026802 0.000000 0.152078
v -0.066798 0.000000 0.144601
v -0.041439 -0.094000 0.000440
v -0.066798 0.000000 0.144601
v -0.105215 0.000000 0.131179
v -0.061887 -0.094000 -0.009105
v -0.105215 0.000000 0.131179
v -0.141413 0.000000 0.112570
v -0.080698 -0.094000 -0.021583
v -0.141413 0.000000 0.112570
v -0.175072 0.000000 0.089672
v -0.097845 -0.094000 -0.036273
v -0.175072 0.000000 0.089672
v -0.206126 0.000000 0.063343
v -0.113387 -0.094000 -0.052654
v -0.206126 0.000000 0.063343
v -0.234428 0.000000 0.034075
v -0.127294 -0.094000 -0.070446
v -0.234428 0.000000 0.034075
v -0.259608 0.000000 0.002085
v -0.139405 -0.094000 -0.089504
v -0.259608 0.000000 0.002085
v -0.280923 0.000000 -0.032591
v -0.149376 -0.094000 -0.109760
v -0.280923 0.000000 -0.032591
v -0.296940 0.000000 -0.069986
v -0.156563 -0.094000 -0.131154
v -0.296940 0.000000 -0.069986
v -0.304891 0.000000 -0.109822
v -0.159800 -0.094000 -0.153468
v -0.304891 0.000000 -0.109822
v -0.300000 0.000000 -0.150000
v -0.157155 -0.094000 -0.175809
v 0.000000 0.000000 -0.253099
v 0.022571 -0.084000 -0.246992
v 0.000000 -0.084000 -0.247792
v 0.038476 0.000000 -0.252033
v 0.045024 -0.084000 -0.244547
v 0.022571 -0.084000 -0.246992
v 0.076828 0.000000 -0.248782
v 0.067209 -0.084000 -0.240325
v 0.045024 -0.084000 -0.244547
v 0.114905 0.000000 -0.243169
v 0.088908 -0.084000 -0.234076
v 0.067209 -0.084000 -0.240325
v 0.152484 0.000000 -0.234863
v 0.109747 -0.084000 -0.225395
v 0.088908 -0.084000 -0.234076
v 0.189184 0.000000 -0.223298
v 0.129019 -0.084000 -0.213666
v 0.109747 -0.084000 -0.225395
v 0.224266 0.000000 -0.207524
v 0.145336 -0.084000 -0.198132
v 0.129019 -0.084000 -0.213666
v 0.256088 0.000000 -0.185991
v 0.156296 -0.084000 -0.178505
v 0.145336 -0.084000 -0.198132
v 0.280765 0.000000 -0.156699
v 0.159838 -0.084000 -0.156298
v 0.156296 -0.084000 -0.178505
v 0.291585 0.000000 -0.120093
v 0.157217 -0.084000 -0.133908
v 0.159838 -0.084000 -0.156298
v 0.287786 0.000000 -0.081945
v 0.150447 -0.084000 -0.112380
v 0.157217 -0.084000 -0.133908
v 0.274528 0.000000 -0.045874
v 0.140781 -0.084000 -0.091977
v 0.150447 -0.084000 -0.112380
v 0.255377 0.000000 -0.012518
v 0.128915 -0.084000 -0.072766
v 0.140781 -0.084000 -0.091977
v 0.232162 0.000000 0.018164
v 0.115221 -0.084000 -0.054810
v 0.128915 -0.084000 -0.072766
v 0.205821 0.000000 0.046214
v 0.099880 -0.084000 -0.038240
v 0.115221 -0.084000 -0.054810
v 0.176832 0.000000 0.071518
v 0.082936 -0.084000 -0.023316
v 0.099880 -0.084000 -0.038240
v 0.145419 0.000000 0.093739
v 0.064337 -0.084000 -0.010523
v 0.082936 -0.084000 -0.023316
v 0.111673 0.000000 0.112210
v 0.044083 -0.084000 -0.000570
v 0.064337 -0.084000 -0.010523
v 0.075812 0.000000 0.126124
v 0.022446 -0.084000 0.005815
v 0.044083 -0.084000 -0.000570
v 0.038344 0.000000 0.134805
v 0.000000 -0.084000 0.008024
v 0.022446 -0.084000 0.005815
v 0.000000 0.000000 0.137759
v -0.022446 -0.084000 0.005815
v 0.000000 -0.084000 0.008024
v -0.038344 0.000000 0.134805
v -0.044083 -0.084000 -0.000570
v -0.022446 -0.084000 0.005815
v -0.075812 0.000000 0.126124
v -0.064337 -0.084000 -0.010523
v -0.044083 -0.084000 -0.000570
v -0.111673 0.000000 0.112210
v -0.082936 -0.084000 -0.023316
v -0.064337 -0.084000 -0.010523
v -0.145419 0.000000 0.093739
v -0.099880 -0.084000 -0.038240
v -0.082936 -0.084000 -0.023316
v -0.176832 0.000000 0.071518
v -0.115221 -0.084000 -0.054810
v -0.099880 -0.084000 -0.038240
v -0.205821 0.000000 0.046214
v -0.128915 -0.084000 -0.072766
v -0.115221 -0.084000 -0.054810
v -0.232162 0.000000 0.018164
v -0.140781 -0.084000 -0.091977
v -0.128915 -0.084000 -0.072766
v -0.255377 0.000000 -0.012518
v -0.150447 -0.084000 -0.112380
v -0.140781 -0.084000 -0.091977
v -0.274528 0.000000 -0.045874
v -0.157217 -0.084000 -0.133908
v -0.150447 -0.084000 -0.112380
v -0.287786 0.000000 -0.081945
v -0.159838 -0.084000 -0.156298
v -0.157217 -0.084000 -0.133908
v -0.291585 0.000000 -0.120093
v -0.156296 -0.084000 -0.178505
v -0.159838 -0.084000 -0.156298
v -0.280765 0.000000 -0.156699
v -0.145336 -0.084000 -0.198132
v -0.156296 -0.084000 -0.178505
v -0.256088 0.000000 -0.185991
v -0.129019 -0.084000 -0.213666
v -0.145336 -0.084000 -0.198132
v -0.224266 0.000000 -0.207524
v -0.109747 -0.084000 -0.225395
v -0.129019 -0.084000 -0.213666
v -0.189184 0.000000 -0.223298
v -0.088908 -0.084000 -0.234076
v -0.109747 -0.084000 -0.225395
v -0.152484 0.000000 -0.234863
v -0.067209 -0.084000 -0.240325
v -0.088908 -0.084000 -0.234076
v -0.114905 0.000000 -0.243169
v -0.045024 -0.084000 -0.244547
v -0.067209 -0.084000 -0.240325
v -0.076828 0.000000 -0.248782
v -0.022571 -0.084000 -0.246992
v -0.045024 -0.084000 -0.244547
v -0.038476 0.000000 -0.252033
v 0.000000 -0.084000 -0.247792
v -0.022571 -0.084000 -0.246992
v 0.000000 0.000000 -0.253099
v 0.038476 0.000000 -0.252033
v 0.022571 -0.084000 -0.246992
v 0.038476 0.000000 -0.252033
v 0.076828 0.000000 -0.248782
v 0.045024 -0.084000 -0.244547
v 0.076828 0.000000 -0.248782
v 0.114905 0.000000 -0.243169
v 0.067209 -0.084000 -0.240325
v 0.114905 0.000000 -0.243169
v 0.152484 0.000000 -0.234863
v 0.088908 -0.084000 -0.234076
v 0.152484 0.000000 -0.234863
v 0.189184 0.000000 -0.223298
v 0.109747 -0.084000 -0.225395
v 0.189184 0.000000 -0.223298
v 0.224266 0.000000 -0.207524
v 0.129019 -0.084000 -0.213666
v 0.224266 0.000000 -0.207524
v 0.256088 0.000000 -0.185991
v 0.145336 -0.084000 -0.198132
v 0.256088 0.000000 -0.185991
v 0.280765 0.000000 -0.156699
v 0.156296 -0.084000 -0.178505
v 0.280765 0.000000 -0.156699
v 0.291585 0.000000 -0.120093
v 0.159838 -0.084000 -0.156298
v 0.291585 0.000000 -0.120093
v 0.287786 0.000000 -0.081945
v 0.157217 -0.084000 -0.133908
v 0.287786 0.000000 -0.081945
v 0.274528 0.000000 -0.045874
v 0.150447 -0.084000 -0.112380
v 0.274528 0.000000 -0.045874
v 0.255377 0.000000 -0.012518
v 0.140781 -0.084000 -0.091977
v 0.255377 0.000000 -0.012518
v 0.232162 0.000000 0.018164
v 0.128915 -0.084000 -0.072766
v 0.232162 0.000000 0.018164
v 0.205821 0.000000 0.046214
v 0.115221 -0.084000 -0.054810
v 0.205821 0.000000 0.046214
v 0.176832 0.000000 0.071518
v 0.099880 -0.084000 -0.038240
v 0.176832 0.000000 0.071518
v 0.145419 0.000000 0.093739
v 0.082936 -0.084000 -0.023316
v 0.145419 0.000000 0.093739
v 0.111673 0.000000 0.112210
v 0.064337 -0.084000 -0.010523
v 0.111673 0.000000 0.112210
v 0.075812 0.000000 0.126124
v 0.044083 -0.084000 -0.000570
v 0.075812 0.000000 0.126124
v 0.038344 0.000000 0.134805
v 0.022446 -0.084000 0.005815
v 0.038344 0.000000 0.134805
v 0.000000 0.000000 0.137759
v 0.000000 -0.084000 0.008024
v 0.000000 0.000000 0.137759
v -0.038344 0.000000 0.134805
v -0.022446 -0.084000 0.005815
v -0.038344 0.000000 0.134805
v -0.075812 0.000000 0.126124
v -0.044083 -0.084000 -0.000570
v -0.075812 0.000000 0.126124
v -0.111673 0.000000 0.112210
v -0.064337 -0.084000 -0.010523
v -0.111673 0.000000 0.112210
v -0.145419 0.000000 0.093739
v -0.082936 -0.084000 -0.023316
v -0.145419 0.000000 0.093739
v -0.176832 0.000000 0.071518
v -0.099880 -0.084000 -0.038240
v -0.176832 0.000000 0.071518
v -0.205821 0.000000 0.046214
v -0.115221 -0.084000 -0.054810
v -0.205821 0.000000 0.046214
v -0.232162 0.000000 0.018164
v -0.128915 -0.084000 -0.072766
v -0.232162 0.000000 0.018164
v -0.255377 0.000000 -0.012518
v -0.140781 -0.084000 -0.091977
v -0.255377 0.000000 -0.012518
v -0.274528 0.000000 -0.045874
v -0.150447 -0.084000 -0.112380
v -0.274528 0.000000 -0.045874
v -0.287786 0.000000 -0.081945
v -0.157217 -0.084000 -0.133908
v -0.287786 0.000000 -0.081945
v -0.291585 0.000000 -0.120093
v -0.159838 -0.084000 -0.156298
v -0.291585 0.000000 -0.120093
v -0.280765 0.000000 -0.156699
v -0.156296 -0.084000 -0.178505
v -0.280765 0.000000 -0.156699
v -0.256088 0.000000 -0.185991
v -0.145336 -0.084000 -0.198132
v -0.256088 0.000000 -0.185991
v -0.224266 0.000000 -0.207524
v -0.129019 -0.084000 -0.213666
v -0.224266 0.000000 -0.207524
v -0.189184 0.000000 -0.223298
v -0.109747 -0.084000 -0.225395
v -0.189184 0.000000 -0.223298
v -0.152484 0.000000 -0.234863
v -0.088908 -0.084000 -0.234076
v -0.152484 0.000000 -0.234863
v -0.114905 0.000000 -0.243169
v -0.067209 -0.084000 -0.240325
v -0.114905 0.000000 -0.243169
v -0.076828 0.000000 -0.248782
v -0.045024 -0.084000 -0.244547
v -0.076828 0.000000 -0.248782
v -0.038476 0.000000 -0.252033
v -0.022571 -0.084000 -0.246992
v -0.038476 0.000000 -0.252033
v 0.000000 0.000000 -0.253099
v 0.000000 -0.084000 -0.247792
usemtl ifc_unstyled
f 1 2 3
f 1 3 4
f 1 4 5
f 1 5 6
f 81 1 6
f 81 6 7
f 81 7 8
f 81 8 9
f 81 9 10
f 43 44 45
f 42 43 45
f 41 42 45
f 41 45 46
f 40 41 46
f 40 46 47
f 39 40 47
f 39 47 48
f 38 39 48
f 38 48 49
f 37 38 49
f 37 49 50
f 36 37 50
f 36 50 51
f 35 36 51
f 35 51 52
f 34 35 52
f 34 52 53
f 33 34 53
f 33 53 54
f 32 33 54
f 32 54 55
f 31 32 55
f 31 55 56
f 30 31 56
f 30 56 57
f 29 30 57
f 29 57 58
f 28 29 58
f 28 58 59
f 27 28 59
f 27 59 60
f 26 27 60
f 26 60 61
f 26 61 62
f 25 26 62
f 25 62 63
f 24 25 63
f 24 63 64
f 23 24 64
f 23 64 65
f 22 23 65
f 22 65 66
f 21 22 66
f 21 66 67
f 20 21 67
f 19 20 67
f 19 67 68
f 18 19 68
f 18 68 69
f 17 18 69
f 16 17 69
f 16 69 70
f 15 16 70
f 15 70 71
f 14 15 71
f 14 71 72
f 13 14 72
f 13 72 73
f 12 13 73
f 12 73 74
f 11 12 74
f 11 74 75
f 10 11 75
f 10 75 76
f 10 76 77
f 81 10 77
f 81 77 78
f 81 78 79
f 79 80 81
f 121 82 83
f 121 83 84
f 121 84 85
f 121 85 86
f 121 86 87
f 121 87 88
f 121 88 89
f 121 89 90
f 121 90 91
f 121 91 92
f 121 92 93
f 121 93 94
f 121 94 95
f 121 95 96
f 121 96 97
f 121 97 98
f 121 98 99
f 121 99 100
f 121 100 101
f 121 101 102
f 121 102 103
f 121 103 104
f 121 104 105
f 121 105 106
f 121 106 107
f 121 107 108
f 121 108 109
f 121 109 110
f 121 110 111
f 121 111 112
f 121 112 113
f 121 113 114
f 121 114 115
f 121 115 116
f 121 116 117
f 121 117 118
f 121 118 119
f 119 120 121
f 161 122 123
f 161 123 124
f 161 124 125
f 161 125 126
f 161 126 127
f 161 127 128
f 161 128 129
f 161 129 130
f 161 130 131
f 161 131 132
f 161 132 133
f 161 133 134
f 161 134 135
f 161 135 136
f 161 136 137
f 161 137 138
f 161 138 139
f 161 139 140
f 161 140 141
f 161 141 142
f 161 142 143
f 161 143 144
f 161 144 145
f 161 145 146
f 161 146 147
f 161 147 148
f 161 148 149
f 161 149 150
f 161 150 151
f 161 151 152
f 161 152 153
f 161 153 154
f 161 154 155
f 161 155 156
f 161 156 157
f 161 157 158
f 161 158 159
f 159 160 161
f 162 163 164
f 165 166 167
f 168 169 170
f 171 172 173
f 174 175 176
f 177 178 179
f 180 181 182
f 183 184 185
f 186 187 188
f 189 190 191
f 192 193 194
f 195 196 197
f 198 199 200
f 201 202 203
f 204 205 206
f 207 208 209
f 210 211 212
f 213 214 215
f 216 217 218
f 219 220 221
f 222 223 224
f 225 226 227
f 228 229 230
f 231 232 233
f 234 235 236
f 237 238 239
f 240 241 242
f 243 244 245
f 246 247 248
f 249 250 251
f 252 253 254
f 255 256 257
f 258 259 260
f 261 262 263
f 264 265 266
f 267 268 269
f 270 271 272
f 273 274 275
f 276 277 278
f 279 280 281
f 282 283 284
f 285 286 287
f 288 289 290
f 291 292 293
f 294 295 296
f 297 298 299
f 300 301 302
f 303 304 305
f 306 307 308
f 309 310 311
f 312 313 314
f 315 316 317
f 318 319 320
f 321 322 323
f 324 325 326
f 327 328 329
f 330 331 332
f 333 334 335
f 336 337 338
f 339 340 341
f 342 343 344
f 345 346 347
f 348 349 350
f 351 352 353
f 354 355 356
f 357 358 359
f 360 361 362
f 363 364 365
f 366 367 368
f 369 370 371
f 372 373 374
f 375 376 377
f 378 379 380
f 381 382 383
f 384 385 386
f 387 388 389
f 390 391 392
f 393 394 395
f 396 397 398
f 399 400 401
f 402 403 404
f 405 406 407
f 408 409 410
f 411 412 413
f 414 415 416
f 417 418 419
f 420 421 422
f 423 424 425
f 426 427 428
f 429 430 431
f 432 433 434
f 435 436 437
f 438 439 440
f 441 442 443
f 444 445 446
f 447 448 449
f 450 451 452
f 453 454 455
f 456 457 458
f 459 460 461
f 462 463 464
f 465 466 467
f 468 469 470
f 471 472 473
f 474 475 476
f 477 478 479
f 480 481 482
f 483 484 485
f 486 487 488
f 489 490 491
f 492 493 494
f 495 496 497
f 498 499 500
f 501 502 503
f 504 505 506
f 507 508 509
f 510 511 512
f 513 514 515
f 516 517 518
f 519 520 521
f 522 523 524
f 525 526 527
f 528 529 530
f 531 532 533
f 534 535 536
f 537 538 539
f 540 541 542
f 543 544 545
f 546 547 548
f 549 550 551
f 552 553 554
f 555 556 557
f 558 559 560
f 561 562 563
f 564 565 566
f 567 568 569
f 570 571 572
f 573 574 575
f 576 577 578
f 579 580 581
f 582 583 584
f 585 586 587
f 588 589 590
f 591 592 593
f 594 595 596
f 597 598 599
f 600 601 602
f 603 604 605
f 606 607 608
f 609 610 611
f 612 613 614
f 615 616 617
f 618 619 620
f 621 622 623
f 624 625 626
f 627 628 629
f 630 631 632
f 633 634 635
f 636 637 638
f 639 640 641

