# Ifc4_SampleHouse_IfcWindow.ifc -> OBJ
# schema IFC4, unit scale 0.001 m
# converted by layer descent: Domain -> Core -> Resource
# up axis Y (rotated from IFC Z-up)

mtllib Ifc4_SampleHouse_IfcWindow.mtl

o Windows_Sgl_Plain_1810x1210mm_286105_3cUkl32yn9qRSPvBJVyWcE
# IfcWindow | layer Shared_Building
v 2.963902 0.900000 -4.383582
v 2.963902 0.900000 -4.408582
v 2.988902 0.900000 -4.408582
v 2.988902 0.900000 -4.565582
v 4.798902 0.900000 -4.565582
v 4.798902 0.900000 -4.408582
v 4.823902 0.900000 -4.408582
v 4.823902 0.900000 -4.383582
v 2.963902 0.925000 -4.383582
v 4.823902 0.925000 -4.383582
v 4.823902 0.925000 -4.408582
v 4.798902 0.925000 -4.408582
v 4.798902 0.925000 -4.565582
v 2.988902 0.925000 -4.565582
v 2.988902 0.925000 -4.408582
v 2.963902 0.925000 -4.408582
v 2.963902 0.900000 -4.408582
v 2.963902 0.900000 -4.383582
v 2.963902 0.925000 -4.383582
v 2.963902 0.925000 -4.408582
v 2.988902 0.900000 -4.408582
v 2.963902 0.900000 -4.408582
v 2.963902 0.925000 -4.408582
v 2.988902 0.925000 -4.408582
v 2.988902 0.900000 -4.565582
v 2.988902 0.900000 -4.408582
v 2.988902 0.925000 -4.408582
v 2.988902 0.925000 -4.565582
v 4.798902 0.900000 -4.565582
v 2.988902 0.900000 -4.565582
v 2.988902 0.925000 -4.565582
v 4.798902 0.925000 -4.565582
v 4.798902 0.900000 -4.408582
v 4.798902 0.900000 -4.565582
v 4.798902 0.925000 -4.565582
v 4.798902 0.925000 -4.408582
v 4.823902 0.900000 -4.408582
v 4.798902 0.900000 -4.408582
v 4.798902 0.925000 -4.408582
v 4.823902 0.925000 -4.408582
v 4.823902 0.900000 -4.383582
v 4.823902 0.900000 -4.408582
v 4.823902 0.925000 -4.408582
v 4.823902 0.925000 -4.383582
v 2.963902 0.900000 -4.383582
v 4.823902 0.900000 -4.383582
v 4.823902 0.925000 -4.383582
v 2.963902 0.925000 -4.383582
v 2.988902 0.900000 -4.565582
v 4.798902 0.900000 -4.565582
v 4.798902 2.110000 -4.565582
v 4.738902 2.050000 -4.565582
v 4.738902 0.975000 -4.565582
v 3.048902 0.975000 -4.565582
v 3.048902 2.050000 -4.565582
v 4.738902 2.050000 -4.565582
v 4.798902 2.110000 -4.565582
v 2.988902 2.110000 -4.565582
v 2.988902 0.900000 -4.565582
v 2.988902 2.110000 -4.565582
v 2.988902 2.110000 -4.648582
v 2.988902 0.951000 -4.648582
v 2.988902 0.949688 -4.663582
v 2.988902 0.944745 -4.663582
v 2.988902 0.933809 -4.736082
v 2.988902 0.900000 -4.736082
v 2.988902 0.951000 -4.648582
v 3.028902 0.963000 -4.648582
v 4.758902 0.963000 -4.648582
v 4.758902 2.070000 -4.648582
v 3.028902 2.070000 -4.648582
v 3.028902 0.963000 -4.648582
v 2.988902 0.951000 -4.648582
v 2.988902 2.110000 -4.648582
v 4.798902 2.110000 -4.648582
v 4.798902 0.951000 -4.648582
v 3.028902 0.963000 -4.648582
v 3.028902 2.070000 -4.648582
v 3.028902 2.070000 -4.583582
v 3.028902 0.963000 -4.583582
v 3.028902 2.070000 -4.583582
v 4.758902 2.070000 -4.583582
v 4.758902 0.963000 -4.583582
v 4.738902 0.975000 -4.583582
v 4.738902 2.050000 -4.583582
v 3.048902 2.050000 -4.583582
v 3.048902 0.975000 -4.583582
v 4.738902 0.975000 -4.583582
v 4.758902 0.963000 -4.583582
v 3.028902 0.963000 -4.583582
v 3.048902 2.050000 -4.583582
v 3.048902 2.050000 -4.565582
v 3.048902 0.975000 -4.565582
v 3.048902 0.975000 -4.583582
v 2.988902 2.110000 -4.565582
v 4.798902 2.110000 -4.565582
v 4.798902 2.110000 -4.648582
v 2.988902 2.110000 -4.648582
v 3.028902 2.070000 -4.648582
v 4.758902 2.070000 -4.648582
v 4.758902 2.070000 -4.583582
v 3.028902 2.070000 -4.583582
v 4.738902 2.050000 -4.565582
v 3.048902 2.050000 -4.565582
v 3.048902 2.050000 -4.583582
v 4.738902 2.050000 -4.583582
v 4.798902 0.951000 -4.648582
v 4.798902 2.110000 -4.648582
v 4.798902 2.110000 -4.565582
v 4.798902 0.900000 -4.565582
v 4.798902 0.900000 -4.736082
v 4.798902 0.933809 -4.736082
v 4.798902 0.944745 -4.663582
v 4.798902 0.949688 -4.663582
v 4.758902 2.070000 -4.648582
v 4.758902 0.963000 -4.648582
v 4.758902 0.963000 -4.583582
v 4.758902 2.070000 -4.583582
v 4.738902 2.050000 -4.565582
v 4.738902 2.050000 -4.583582
v 4.738902 0.975000 -4.583582
v 4.738902 0.975000 -4.565582
v 4.798902 0.900000 -4.736082
v 4.798902 0.900000 -4.565582
v 2.988902 0.900000 -4.565582
v 2.988902 0.900000 -4.736082
v 4.798902 0.933809 -4.736082
v 4.798902 0.900000 -4.736082
v 2.988902 0.900000 -4.736082
v 2.988902 0.933809 -4.736082
v 4.798902 0.944745 -4.663582
v 4.798902 0.933809 -4.736082
v 2.988902 0.933809 -4.736082
v 2.988902 0.944745 -4.663582
v 4.798902 0.949688 -4.663582
v 4.798902 0.944745 -4.663582
v 2.988902 0.944745 -4.663582
v 2.988902 0.949688 -4.663582
v 4.798902 0.951000 -4.648582
v 4.798902 0.949688 -4.663582
v 2.988902 0.949688 -4.663582
v 2.988902 0.951000 -4.648582
v 3.028902 0.963000 -4.583582
v 4.758902 0.963000 -4.583582
v 4.758902 0.963000 -4.648582
v 3.028902 0.963000 -4.648582
v 3.048902 0.975000 -4.565582
v 4.738902 0.975000 -4.565582
v 4.738902 0.975000 -4.583582
v 3.048902 0.975000 -4.583582
v 3.058902 0.993000 -4.612582
v 4.728902 0.993000 -4.612582
v 4.728902 2.040000 -4.612582
v 3.058902 2.040000 -4.612582
v 3.058902 0.993000 -4.636582
v 3.058902 2.040000 -4.636582
v 4.728902 2.040000 -4.636582
v 4.728902 0.993000 -4.636582
v 4.728902 0.993000 -4.612582
v 3.058902 0.993000 -4.612582
v 3.058902 0.993000 -4.636582
v 4.728902 0.993000 -4.636582
v 4.728902 2.040000 -4.612582
v 4.728902 0.993000 -4.612582
v 4.728902 0.993000 -4.636582
v 4.728902 2.040000 -4.636582
v 3.058902 2.040000 -4.612582
v 4.728902 2.040000 -4.612582
v 4.728902 2.040000 -4.636582
v 3.058902 2.040000 -4.636582
v 3.058902 0.993000 -4.612582
v 3.058902 2.040000 -4.612582
v 3.058902 2.040000 -4.636582
v 3.058902 0.993000 -4.636582
v 3.018902 2.080000 -4.648582
v 3.018902 2.080000 -4.654356
v 3.018902 0.953000 -4.654356
v 3.018902 0.953000 -4.648582
v 3.028902 2.070000 -4.583582
v 3.028902 2.070000 -4.648582
v 3.028902 0.963000 -4.648582
v 3.028902 0.963000 -4.583582
v 3.068902 2.030000 -4.598075
v 3.058753 2.040148 -4.583582
v 3.058753 0.992852 -4.583582
v 3.068902 1.003000 -4.598075
v 3.068902 2.030000 -4.612582
v 3.068902 2.030000 -4.598075
v 3.068902 1.003000 -4.598075
v 3.068902 1.003000 -4.612582
v 3.058902 2.040000 -4.636582
v 3.058902 2.040000 -4.612582
v 3.058902 0.993000 -4.612582
v 3.058902 0.993000 -4.636582
v 3.068902 2.030000 -4.654356
v 3.068902 2.030000 -4.636582
v 3.068902 1.003000 -4.636582
v 3.068902 1.003000 -4.654356
v 3.051456 2.047446 -4.660129
v 3.068902 2.030000 -4.654356
v 3.068902 1.003000 -4.654356
v 3.051456 0.985554 -4.660129
v 3.018902 2.080000 -4.654356
v 3.029686 2.069215 -4.660129
v 3.029686 0.963785 -4.660129
v 3.018902 0.953000 -4.654356
v 3.018902 0.953000 -4.648582
v 3.018902 0.953000 -4.654356
v 4.768902 0.953000 -4.654356
v 4.768902 0.953000 -4.648582
v 3.028902 0.963000 -4.583582
v 3.028902 0.963000 -4.648582
v 4.758902 0.963000 -4.648582
v 4.758902 0.963000 -4.583582
v 3.068902 1.003000 -4.598075
v 3.058753 0.992852 -4.583582
v 4.729050 0.992852 -4.583582
v 4.718902 1.003000 -4.598075
v 3.068902 1.003000 -4.612582
v 3.068902 1.003000 -4.598075
v 4.718902 1.003000 -4.598075
v 4.718902 1.003000 -4.612582
v 3.058902 0.993000 -4.636582
v 3.058902 0.993000 -4.612582
v 4.728902 0.993000 -4.612582
v 4.728902 0.993000 -4.636582
v 3.068902 1.003000 -4.654356
v 3.068902 1.003000 -4.636582
v 4.718902 1.003000 -4.636582
v 4.718902 1.003000 -4.654356
v 3.051456 0.985554 -4.660129
v 3.068902 1.003000 -4.654356
v 4.718902 1.003000 -4.654356
v 4.736347 0.985554 -4.660129
v 3.018902 0.953000 -4.654356
v 3.029686 0.963785 -4.660129
v 4.758117 0.963785 -4.660129
v 4.768902 0.953000 -4.654356
v 4.768902 0.953000 -4.648582
v 4.768902 0.953000 -4.654356
v 4.768902 2.080000 -4.654356
v 4.768902 2.080000 -4.648582
v 4.758902 0.963000 -4.583582
v 4.758902 0.963000 -4.648582
v 4.758902 2.070000 -4.648582
v 4.758902 2.070000 -4.583582
v 4.718902 1.003000 -4.598075
v 4.729050 0.992852 -4.583582
v 4.729050 2.040148 -4.583582
v 4.718902 2.030000 -4.598075
v 4.718902 1.003000 -4.612582
v 4.718902 1.003000 -4.598075
v 4.718902 2.030000 -4.598075
v 4.718902 2.030000 -4.612582
v 4.728902 0.993000 -4.636582
v 4.728902 0.993000 -4.612582
v 4.728902 2.040000 -4.612582
v 4.728902 2.040000 -4.636582
v 4.718902 1.003000 -4.654356
v 4.718902 1.003000 -4.636582
v 4.718902 2.030000 -4.636582
v 4.718902 2.030000 -4.654356
v 4.736347 0.985554 -4.660129
v 4.718902 1.003000 -4.654356
v 4.718902 2.030000 -4.654356
v 4.736347 2.047446 -4.660129
v 4.768902 0.953000 -4.654356
v 4.758117 0.963785 -4.660129
v 4.758117 2.069215 -4.660129
v 4.768902 2.080000 -4.654356
v 4.768902 2.080000 -4.648582
v 4.768902 2.080000 -4.654356
v 3.018902 2.080000 -4.654356
v 3.018902 2.080000 -4.648582
v 3.018902 0.953000 -4.648582
v 3.028902 0.963000 -4.648582
v 3.028902 2.070000 -4.648582
v 4.758902 2.070000 -4.648582
v 4.758902 0.963000 -4.648582
v 3.028902 0.963000 -4.648582
v 3.018902 0.953000 -4.648582
v 4.768902 0.953000 -4.648582
v 4.768902 2.080000 -4.648582
v 3.018902 2.080000 -4.648582
v 4.758902 2.070000 -4.583582
v 4.758902 2.070000 -4.648582
v 3.028902 2.070000 -4.648582
v 3.028902 2.070000 -4.583582
v 3.028902 0.963000 -4.583582
v 4.758902 0.963000 -4.583582
v 4.758902 2.070000 -4.583582
v 3.028902 2.070000 -4.583582
v 3.058753 2.040148 -4.583582
v 4.729050 2.040148 -4.583582
v 4.729050 0.992852 -4.583582
v 3.058753 0.992852 -4.583582
v 3.058753 2.040148 -4.583582
v 3.028902 2.070000 -4.583582
v 4.718902 2.030000 -4.598075
v 4.729050 2.040148 -4.583582
v 3.058753 2.040148 -4.583582
v 3.068902 2.030000 -4.598075
v 4.718902 2.030000 -4.612582
v 4.718902 2.030000 -4.598075
v 3.068902 2.030000 -4.598075
v 3.068902 2.030000 -4.612582
v 3.058902 2.040000 -4.612582
v 3.068902 2.030000 -4.612582
v 3.068902 1.003000 -4.612582
v 4.718902 1.003000 -4.612582
v 4.718902 2.030000 -4.612582
v 3.068902 2.030000 -4.612582
v 3.058902 2.040000 -4.612582
v 4.728902 2.040000 -4.612582
v 4.728902 0.993000 -4.612582
v 3.058902 0.993000 -4.612582
v 4.728902 2.040000 -4.636582
v 4.728902 2.040000 -4.612582
v 3.058902 2.040000 -4.612582
v 3.058902 2.040000 -4.636582
v 3.058902 0.993000 -4.636582
v 3.068902 1.003000 -4.636582
v 3.068902 2.030000 -4.636582
v 4.718902 2.030000 -4.636582
v 4.718902 1.003000 -4.636582
v 3.068902 1.003000 -4.636582
v 3.058902 0.993000 -4.636582
v 4.728902 0.993000 -4.636582
v 4.728902 2.040000 -4.636582
v 3.058902 2.040000 -4.636582
v 4.718902 2.030000 -4.654356
v 4.718902 2.030000 -4.636582
v 3.068902 2.030000 -4.636582
v 3.068902 2.030000 -4.654356
v 4.736347 2.047446 -4.660129
v 4.718902 2.030000 -4.654356
v 3.068902 2.030000 -4.654356
v 3.051456 2.047446 -4.660129
v 3.029686 2.069215 -4.660129
v 3.051456 2.047446 -4.660129
v 3.051456 0.985554 -4.660129
v 4.736347 0.985554 -4.660129
v 4.736347 2.047446 -4.660129
v 3.051456 2.047446 -4.660129
v 3.029686 2.069215 -4.660129
v 4.758117 2.069215 -4.660129
v 4.758117 0.963785 -4.660129
v 3.029686 0.963785 -4.660129
v 4.768902 2.080000 -4.654356
v 4.758117 2.069215 -4.660129
v 3.029686 2.069215 -4.660129
v 3.018902 2.080000 -4.654356
usemtl ifc_F9F9F9FF
f 8 1 2
f 8 2 3
f 8 3 4
f 4 5 6
f 8 4 6
f 6 7 8
f 16 9 10
f 10 11 12
f 12 13 14
f 10 12 14
f 10 14 15
f 10 15 16
f 20 17 18
f 18 19 20
f 24 21 22
f 22 23 24
f 28 25 26
f 26 27 28
f 32 29 30
f 30 31 32
f 36 33 34
f 34 35 36
f 40 37 38
f 38 39 40
f 44 41 42
f 42 43 44
f 48 45 46
f 46 47 48
f 50 51 52
f 50 52 53
f 49 50 53
f 49 53 54
f 58 49 54
f 58 54 55
f 58 55 56
f 56 57 58
f 59 60 61
f 59 61 62
f 66 59 62
f 62 63 64
f 66 62 64
f 64 65 66
f 76 67 68
f 76 68 69
f 76 69 70
f 71 72 73
f 71 73 74
f 70 71 74
f 70 74 75
f 70 75 76
f 80 77 78
f 78 79 80
f 82 83 84
f 82 84 85
f 81 82 85
f 81 85 86
f 90 81 86
f 90 86 87
f 90 87 88
f 88 89 90
f 94 91 92
f 92 93 94
f 98 95 96
f 96 97 98
f 102 99 100
f 100 101 102
f 106 103 104
f 104 105 106
f 107 108 109
f 107 109 110
f 114 107 110
f 110 111 112
f 110 112 113
f 110 113 114
f 118 115 116
f 116 117 118
f 122 119 120
f 120 121 122
f 126 123 124
f 124 125 126
f 130 127 128
f 128 129 130
f 134 131 132
f 132 133 134
f 138 135 136
f 136 137 138
f 142 139 140
f 140 141 142
f 146 143 144
f 144 145 146
f 150 147 148
f 148 149 150
usemtl ifc_0080C040
f 154 151 152
f 152 153 154
f 158 155 156
f 156 157 158
f 162 159 160
f 160 161 162
f 166 163 164
f 164 165 166
f 170 167 168
f 168 169 170
f 174 171 172
f 172 173 174
usemtl ifc_F9F9F9FF
f 178 175 176
f 176 177 178
f 182 179 180
f 180 181 182
f 186 183 184
f 184 185 186
f 190 187 188
f 188 189 190
f 194 191 192
f 192 193 194
f 198 195 196
f 196 197 198
f 202 199 200
f 200 201 202
f 206 203 204
f 204 205 206
f 210 207 208
f 208 209 210
f 214 211 212
f 212 213 214
f 218 215 216
f 216 217 218
f 222 219 220
f 220 221 222
f 226 223 224
f 224 225 226
f 230 227 228
f 228 229 230
f 234 231 232
f 232 233 234
f 238 235 236
f 236 237 238
f 242 239 240
f 240 241 242
f 246 243 244
f 244 245 246
f 250 247 248
f 248 249 250
f 254 251 252
f 252 253 254
f 258 255 256
f 256 257 258
f 262 259 260
f 260 261 262
f 266 263 264
f 264 265 266
f 270 267 268
f 268 269 270
f 274 271 272
f 272 273 274
f 284 275 276
f 284 276 277
f 284 277 278
f 279 280 281
f 279 281 282
f 278 279 282
f 278 282 283
f 278 283 284
f 288 285 286
f 286 287 288
f 291 292 293
f 291 293 294
f 290 291 294
f 290 294 295
f 289 290 295
f 289 295 296
f 298 289 296
f 296 297 298
f 302 299 300
f 300 301 302
f 306 303 304
f 304 305 306
f 316 307 308
f 316 308 309
f 316 309 310
f 311 312 313
f 311 313 314
f 310 311 314
f 310 314 315
f 310 315 316
f 320 317 318
f 318 319 320
f 330 321 322
f 330 322 323
f 330 323 324
f 325 326 327
f 325 327 328
f 324 325 328
f 324 328 329
f 324 329 330
f 334 331 332
f 332 333 334
f 338 335 336
f 336 337 338
f 348 339 340
f 348 340 341
f 348 341 342
f 343 344 345
f 343 345 346
f 342 343 346
f 342 346 347
f 342 347 348
f 352 349 350
f 350 351 352

o Windows_Sgl_Plain_1810x1210mm_286188_3cUkl32yn9qRSPvBJVyWdx
# IfcWindow | layer Shared_Building
v -2.162348 0.900000 -4.383582
v -2.162348 0.900000 -4.408582
v -2.137348 0.900000 -4.408582
v -2.137348 0.900000 -4.565582
v -0.327348 0.900000 -4.565582
v -0.327348 0.900000 -4.408582
v -0.302348 0.900000 -4.408582
v -0.302348 0.900000 -4.383582
v -2.162348 0.925000 -4.383582
v -0.302348 0.925000 -4.383582
v -0.302348 0.925000 -4.408582
v -0.327348 0.925000 -4.408582
v -0.327348 0.925000 -4.565582
v -2.137348 0.925000 -4.565582
v -2.137348 0.925000 -4.408582
v -2.162348 0.925000 -4.408582
v -2.162348 0.900000 -4.408582
v -2.162348 0.900000 -4.383582
v -2.162348 0.925000 -4.383582
v -2.162348 0.925000 -4.408582
v -2.137348 0.900000 -4.408582
v -2.162348 0.900000 -4.408582
v -2.162348 0.925000 -4.408582
v -2.137348 0.925000 -4.408582
v -2.137348 0.900000 -4.565582
v -2.137348 0.900000 -4.408582
v -2.137348 0.925000 -4.408582
v -2.137348 0.925000 -4.565582
v -0.327348 0.900000 -4.565582
v -2.137348 0.900000 -4.565582
v -2.137348 0.925000 -4.565582
v -0.327348 0.925000 -4.565582
v -0.327348 0.900000 -4.408582
v -0.327348 0.900000 -4.565582
v -0.327348 0.925000 -4.565582
v -0.327348 0.925000 -4.408582
v -0.302348 0.900000 -4.408582
v -0.327348 0.900000 -4.408582
v -0.327348 0.925000 -4.408582
v -0.302348 0.925000 -4.408582
v -0.302348 0.900000 -4.383582
v -0.302348 0.900000 -4.408582
v -0.302348 0.925000 -4.408582
v -0.302348 0.925000 -4.383582
v -2.162348 0.900000 -4.383582
v -0.302348 0.900000 -4.383582
v -0.302348 0.925000 -4.383582
v -2.162348 0.925000 -4.383582
v -2.137348 0.900000 -4.565582
v -0.327348 0.900000 -4.565582
v -0.327348 2.110000 -4.565582
v -0.387348 2.050000 -4.565582
v -0.387348 0.975000 -4.565582
v -2.077348 0.975000 -4.565582
v -2.077348 2.050000 -4.565582
v -0.387348 2.050000 -4.565582
v -0.327348 2.110000 -4.565582
v -2.137348 2.110000 -4.565582
v -2.137348 0.900000 -4.565582
v -2.137348 2.110000 -4.565582
v -2.137348 2.110000 -4.648582
v -2.137348 0.951000 -4.648582
v -2.137348 0.949688 -4.663582
v -2.137348 0.944745 -4.663582
v -2.137348 0.933809 -4.736082
v -2.137348 0.900000 -4.736082
v -2.137348 0.951000 -4.648582
v -2.097348 0.963000 -4.648582
v -0.367348 0.963000 -4.648582
v -0.367348 2.070000 -4.648582
v -2.097348 2.070000 -4.648582
v -2.097348 0.963000 -4.648582
v -2.137348 0.951000 -4.648582
v -2.137348 2.110000 -4.648582
v -0.327348 2.110000 -4.648582
v -0.327348 0.951000 -4.648582
v -2.097348 0.963000 -4.648582
v -2.097348 2.070000 -4.648582
v -2.097348 2.070000 -4.583582
v -2.097348 0.963000 -4.583582
v -2.097348 2.070000 -4.583582
v -0.367348 2.070000 -4.583582
v -0.367348 0.963000 -4.583582
v -0.387348 0.975000 -4.583582
v -0.387348 2.050000 -4.583582
v -2.077348 2.050000 -4.583582
v -2.077348 0.975000 -4.583582
v -0.387348 0.975000 -4.583582
v -0.367348 0.963000 -4.583582
v -2.097348 0.963000 -4.583582
v -2.077348 2.050000 -4.583582
v -2.077348 2.050000 -4.565582
v -2.077348 0.975000 -4.565582
v -2.077348 0.975000 -4.583582
v -2.137348 2.110000 -4.565582
v -0.327348 2.110000 -4.565582
v -0.327348 2.110000 -4.648582
v -2.137348 2.110000 -4.648582
v -2.097348 2.070000 -4.648582
v -0.367348 2.070000 -4.648582
v -0.367348 2.070000 -4.583582
v -2.097348 2.070000 -4.583582
v -0.387348 2.050000 -4.565582
v -2.077348 2.050000 -4.565582
v -2.077348 2.050000 -4.583582
v -0.387348 2.050000 -4.583582
v -0.327348 0.951000 -4.648582
v -0.327348 2.110000 -4.648582
v -0.327348 2.110000 -4.565582
v -0.327348 0.900000 -4.565582
v -0.327348 0.900000 -4.736082
v -0.327348 0.933809 -4.736082
v -0.327348 0.944745 -4.663582
v -0.327348 0.949688 -4.663582
v -0.367348 2.070000 -4.648582
v -0.367348 0.963000 -4.648582
v -0.367348 0.963000 -4.583582
v -0.367348 2.070000 -4.583582
v -0.387348 2.050000 -4.565582
v -0.387348 2.050000 -4.583582
v -0.387348 0.975000 -4.583582
v -0.387348 0.975000 -4.565582
v -0.327348 0.900000 -4.736082
v -0.327348 0.900000 -4.565582
v -2.137348 0.900000 -4.565582
v -2.137348 0.900000 -4.736082
v -0.327348 0.933809 -4.736082
v -0.327348 0.900000 -4.736082
v -2.137348 0.900000 -4.736082
v -2.137348 0.933809 -4.736082
v -0.327348 0.944745 -4.663582
v -0.327348 0.933809 -4.736082
v -2.137348 0.933809 -4.736082
v -2.137348 0.944745 -4.663582
v -0.327348 0.949688 -4.663582
v -0.327348 0.944745 -4.663582
v -2.137348 0.944745 -4.663582
v -2.137348 0.949688 -4.663582
v -0.327348 0.951000 -4.648582
v -0.327348 0.949688 -4.663582
v -2.137348 0.949688 -4.663582
v -2.137348 0.951000 -4.648582
v -2.097348 0.963000 -4.583582
v -0.367348 0.963000 -4.583582
v -0.367348 0.963000 -4.648582
v -2.097348 0.963000 -4.648582
v -2.077348 0.975000 -4.565582
v -0.387348 0.975000 -4.565582
v -0.387348 0.975000 -4.583582
v -2.077348 0.975000 -4.583582
v -2.067348 0.993000 -4.612582
v -0.397348 0.993000 -4.612582
v -0.397348 2.040000 -4.612582
v -2.067348 2.040000 -4.612582
v -2.067348 0.993000 -4.636582
v -2.067348 2.040000 -4.636582
v -0.397348 2.040000 -4.636582
v -0.397348 0.993000 -4.636582
v -0.397348 0.993000 -4.612582
v -2.067348 0.993000 -4.612582
v -2.067348 0.993000 -4.636582
v -0.397348 0.993000 -4.636582
v -0.397348 2.040000 -4.612582
v -0.397348 0.993000 -4.612582
v -0.397348 0.993000 -4.636582
v -0.397348 2.040000 -4.636582
v -2.067348 2.040000 -4.612582
v -0.397348 2.040000 -4.612582
v -0.397348 2.040000 -4.636582
v -2.067348 2.040000 -4.636582
v -2.067348 0.993000 -4.612582
v -2.067348 2.040000 -4.612582
v -2.067348 2.040000 -4.636582
v -2.067348 0.993000 -4.636582
v -2.107348 2.080000 -4.648582
v -2.107348 2.080000 -4.654356
v -2.107348 0.953000 -4.654356
v -2.107348 0.953000 -4.648582
v -2.097348 2.070000 -4.583582
v -2.097348 2.070000 -4.648582
v -2.097348 0.963000 -4.648582
v -2.097348 0.963000 -4.583582
v -2.057348 2.030000 -4.598075
v -2.067497 2.040148 -4.583582
v -2.067497 0.992852 -4.583582
v -2.057348 1.003000 -4.598075
v -2.057348 2.030000 -4.612582
v -2.057348 2.030000 -4.598075
v -2.057348 1.003000 -4.598075
v -2.057348 1.003000 -4.612582
v -2.067348 2.040000 -4.636582
v -2.067348 2.040000 -4.612582
v -2.067348 0.993000 -4.612582
v -2.067348 0.993000 -4.636582
v -2.057348 2.030000 -4.654356
v -2.057348 2.030000 -4.636582
v -2.057348 1.003000 -4.636582
v -2.057348 1.003000 -4.654356
v -2.074794 2.047446 -4.660129
v -2.057348 2.030000 -4.654356
v -2.057348 1.003000 -4.654356
v -2.074794 0.985554 -4.660129
v -2.107348 2.080000 -4.654356
v -2.096564 2.069215 -4.660129
v -2.096564 0.963785 -4.660129
v -2.107348 0.953000 -4.654356
v -2.107348 0.953000 -4.648582
v -2.107348 0.953000 -4.654356
v -0.357348 0.953000 -4.654356
v -0.357348 0.953000 -4.648582
v -2.097348 0.963000 -4.583582
v -2.097348 0.963000 -4.648582
v -0.367348 0.963000 -4.648582
v -0.367348 0.963000 -4.583582
v -2.057348 1.003000 -4.598075
v -2.067497 0.992852 -4.583582
v -0.397200 0.992852 -4.583582
v -0.407348 1.003000 -4.598075
v -2.057348 1.003000 -4.612582
v -2.057348 1.003000 -4.598075
v -0.407348 1.003000 -4.598075
v -0.407348 1.003000 -4.612582
v -2.067348 0.993000 -4.636582
v -2.067348 0.993000 -4.612582
v -0.397348 0.993000 -4.612582
v -0.397348 0.993000 -4.636582
v -2.057348 1.003000 -4.654356
v -2.057348 1.003000 -4.636582
v -0.407348 1.003000 -4.636582
v -0.407348 1.003000 -4.654356
v -2.074794 0.985554 -4.660129
v -2.057348 1.003000 -4.654356
v -0.407348 1.003000 -4.654356
v -0.389903 0.985554 -4.660129
v -2.107348 0.953000 -4.654356
v -2.096564 0.963785 -4.660129
v -0.368133 0.963785 -4.660129
v -0.357348 0.953000 -4.654356
v -0.357348 0.953000 -4.648582
v -0.357348 0.953000 -4.654356
v -0.357348 2.080000 -4.654356
v -0.357348 2.080000 -4.648582
v -0.367348 0.963000 -4.583582
v -0.367348 0.963000 -4.648582
v -0.367348 2.070000 -4.648582
v -0.367348 2.070000 -4.583582
v -0.407348 1.003000 -4.598075
v -0.397200 0.992852 -4.583582
v -0.397200 2.040148 -4.583582
v -0.407348 2.030000 -4.598075
v -0.407348 1.003000 -4.612582
v -0.407348 1.003000 -4.598075
v -0.407348 2.030000 -4.598075
v -0.407348 2.030000 -4.612582
v -0.397348 0.993000 -4.636582
v -0.397348 0.993000 -4.612582
v -0.397348 2.040000 -4.612582
v -0.397348 2.040000 -4.636582
v -0.407348 1.003000 -4.654356
v -0.407348 1.003000 -4.636582
v -0.407348 2.030000 -4.636582
v -0.407348 2.030000 -4.654356
v -0.389903 0.985554 -4.660129
v -0.407348 1.003000 -4.654356
v -0.407348 2.030000 -4.654356
v -0.389903 2.047446 -4.660129
v -0.357348 0.953000 -4.654356
v -0.368133 0.963785 -4.660129
v -0.368133 2.069215 -4.660129
v -0.357348 2.080000 -4.654356
v -0.357348 2.080000 -4.648582
v -0.357348 2.080000 -4.654356
v -2.107348 2.080000 -4.654356
v -2.107348 2.080000 -4.648582
v -2.107348 0.953000 -4.648582
v -2.097348 0.963000 -4.648582
v -2.097348 2.070000 -4.648582
v -0.367348 2.070000 -4.648582
v -0.367348 0.963000 -4.648582
v -2.097348 0.963000 -4.648582
v -2.107348 0.953000 -4.648582
v -0.357348 0.953000 -4.648582
v -0.357348 2.080000 -4.648582
v -2.107348 2.080000 -4.648582
v -0.367348 2.070000 -4.583582
v -0.367348 2.070000 -4.648582
v -2.097348 2.070000 -4.648582
v -2.097348 2.070000 -4.583582
v -2.097348 0.963000 -4.583582
v -0.367348 0.963000 -4.583582
v -0.367348 2.070000 -4.583582
v -2.097348 2.070000 -4.583582
v -2.067497 2.040148 -4.583582
v -0.397200 2.040148 -4.583582
v -0.397200 0.992852 -4.583582
v -2.067497 0.992852 -4.583582
v -2.067497 2.040148 -4.583582
v -2.097348 2.070000 -4.583582
v -0.407348 2.030000 -4.598075
v -0.397200 2.040148 -4.583582
v -2.067497 2.040148 -4.583582
v -2.057348 2.030000 -4.598075
v -0.407348 2.030000 -4.612582
v -0.407348 2.030000 -4.598075
v -2.057348 2.030000 -4.598075
v -2.057348 2.030000 -4.612582
v -2.067348 2.040000 -4.612582
v -2.057348 2.030000 -4.612582
v -2.057348 1.003000 -4.612582
v -0.407348 1.003000 -4.612582
v -0.407348 2.030000 -4.612582
v -2.057348 2.030000 -4.612582
v -2.067348 2.040000 -4.612582
v -0.397348 2.040000 -4.612582
v -0.397348 0.993000 -4.612582
v -2.067348 0.993000 -4.612582
v -0.397348 2.040000 -4.636582
v -0.397348 2.040000 -4.612582
v -2.067348 2.040000 -4.612582
v -2.067348 2.040000 -4.636582
v -2.067348 0.993000 -4.636582
v -2.057348 1.003000 -4.636582
v -2.057348 2.030000 -4.636582
v -0.407348 2.030000 -4.636582
v -0.407348 1.003000 -4.636582
v -2.057348 1.003000 -4.636582
v -2.067348 0.993000 -4.636582
v -0.397348 0.993000 -4.636582
v -0.397348 2.040000 -4.636582
v -2.067348 2.040000 -4.636582
v -0.407348 2.030000 -4.654356
v -0.407348 2.030000 -4.636582
v -2.057348 2.030000 -4.636582
v -2.057348 2.030000 -4.654356
v -0.389903 2.047446 -4.660129
v -0.407348 2.030000 -4.654356
v -2.057348 2.030000 -4.654356
v -2.074794 2.047446 -4.660129
v -2.096564 2.069215 -4.660129
v -2.074794 2.047446 -4.660129
v -2.074794 0.985554 -4.660129
v -0.389903 0.985554 -4.660129
v -0.389903 2.047446 -4.660129
v -2.074794 2.047446 -4.660129
v -2.096564 2.069215 -4.660129
v -0.368133 2.069215 -4.660129
v -0.368133 0.963785 -4.660129
v -2.096564 0.963785 -4.660129
v -0.357348 2.080000 -4.654356
v -0.368133 2.069215 -4.660129
v -2.096564 2.069215 -4.660129
v -2.107348 2.080000 -4.654356
f 360 353 354
f 360 354 355
f 360 355 356
f 356 357 358
f 360 356 358
f 358 359 360
f 368 361 362
f 362 363 364
f 364 365 366
f 362 364 366
f 362 366 367
f 362 367 368
f 372 369 370
f 370 371 372
f 376 373 374
f 374 375 376
f 380 377 378
f 378 379 380
f 384 381 382
f 382 383 384
f 388 385 386
f 386 387 388
f 392 389 390
f 390 391 392
f 396 393 394
f 394 395 396
f 400 397 398
f 398 399 400
f 402 403 404
f 402 404 405
f 401 402 405
f 401 405 406
f 410 401 406
f 410 406 407
f 410 407 408
f 408 409 410
f 411 412 413
f 411 413 414
f 418 411 414
f 414 415 416
f 418 414 416
f 416 417 418
f 428 419 420
f 428 420 421
f 428 421 422
f 423 424 425
f 423 425 426
f 422 423 426
f 422 426 427
f 422 427 428
f 432 429 430
f 430 431 432
f 434 435 436
f 434 436 437
f 433 434 437
f 433 437 438
f 442 433 438
f 442 438 439
f 442 439 440
f 440 441 442
f 446 443 444
f 444 445 446
f 450 447 448
f 448 449 450
f 454 451 452
f 452 453 454
f 458 455 456
f 456 457 458
f 459 460 461
f 459 461 462
f 466 459 462
f 462 463 464
f 462 464 465
f 462 465 466
f 470 467 468
f 468 469 470
f 474 471 472
f 472 473 474
f 478 475 476
f 476 477 478
f 482 479 480
f 480 481 482
f 486 483 484
f 484 485 486
f 490 487 488
f 488 489 490
f 494 491 492
f 492 493 494
f 498 495 496
f 496 497 498
f 502 499 500
f 500 501 502
usemtl ifc_0080C040
f 506 503 504
f 504 505 506
f 510 507 508
f 508 509 510
f 514 511 512
f 512 513 514
f 518 515 516
f 516 517 518
f 522 519 520
f 520 521 522
f 526 523 524
f 524 525 526
usemtl ifc_F9F9F9FF
f 530 527 528
f 528 529 530
f 534 531 532
f 532 533 534
f 538 535 536
f 536 537 538
f 542 539 540
f 540 541 542
f 546 543 544
f 544 545 546
f 550 547 548
f 548 549 550
f 554 551 552
f 552 553 554
f 558 555 556
f 556 557 558
f 562 559 560
f 560 561 562
f 566 563 564
f 564 565 566
f 570 567 568
f 568 569 570
f 574 571 572
f 572 573 574
f 578 575 576
f 576 577 578
f 582 579 580
f 580 581 582
f 586 583 584
f 584 585 586
f 590 587 588
f 588 589 590
f 594 591 592
f 592 593 594
f 598 595 596
f 596 597 598
f 602 599 600
f 600 601 602
f 606 603 604
f 604 605 606
f 610 607 608
f 608 609 610
f 614 611 612
f 612 613 614
f 618 615 616
f 616 617 618
f 622 619 620
f 620 621 622
f 626 623 624
f 624 625 626
f 636 627 628
f 636 628 629
f 636 629 630
f 631 632 633
f 631 633 634
f 630 631 634
f 630 634 635
f 630 635 636
f 640 637 638
f 638 639 640
f 643 644 645
f 643 645 646
f 642 643 646
f 642 646 647
f 641 642 647
f 641 647 648
f 650 641 648
f 648 649 650
f 654 651 652
f 652 653 654
f 658 655 656
f 656 657 658
f 668 659 660
f 668 660 661
f 668 661 662
f 663 664 665
f 663 665 666
f 662 663 666
f 662 666 667
f 662 667 668
f 672 669 670
f 670 671 672
f 682 673 674
f 682 674 675
f 682 675 676
f 677 678 679
f 677 679 680
f 676 677 680
f 676 680 681
f 676 681 682
f 686 683 684
f 684 685 686
f 690 687 688
f 688 689 690
f 700 691 692
f 700 692 693
f 700 693 694
f 695 696 697
f 695 697 698
f 694 695 698
f 694 698 699
f 694 699 700
f 704 701 702
f 702 703 704

o Windows_Sgl_Plain_1810x1210mm_286238_3cUkl32yn9qRSPvBJVyWe9
# IfcWindow | layer Shared_Building
v -6.159848 0.900000 -4.383582
v -6.159848 0.900000 -4.408582
v -6.134848 0.900000 -4.408582
v -6.134848 0.900000 -4.565582
v -4.324848 0.900000 -4.565582
v -4.324848 0.900000 -4.408582
v -4.299848 0.900000 -4.408582
v -4.299848 0.900000 -4.383582
v -6.159848 0.925000 -4.383582
v -4.299848 0.925000 -4.383582
v -4.299848 0.925000 -4.408582
v -4.324848 0.925000 -4.408582
v -4.324848 0.925000 -4.565582
v -6.134848 0.925000 -4.565582
v -6.134848 0.925000 -4.408582
v -6.159848 0.925000 -4.408582
v -6.159848 0.900000 -4.408582
v -6.159848 0.900000 -4.383582
v -6.159848 0.925000 -4.383582
v -6.159848 0.925000 -4.408582
v -6.134848 0.900000 -4.408582
v -6.159848 0.900000 -4.408582
v -6.159848 0.925000 -4.408582
v -6.134848 0.925000 -4.408582
v -6.134848 0.900000 -4.565582
v -6.134848 0.900000 -4.408582
v -6.134848 0.925000 -4.408582
v -6.134848 0.925000 -4.565582
v -4.324848 0.900000 -4.565582
v -6.134848 0.900000 -4.565582
v -6.134848 0.925000 -4.565582
v -4.324848 0.925000 -4.565582
v -4.324848 0.900000 -4.408582
v -4.324848 0.900000 -4.565582
v -4.324848 0.925000 -4.565582
v -4.324848 0.925000 -4.408582
v -4.299848 0.900000 -4.408582
v -4.324848 0.900000 -4.408582
v -4.324848 0.925000 -4.408582
v -4.299848 0.925000 -4.408582
v -4.299848 0.900000 -4.383582
v -4.299848 0.900000 -4.408582
v -4.299848 0.925000 -4.408582
v -4.299848 0.925000 -4.383582
v -6.159848 0.900000 -4.383582
v -4.299848 0.900000 -4.383582
v -4.299848 0.925000 -4.383582
v -6.159848 0.925000 -4.383582
v -6.134848 0.900000 -4.565582
v -4.324848 0.900000 -4.565582
v -4.324848 2.110000 -4.565582
v -4.384848 2.050000 -4.565582
v -4.384848 0.975000 -4.565582
v -6.074848 0.975000 -4.565582
v -6.074848 2.050000 -4.565582
v -4.384848 2.050000 -4.565582
v -4.324848 2.110000 -4.565582
v -6.134848 2.110000 -4.565582
v -6.134848 0.900000 -4.565582
v -6.134848 2.110000 -4.565582
v -6.134848 2.110000 -4.648582
v -6.134848 0.951000 -4.648582
v -6.134848 0.949688 -4.663582
v -6.134848 0.944745 -4.663582
v -6.134848 0.933809 -4.736082
v -6.134848 0.900000 -4.736082
v -6.134848 0.951000 -4.648582
v -6.094848 0.963000 -4.648582
v -4.364848 0.963000 -4.648582
v -4.364848 2.070000 -4.648582
v -6.094848 2.070000 -4.648582
v -6.094848 0.963000 -4.648582
v -6.134848 0.951000 -4.648582
v -6.134848 2.110000 -4.648582
v -4.324848 2.110000 -4.648582
v -4.324848 0.951000 -4.648582
v -6.094848 0.963000 -4.648582
v -6.094848 2.070000 -4.648582
v -6.094848 2.070000 -4.583582
v -6.094848 0.963000 -4.583582
v -6.094848 2.070000 -4.583582
v -4.364848 2.070000 -4.583582
v -4.364848 0.963000 -4.583582
v -4.384848 0.975000 -4.583582
v -4.384848 2.050000 -4.583582
v -6.074848 2.050000 -4.583582
v -6.074848 0.975000 -4.583582
v -4.384848 0.975000 -4.583582
v -4.364848 0.963000 -4.583582
v -6.094848 0.963000 -4.583582
v -6.074848 2.050000 -4.583582
v -6.074848 2.050000 -4.565582
v -6.074848 0.975000 -4.565582
v -6.074848 0.975000 -4.583582
v -6.134848 2.110000 -4.565582
v -4.324848 2.110000 -4.565582
v -4.324848 2.110000 -4.648582
v -6.134848 2.110000 -4.648582
v -6.094848 2.070000 -4.648582
v -4.364848 2.070000 -4.648582
v -4.364848 2.070000 -4.583582
v -6.094848 2.070000 -4.583582
v -4.384848 2.050000 -4.565582
v -6.074848 2.050000 -4.565582
v -6.074848 2.050000 -4.583582
v -4.384848 2.050000 -4.583582
v -4.324848 0.951000 -4.648582
v -4.324848 2.110000 -4.648582
v -4.324848 2.110000 -4.565582
v -4.324848 0.900000 -4.565582
v -4.324848 0.900000 -4.736082
v -4.324848 0.933809 -4.736082
v -4.324848 0.944745 -4.663582
v -4.324848 0.949688 -4.663582
v -4.364848 2.070000 -4.648582
v -4.364848 0.963000 -4.648582
v -4.364848 0.963000 -4.583582
v -4.364848 2.070000 -4.583582
v -4.384848 2.050000 -4.565582
v -4.384848 2.050000 -4.583582
v -4.384848 0.975000 -4.583582
v -4.384848 0.975000 -4.565582
v -4.324848 0.900000 -4.736082
v -4.324848 0.900000 -4.565582
v -6.134848 0.900000 -4.565582
v -6.134848 0.900000 -4.736082
v -4.324848 0.933809 -4.736082
v -4.324848 0.900000 -4.736082
v -6.134848 0.900000 -4.736082
v -6.134848 0.933809 -4.736082
v -4.324848 0.944745 -4.663582
v -4.324848 0.933809 -4.736082
v -6.134848 0.933809 -4.736082
v -6.134848 0.944745 -4.663582
v -4.324848 0.949688 -4.663582
v -4.324848 0.944745 -4.663582
v -6.134848 0.944745 -4.663582
v -6.134848 0.949688 -4.663582
v -4.324848 0.951000 -4.648582
v -4.324848 0.949688 -4.663582
v -6.134848 0.949688 -4.663582
v -6.134848 0.951000 -4.648582
v -6.094848 0.963000 -4.583582
v -4.364848 0.963000 -4.583582
v -4.364848 0.963000 -4.648582
v -6.094848 0.963000 -4.648582
v -6.074848 0.975000 -4.565582
v -4.384848 0.975000 -4.565582
v -4.384848 0.975000 -4.583582
v -6.074848 0.975000 -4.583582
v -6.064848 0.993000 -4.612582
v -4.394848 0.993000 -4.612582
v -4.394848 2.040000 -4.612582
v -6.064848 2.040000 -4.612582
v -6.064848 0.993000 -4.636582
v -6.064848 2.040000 -4.636582
v -4.394848 2.040000 -4.636582
v -4.394848 0.993000 -4.636582
v -4.394848 0.993000 -4.612582
v -6.064848 0.993000 -4.612582
v -6.064848 0.993000 -4.636582
v -4.394848 0.993000 -4.636582
v -4.394848 2.040000 -4.612582
v -4.394848 0.993000 -4.612582
v -4.394848 0.993000 -4.636582
v -4.394848 2.040000 -4.636582
v -6.064848 2.040000 -4.612582
v -4.394848 2.040000 -4.612582
v -4.394848 2.040000 -4.636582
v -6.064848 2.040000 -4.636582
v -6.064848 0.993000 -4.612582
v -6.064848 2.040000 -4.612582
v -6.064848 2.040000 -4.636582
v -6.064848 0.993000 -4.636582
v -6.104848 2.080000 -4.648582
v -6.104848 2.080000 -4.654356
v -6.104848 0.953000 -4.654356
v -6.104848 0.953000 -4.648582
v -6.094848 2.070000 -4.583582
v -6.094848 2.070000 -4.648582
v -6.094848 0.963000 -4.648582
v -6.094848 0.963000 -4.583582
v -6.054848 2.030000 -4.598075
v -6.064997 2.040148 -4.583582
v -6.064997 0.992852 -4.583582
v -6.054848 1.003000 -4.598075
v -6.054848 2.030000 -4.612582
v -6.054848 2.030000 -4.598075
v -6.054848 1.003000 -4.598075
v -6.054848 1.003000 -4.612582
v -6.064848 2.040000 -4.636582
v -6.064848 2.040000 -4.612582
v -6.064848 0.993000 -4.612582
v -6.064848 0.993000 -4.636582
v -6.054848 2.030000 -4.654356
v -6.054848 2.030000 -4.636582
v -6.054848 1.003000 -4.636582
v -6.054848 1.003000 -4.654356
v -6.072294 2.047446 -4.660129
v -6.054848 2.030000 -4.654356
v -6.054848 1.003000 -4.654356
v -6.072294 0.985554 -4.660129
v -6.104848 2.080000 -4.654356
v -6.094064 2.069215 -4.660129
v -6.094064 0.963785 -4.660129
v -6.104848 0.953000 -4.654356
v -6.104848 0.953000 -4.648582
v -6.104848 0.953000 -4.654356
v -4.354848 0.953000 -4.654356
v -4.354848 0.953000 -4.648582
v -6.094848 0.963000 -4.583582
v -6.094848 0.963000 -4.648582
v -4.364848 0.963000 -4.648582
v -4.364848 0.963000 -4.583582
v -6.054848 1.003000 -4.598075
v -6.064997 0.992852 -4.583582
v -4.394700 0.992852 -4.583582
v -4.404848 1.003000 -4.598075
v -6.054848 1.003000 -4.612582
v -6.054848 1.003000 -4.598075
v -4.404848 1.003000 -4.598075
v -4.404848 1.003000 -4.612582
v -6.064848 0.993000 -4.636582
v -6.064848 0.993000 -4.612582
v -4.394848 0.993000 -4.612582
v -4.394848 0.993000 -4.636582
v -6.054848 1.003000 -4.654356
v -6.054848 1.003000 -4.636582
v -4.404848 1.003000 -4.636582
v -4.404848 1.003000 -4.654356
v -6.072294 0.985554 -4.660129
v -6.054848 1.003000 -4.654356
v -4.404848 1.003000 -4.654356
v -4.387403 0.985554 -4.660129
v -6.104848 0.953000 -4.654356
v -6.094064 0.963785 -4.660129
v -4.365633 0.963785 -4.660129
v -4.354848 0.953000 -4.654356
v -4.354848 0.953000 -4.648582
v -4.354848 0.953000 -4.654356
v -4.354848 2.080000 -4.654356
v -4.354848 2.080000 -4.648582
v -4.364848 0.963000 -4.583582
v -4.364848 0.963000 -4.648582
v -4.364848 2.070000 -4.648582
v -4.364848 2.070000 -4.583582
v -4.404848 1.003000 -4.598075
v -4.394700 0.992852 -4.583582
v -4.394700 2.040148 -4.583582
v -4.404848 2.030000 -4.598075
v -4.404848 1.003000 -4.612582
v -4.404848 1.003000 -4.598075
v -4.404848 2.030000 -4.598075
v -4.404848 2.030000 -4.612582
v -4.394848 0.993000 -4.636582
v -4.394848 0.993000 -4.612582
v -4.394848 2.040000 -4.612582
v -4.394848 2.040000 -4.636582
v -4.404848 1.003000 -4.654356
v -4.404848 1.003000 -4.636582
v -4.404848 2.030000 -4.636582
v -4.404848 2.030000 -4.654356
v -4.387403 0.985554 -4.660129
v -4.404848 1.003000 -4.654356
v -4.404848 2.030000 -4.654356
v -4.387403 2.047446 -4.660129
v -4.354848 0.953000 -4.654356
v -4.365633 0.963785 -4.660129
v -4.365633 2.069215 -4.660129
v -4.354848 2.080000 -4.654356
v -4.354848 2.080000 -4.648582
v -4.354848 2.080000 -4.654356
v -6.104848 2.080000 -4.654356
v -6.104848 2.080000 -4.648582
v -6.104848 0.953000 -4.648582
v -6.094848 0.963000 -4.648582
v -6.094848 2.070000 -4.648582
v -4.364848 2.070000 -4.648582
v -4.364848 0.963000 -4.648582
v -6.094848 0.963000 -4.648582
v -6.104848 0.953000 -4.648582
v -4.354848 0.953000 -4.648582
v -4.354848 2.080000 -4.648582
v -6.104848 2.080000 -4.648582
v -4.364848 2.070000 -4.583582
v -4.364848 2.070000 -4.648582
v -6.094848 2.070000 -4.648582
v -6.094848 2.070000 -4.583582
v -6.094848 0.963000 -4.583582
v -4.364848 0.963000 -4.583582
v -4.364848 2.070000 -4.583582
v -6.094848 2.070000 -4.583582
v -6.064997 2.040148 -4.583582
v -4.394700 2.040148 -4.583582
v -4.394700 0.992852 -4.583582
v -6.064997 0.992852 -4.583582
v -6.064997 2.040148 -4.583582
v -6.094848 2.070000 -4.583582
v -4.404848 2.030000 -4.598075
v -4.394700 2.040148 -4.583582
v -6.064997 2.040148 -4.583582
v -6.054848 2.030000 -4.598075
v -4.404848 2.030000 -4.612582
v -4.404848 2.030000 -4.598075
v -6.054848 2.030000 -4.598075
v -6.054848 2.030000 -4.612582
v -6.064848 2.040000 -4.612582
v -6.054848 2.030000 -4.612582
v -6.054848 1.003000 -4.612582
v -4.404848 1.003000 -4.612582
v -4.404848 2.030000 -4.612582
v -6.054848 2.030000 -4.612582
v -6.064848 2.040000 -4.612582
v -4.394848 2.040000 -4.612582
v -4.394848 0.993000 -4.612582
v -6.064848 0.993000 -4.612582
v -4.394848 2.040000 -4.636582
v -4.394848 2.040000 -4.612582
v -6.064848 2.040000 -4.612582
v -6.064848 2.040000 -4.636582
v -6.064848 0.993000 -4.636582
v -6.054848 1.003000 -4.636582
v -6.054848 2.030000 -4.636582
v -4.404848 2.030000 -4.636582
v -4.404848 1.003000 -4.636582
v -6.054848 1.003000 -4.636582
v -6.064848 0.993000 -4.636582
v -4.394848 0.993000 -4.636582
v -4.394848 2.040000 -4.636582
v -6.064848 2.040000 -4.636582
v -4.404848 2.030000 -4.654356
v -4.404848 2.030000 -4.636582
v -6.054848 2.030000 -4.636582
v -6.054848 2.030000 -4.654356
v -4.387403 2.047446 -4.660129
v -4.404848 2.030000 -4.654356
v -6.054848 2.030000 -4.654356
v -6.072294 2.047446 -4.660129
v -6.094064 2.069215 -4.660129
v -6.072294 2.047446 -4.660129
v -6.072294 0.985554 -4.660129
v -4.387403 0.985554 -4.660129
v -4.387403 2.047446 -4.660129
v -6.072294 2.047446 -4.660129
v -6.094064 2.069215 -4.660129
v -4.365633 2.069215 -4.660129
v -4.365633 0.963785 -4.660129
v -6.094064 0.963785 -4.660129
v -4.354848 2.080000 -4.654356
v -4.365633 2.069215 -4.660129
v -6.094064 2.069215 -4.660129
v -6.104848 2.080000 -4.654356
f 712 705 706
f 712 706 707
f 712 707 708
f 708 709 710
f 712 708 710
f 710 711 712
f 720 713 714
f 714 715 716
f 716 717 718
f 714 716 718
f 714 718 719
f 714 719 720
f 724 721 722
f 722 723 724
f 728 725 726
f 726 727 728
f 732 729 730
f 730 731 732
f 736 733 734
f 734 735 736
f 740 737 738
f 738 739 740
f 744 741 742
f 742 743 744
f 748 745 746
f 746 747 748
f 752 749 750
f 750 751 752
f 754 755 756
f 754 756 757
f 753 754 757
f 753 757 758
f 762 753 758
f 762 758 759
f 762 759 760
f 760 761 762
f 763 764 765
f 763 765 766
f 770 763 766
f 766 767 768
f 770 766 768
f 768 769 770
f 780 771 772
f 780 772 773
f 780 773 774
f 775 776 777
f 775 777 778
f 774 775 778
f 774 778 779
f 774 779 780
f 784 781 782
f 782 783 784
f 786 787 788
f 786 788 789
f 785 786 789
f 785 789 790
f 794 785 790
f 794 790 791
f 794 791 792
f 792 793 794
f 798 795 796
f 796 797 798
f 802 799 800
f 800 801 802
f 806 803 804
f 804 805 806
f 810 807 808
f 808 809 810
f 811 812 813
f 811 813 814
f 818 811 814
f 814 815 816
f 814 816 817
f 814 817 818
f 822 819 820
f 820 821 822
f 826 823 824
f 824 825 826
f 830 827 828
f 828 829 830
f 834 831 832
f 832 833 834
f 838 835 836
f 836 837 838
f 842 839 840
f 840 841 842
f 846 843 844
f 844 845 846
f 850 847 848
f 848 849 850
f 854 851 852
f 852 853 854
usemtl ifc_0080C040
f 858 855 856
f 856 857 858
f 862 859 860
f 860 861 862
f 866 863 864
f 864 865 866
f 870 867 868
f 868 869 870
f 874 871 872
f 872 873 874
f 878 875 876
f 876 877 878
usemtl ifc_F9F9F9FF
f 882 879 880
f 880 881 882
f 886 883 884
f 884 885 886
f 890 887 888
f 888 889 890
f 894 891 892
f 892 893 894
f 898 895 896
f 896 897 898
f 902 899 900
f 900 901 902
f 906 903 904
f 904 905 906
f 910 907 908
f 908 909 910
f 914 911 912
f 912 913 914
f 918 915 916
f 916 917 918
f 922 919 920
f 920 921 922
f 926 923 924
f 924 925 926
f 930 927 928
f 928 929 930
f 934 931 932
f 932 933 934
f 938 935 936
f 936 937 938
f 942 939 940
f 940 941 942
f 946 943 944
f 944 945 946
f 950 947 948
f 948 949 950
f 954 951 952
f 952 953 954
f 958 955 956
f 956 957 958
f 962 959 960
f 960 961 962
f 966 963 964
f 964 965 966
f 970 967 968
f 968 969 970
f 974 971 972
f 972 973 974
f 978 975 976
f 976 977 978
f 988 979 980
f 988 980 981
f 988 981 982
f 983 984 985
f 983 985 986
f 982 983 986
f 982 986 987
f 982 987 988
f 992 989 990
f 990 991 992
f 995 996 997
f 995 997 998
f 994 995 998
f 994 998 999
f 993 994 999
f 993 999 1000
f 1002 993 1000
f 1000 1001 1002
f 1006 1003 1004
f 1004 1005 1006
f 1010 1007 1008
f 1008 1009 1010
f 1020 1011 1012
f 1020 1012 1013
f 1020 1013 1014
f 1015 1016 1017
f 1015 1017 1018
f 1014 1015 1018
f 1014 1018 1019
f 1014 1019 1020
f 1024 1021 1022
f 1022 1023 1024
f 1034 1025 1026
f 1034 1026 1027
f 1034 1027 1028
f 1029 1030 1031
f 1029 1031 1032
f 1028 1029 1032
f 1028 1032 1033
f 1028 1033 1034
f 1038 1035 1036
f 1036 1037 1038
f 1042 1039 1040
f 1040 1041 1042
f 1052 1043 1044
f 1052 1044 1045
f 1052 1045 1046
f 1047 1048 1049
f 1047 1049 1050
f 1046 1047 1050
f 1046 1050 1051
f 1046 1051 1052
f 1056 1053 1054
f 1054 1055 1056

o Windows_Sgl_Plain_1810x1210mm_287567_3cUkl32yn9qRSPvBJVyZTO
# IfcWindow | layer Shared_Building
v 0.298902 0.900000 1.076418
v 0.298902 0.900000 1.101418
v 0.273902 0.900000 1.101418
v 0.273902 0.900000 1.258418
v -1.536098 0.900000 1.258418
v -1.536098 0.900000 1.101418
v -1.561098 0.900000 1.101418
v -1.561098 0.900000 1.076418
v 0.298902 0.925000 1.076418
v -1.561098 0.925000 1.076418
v -1.561098 0.925000 1.101418
v -1.536098 0.925000 1.101418
v -1.536098 0.925000 1.258418
v 0.273902 0.925000 1.258418
v 0.273902 0.925000 1.101418
v 0.298902 0.925000 1.101418
v 0.298902 0.900000 1.101418
v 0.298902 0.900000 1.076418
v 0.298902 0.925000 1.076418
v 0.298902 0.925000 1.101418
v 0.273902 0.900000 1.101418
v 0.298902 0.900000 1.101418
v 0.298902 0.925000 1.101418
v 0.273902 0.925000 1.101418
v 0.273902 0.900000 1.258418
v 0.273902 0.900000 1.101418
v 0.273902 0.925000 1.101418
v 0.273902 0.925000 1.258418
v -1.536098 0.900000 1.258418
v 0.273902 0.900000 1.258418
v 0.273902 0.925000 1.258418
v -1.536098 0.925000 1.258418
v -1.536098 0.900000 1.101418
v -1.536098 0.900000 1.258418
v -1.536098 0.925000 1.258418
v -1.536098 0.925000 1.101418
v -1.561098 0.900000 1.101418
v -1.536098 0.900000 1.101418
v -1.536098 0.925000 1.101418
v -1.561098 0.925000 1.101418
v -1.561098 0.900000 1.076418
v -1.561098 0.900000 1.101418
v -1.561098 0.925000 1.101418
v -1.561098 0.925000 1.076418
v 0.298902 0.900000 1.076418
v -1.561098 0.900000 1.076418
v -1.561098 0.925000 1.076418
v 0.298902 0.925000 1.076418
v 0.273902 0.900000 1.258418
v -1.536098 0.900000 1.258418
v -1.536098 2.110000 1.258418
v -1.476098 2.050000 1.258418
v -1.476098 0.975000 1.258418
v 0.213902 0.975000 1.258418
v 0.213902 2.050000 1.258418
v -1.476098 2.050000 1.258418
v -1.536098 2.110000 1.258418
v 0.273902 2.110000 1.258418
v 0.273902 0.900000 1.258418
v 0.273902 2.110000 1.258418
v 0.273902 2.110000 1.341418
v 0.273902 0.951000 1.341418
v 0.273902 0.949688 1.356418
v 0.273902 0.944745 1.356418
v 0.273902 0.933809 1.428918
v 0.273902 0.900000 1.428918
v 0.273902 0.951000 1.341418
v 0.233902 0.963000 1.341418
v -1.496098 0.963000 1.341418
v -1.496098 2.070000 1.341418
v 0.233902 2.070000 1.341418
v 0.233902 0.963000 1.341418
v 0.273902 0.951000 1.341418
v 0.273902 2.110000 1.341418
v -1.536098 2.110000 1.341418
v -1.536098 0.951000 1.341418
v 0.233902 0.963000 1.341418
v 0.233902 2.070000 1.341418
v 0.233902 2.070000 1.276418
v 0.233902 0.963000 1.276418
v 0.233902 2.070000 1.276418
v -1.496098 2.070000 1.276418
v -1.496098 0.963000 1.276418
v -1.476098 0.975000 1.276418
v -1.476098 2.050000 1.276418
v 0.213902 2.050000 1.276418
v 0.213902 0.975000 1.276418
v -1.476098 0.975000 1.276418
v -1.496098 0.963000 1.276418
v 0.233902 0.963000 1.276418
v 0.213902 2.050000 1.276418
v 0.213902 2.050000 1.258418
v 0.213902 0.975000 1.258418
v 0.213902 0.975000 1.276418
v 0.273902 2.110000 1.258418
v -1.536098 2.110000 1.258418
v -1.536098 2.110000 1.341418
v 0.273902 2.110000 1.341418
v 0.233902 2.070000 1.341418
v -1.496098 2.070000 1.341418
v -1.496098 2.070000 1.276418
v 0.233902 2.070000 1.276418
v -1.476098 2.050000 1.258418
v 0.213902 2.050000 1.258418
v 0.213902 2.050000 1.276418
v -1.476098 2.050000 1.276418
v -1.536098 0.951000 1.341418
v -1.536098 2.110000 1.341418
v -1.536098 2.110000 1.258418
v -1.536098 0.900000 1.258418
v -1.536098 0.900000 1.428918
v -1.536098 0.933809 1.428918
v -1.536098 0.944745 1.356418
v -1.536098 0.949688 1.356418
v -1.496098 2.070000 1.341418
v -1.496098 0.963000 1.341418
v -1.496098 0.963000 1.276418
v -1.496098 2.070000 1.276418
v -1.476098 2.050000 1.258418
v -1.476098 2.050000 1.276418
v -1.476098 0.975000 1.276418
v -1.476098 0.975000 1.258418
v -1.536098 0.900000 1.428918
v -1.536098 0.900000 1.258418
v 0.273902 0.900000 1.258418
v 0.273902 0.900000 1.428918
v -1.536098 0.933809 1.428918
v -1.536098 0.900000 1.428918
v 0.273902 0.900000 1.428918
v 0.273902 0.933809 1.428918
v -1.536098 0.944745 1.356418
v -1.536098 0.933809 1.428918
v 0.273902 0.933809 1.428918
v 0.273902 0.944745 1.356418
v -1.536098 0.949688 1.356418
v -1.536098 0.944745 1.356418
v 0.273902 0.944745 1.356418
v 0.273902 0.949688 1.356418
v -1.536098 0.951000 1.341418
v -1.536098 0.949688 1.356418
v 0.273902 0.949688 1.356418
v 0.273902 0.951000 1.341418
v 0.233902 0.963000 1.276418
v -1.496098 0.963000 1.276418
v -1.496098 0.963000 1.341418
v 0.233902 0.963000 1.341418
v 0.213902 0.975000 1.258418
v -1.476098 0.975000 1.258418
v -1.476098 0.975000 1.276418
v 0.213902 0.975000 1.276418
v 0.203902 0.993000 1.305418
v -1.466098 0.993000 1.305418
v -1.466098 2.040000 1.305418
v 0.203902 2.040000 1.305418
v 0.203902 0.993000 1.329418
v 0.203902 2.040000 1.329418
v -1.466098 2.040000 1.329418
v -1.466098 0.993000 1.329418
v -1.466098 0.993000 1.305418
v 0.203902 0.993000 1.305418
v 0.203902 0.993000 1.329418
v -1.466098 0.993000 1.329418
v -1.466098 2.040000 1.305418
v -1.466098 0.993000 1.305418
v -1.466098 0.993000 1.329418
v -1.466098 2.040000 1.329418
v 0.203902 2.040000 1.305418
v -1.466098 2.040000 1.305418
v -1.466098 2.040000 1.329418
v 0.203902 2.040000 1.329418
v 0.203902 0.993000 1.305418
v 0.203902 2.040000 1.305418
v 0.203902 2.040000 1.329418
v 0.203902 0.993000 1.329418
v 0.243902 2.080000 1.341418
v 0.243902 2.080000 1.347191
v 0.243902 0.953000 1.347191
v 0.243902 0.953000 1.341418
v 0.233902 2.070000 1.276418
v 0.233902 2.070000 1.341418
v 0.233902 0.963000 1.341418
v 0.233902 0.963000 1.276418
v 0.193902 2.030000 1.290911
v 0.204050 2.040148 1.276418
v 0.204050 0.992852 1.276418
v 0.193902 1.003000 1.290911
v 0.193902 2.030000 1.305418
v 0.193902 2.030000 1.290911
v 0.193902 1.003000 1.290911
v 0.193902 1.003000 1.305418
v 0.203902 2.040000 1.329418
v 0.203902 2.040000 1.305418
v 0.203902 0.993000 1.305418
v 0.203902 0.993000 1.329418
v 0.193902 2.030000 1.347191
v 0.193902 2.030000 1.329418
v 0.193902 1.003000 1.329418
v 0.193902 1.003000 1.347191
v 0.211347 2.047446 1.352965
v 0.193902 2.030000 1.347191
v 0.193902 1.003000 1.347191
v 0.211347 0.985554 1.352965
v 0.243902 2.080000 1.347191
v 0.233117 2.069215 1.352965
v 0.233117 0.963785 1.352965
v 0.243902 0.953000 1.347191
v 0.243902 0.953000 1.341418
v 0.243902 0.953000 1.347191
v -1.506098 0.953000 1.347191
v -1.506098 0.953000 1.341418
v 0.233902 0.963000 1.276418
v 0.233902 0.963000 1.341418
v -1.496098 0.963000 1.341418
v -1.496098 0.963000 1.276418
v 0.193902 1.003000 1.290911
v 0.204050 0.992852 1.276418
v -1.466247 0.992852 1.276418
v -1.456098 1.003000 1.290911
v 0.193902 1.003000 1.305418
v 0.193902 1.003000 1.290911
v -1.456098 1.003000 1.290911
v -1.456098 1.003000 1.305418
v 0.203902 0.993000 1.329418
v 0.203902 0.993000 1.305418
v -1.466098 0.993000 1.305418
v -1.466098 0.993000 1.329418
v 0.193902 1.003000 1.347191
v 0.193902 1.003000 1.329418
v -1.456098 1.003000 1.329418
v -1.456098 1.003000 1.347191
v 0.211347 0.985554 1.352965
v 0.193902 1.003000 1.347191
v -1.456098 1.003000 1.347191
v -1.473544 0.985554 1.352965
v 0.243902 0.953000 1.347191
v 0.233117 0.963785 1.352965
v -1.495314 0.963785 1.352965
v -1.506098 0.953000 1.347191
v -1.506098 0.953000 1.341418
v -1.506098 0.953000 1.347191
v -1.506098 2.080000 1.347191
v -1.506098 2.080000 1.341418
v -1.496098 0.963000 1.276418
v -1.496098 0.963000 1.341418
v -1.496098 2.070000 1.341418
v -1.496098 2.070000 1.276418
v -1.456098 1.003000 1.290911
v -1.466247 0.992852 1.276418
v -1.466247 2.040148 1.276418
v -1.456098 2.030000 1.290911
v -1.456098 1.003000 1.305418
v -1.456098 1.003000 1.290911
v -1.456098 2.030000 1.290911
v -1.456098 2.030000 1.305418
v -1.466098 0.993000 1.329418
v -1.466098 0.993000 1.305418
v -1.466098 2.040000 1.305418
v -1.466098 2.040000 1.329418
v -1.456098 1.003000 1.347191
v -1.456098 1.003000 1.329418
v -1.456098 2.030000 1.329418
v -1.456098 2.030000 1.347191
v -1.473544 0.985554 1.352965
v -1.456098 1.003000 1.347191
v -1.456098 2.030000 1.347191
v -1.473544 2.047446 1.352965
v -1.506098 0.953000 1.347191
v -1.495314 0.963785 1.352965
v -1.495314 2.069215 1.352965
v -1.506098 2.080000 1.347191
v -1.506098 2.080000 1.341418
v -1.506098 2.080000 1.347191
v 0.243902 2.080000 1.347191
v 0.243902 2.080000 1.341418
v 0.243902 0.953000 1.341418
v 0.233902 0.963000 1.341418
v 0.233902 2.070000 1.341418
v -1.496098 2.070000 1.341418
v -1.496098 0.963000 1.341418
v 0.233902 0.963000 1.341418
v 0.243902 0.953000 1.341418
v -1.506098 0.953000 1.341418
v -1.506098 2.080000 1.341418
v 0.243902 2.080000 1.341418
v -1.496098 2.070000 1.276418
v -1.496098 2.070000 1.341418
v 0.233902 2.070000 1.341418
v 0.233902 2.070000 1.276418
v 0.233902 0.963000 1.276418
v -1.496098 0.963000 1.276418
v -1.496098 2.070000 1.276418
v 0.233902 2.070000 1.276418
v 0.204050 2.040148 1.276418
v -1.466247 2.040148 1.276418
v -1.466247 0.992852 1.276418
v 0.204050 0.992852 1.276418
v 0.204050 2.040148 1.276418
v 0.233902 2.070000 1.276418
v -1.456098 2.030000 1.290911
v -1.466247 2.040148 1.276418
v 0.204050 2.040148 1.276418
v 0.193902 2.030000 1.290911
v -1.456098 2.030000 1.305418
v -1.456098 2.030000 1.290911
v 0.193902 2.030000 1.290911
v 0.193902 2.030000 1.305418
v 0.203902 2.040000 1.305418
v 0.193902 2.030000 1.305418
v 0.193902 1.003000 1.305418
v -1.456098 1.003000 1.305418
v -1.456098 2.030000 1.305418
v 0.193902 2.030000 1.305418
v 0.203902 2.040000 1.305418
v -1.466098 2.040000 1.305418
v -1.466098 0.993000 1.305418
v 0.203902 0.993000 1.305418
v -1.466098 2.040000 1.329418
v -1.466098 2.040000 1.305418
v 0.203902 2.040000 1.305418
v 0.203902 2.040000 1.329418
v 0.203902 0.993000 1.329418
v 0.193902 1.003000 1.329418
v 0.193902 2.030000 1.329418
v -1.456098 2.030000 1.329418
v -1.456098 1.003000 1.329418
v 0.193902 1.003000 1.329418
v 0.203902 0.993000 1.329418
v -1.466098 0.993000 1.329418
v -1.466098 2.040000 1.329418
v 0.203902 2.040000 1.329418
v -1.456098 2.030000 1.347191
v -1.456098 2.030000 1.329418
v 0.193902 2.030000 1.329418
v 0.193902 2.030000 1.347191
v -1.473544 2.047446 1.352965
v -1.456098 2.030000 1.347191
v 0.193902 2.030000 1.347191
v 0.211347 2.047446 1.352965
v 0.233117 2.069215 1.352965
v 0.211347 2.047446 1.352965
v 0.211347 0.985554 1.352965
v -1.473544 0.985554 1.352965
v -1.473544 2.047446 1.352965
v 0.211347 2.047446 1.352965
v 0.233117 2.069215 1.352965
v -1.495314 2.069215 1.352965
v -1.495314 0.963785 1.352965
v 0.233117 0.963785 1.352965
v -1.506098 2.080000 1.347191
v -1.495314 2.069215 1.352965
v 0.233117 2.069215 1.352965
v 0.243902 2.080000 1.347191
f 1064 1057 1058
f 1064 1058 1059
f 1064 1059 1060
f 1060 1061 1062
f 1064 1060 1062
f 1062 1063 1064
f 1072 1065 1066
f 1066 1067 1068
f 1068 1069 1070
f 1066 1068 1070
f 1066 1070 1071
f 1066 1071 1072
f 1076 1073 1074
f 1074 1075 1076
f 1080 1077 1078
f 1078 1079 1080
f 1084 1081 1082
f 1082 1083 1084
f 1088 1085 1086
f 1086 1087 1088
f 1092 1089 1090
f 1090 1091 1092
f 1096 1093 1094
f 1094 1095 1096
f 1100 1097 1098
f 1098 1099 1100
f 1104 1101 1102
f 1102 1103 1104
f 1106 1107 1108
f 1106 1108 1109
f 1105 1106 1109
f 1105 1109 1110
f 1114 1105 1110
f 1114 1110 1111
f 1114 1111 1112
f 1112 1113 1114
f 1115 1116 1117
f 1115 1117 1118
f 1122 1115 1118
f 1118 1119 1120
f 1122 1118 1120
f 1120 1121 1122
f 1132 1123 1124
f 1132 1124 1125
f 1132 1125 1126
f 1127 1128 1129
f 1127 1129 1130
f 1126 1127 1130
f 1126 1130 1131
f 1126 1131 1132
f 1136 1133 1134
f 1134 1135 1136
f 1138 1139 1140
f 1138 1140 1141
f 1137 1138 1141
f 1137 1141 1142
f 1146 1137 1142
f 1146 1142 1143
f 1146 1143 1144
f 1144 1145 1146
f 1150 1147 1148
f 1148 1149 1150
f 1154 1151 1152
f 1152 1153 1154
f 1158 1155 1156
f 1156 1157 1158
f 1162 1159 1160
f 1160 1161 1162
f 1163 1164 1165
f 1163 1165 1166
f 1170 1163 1166
f 1166 1167 1168
f 1166 1168 1169
f 1166 1169 1170
f 1174 1171 1172
f 1172 1173 1174
f 1178 1175 1176
f 1176 1177 1178
f 1182 1179 1180
f 1180 1181 1182
f 1186 1183 1184
f 1184 1185 1186
f 1190 1187 1188
f 1188 1189 1190
f 1194 1191 1192
f 1192 1193 1194
f 1198 1195 1196
f 1196 1197 1198
f 1202 1199 1200
f 1200 1201 1202
f 1206 1203 1204
f 1204 1205 1206
usemtl ifc_0080C040
f 1210 1207 1208
f 1208 1209 1210
f 1214 1211 1212
f 1212 1213 1214
f 1218 1215 1216
f 1216 1217 1218
f 1222 1219 1220
f 1220 1221 1222
f 1226 1223 1224
f 1224 1225 1226
f 1230 1227 1228
f 1228 1229 1230
usemtl ifc_F9F9F9FF
f 1234 1231 1232
f 1232 1233 1234
f 1238 1235 1236
f 1236 1237 1238
f 1242 1239 1240
f 1240 1241 1242
f 1246 1243 1244
f 1244 1245 1246
f 1250 1247 1248
f 1248 1249 1250
f 1254 1251 1252
f 1252 1253 1254
f 1258 1255 1256
f 1256 1257 1258
f 1262 1259 1260
f 1260 1261 1262
f 1266 1263 1264
f 1264 1265 1266
f 1270 1267 1268
f 1268 1269 1270
f 1274 1271 1272
f 1272 1273 1274
f 1278 1275 1276
f 1276 1277 1278
f 1282 1279 1280
f 1280 1281 1282
f 1286 1283 1284
f 1284 1285 1286
f 1290 1287 1288
f 1288 1289 1290
f 1294 1291 1292
f 1292 1293 1294
f 1298 1295 1296
f 1296 1297 1298
f 1302 1299 1300
f 1300 1301 1302
f 1306 1303 1304
f 1304 1305 1306
f 1310 1307 1308
f 1308 1309 1310
f 1314 1311 1312
f 1312 1313 1314
f 1318 1315 1316
f 1316 1317 1318
f 1322 1319 1320
f 1320 1321 1322
f 1326 1323 1324
f 1324 1325 1326
f 1330 1327 1328
f 1328 1329 1330
f 1340 1331 1332
f 1340 1332 1333
f 1340 1333 1334
f 1335 1336 1337
f 1335 1337 1338
f 1334 1335 1338
f 1334 1338 1339
f 1334 1339 1340
f 1344 1341 1342
f 1342 1343 1344
f 1347 1348 1349
f 1347 1349 1350
f 1346 1347 1350
f 1346 1350 1351
f 1345 1346 1351
f 1345 1351 1352
f 1354 1345 1352
f 1352 1353 1354
f 1358 1355 1356
f 1356 1357 1358
f 1362 1359 1360
f 1360 1361 1362
f 1372 1363 1364
f 1372 1364 1365
f 1372 1365 1366
f 1367 1368 1369
f 1367 1369 1370
f 1366 1367 1370
f 1366 1370 1371
f 1366 1371 1372
f 1376 1373 1374
f 1374 1375 1376
f 1386 1377 1378
f 1386 1378 1379
f 1386 1379 1380
f 1381 1382 1383
f 1381 1383 1384
f 1380 1381 1384
f 1380 1384 1385
f 1380 1385 1386
f 1390 1387 1388
f 1388 1389 1390
f 1394 1391 1392
f 1392 1393 1394
f 1404 1395 1396
f 1404 1396 1397
f 1404 1397 1398
f 1399 1400 1401
f 1399 1401 1402
f 1398 1399 1402
f 1398 1402 1403
f 1398 1403 1404
f 1408 1405 1406
f 1406 1407 1408

